<?xml version="1.0" encoding="utf-8" standalone="no"?>
<!DOCTYPE svg PUBLIC "-//W3C//DTD SVG 1.1//EN"
  "http://www.w3.org/Graphics/SVG/1.1/DTD/svg11.dtd">
<svg height="432pt" version="1.1" viewBox="0 0 864 432" width="864pt" xmlns="http://www.w3.org/2000/svg" xmlns:xlink="http://www.w3.org/1999/xlink">
 <metadata>
  <rdf:RDF xmlns:cc="http://creativecommons.org/ns#" xmlns:dc="http://purl.org/dc/elements/1.1/" xmlns:rdf="http://www.w3.org/1999/02/22-rdf-syntax-ns#">
   <cc:Work>
    <dc:type rdf:resource="http://purl.org/dc/dcmitype/StillImage"/>
    <dc:date>2022-11-06T19:46:28.343261</dc:date>
    <dc:format>image/svg+xml</dc:format>
    <dc:creator>
     <cc:Agent>
      <dc:title>Matplotlib v3.4.3, https://matplotlib.org/</dc:title>
     </cc:Agent>
    </dc:creator>
   </cc:Work>
  </rdf:RDF>
 </metadata>
 <defs>
  <style type="text/css">*{stroke-linecap:butt;stroke-linejoin:round;}</style>
 </defs>
 <g id="figure_1">
  <g id="patch_1">
   <path d="M 0 432 
L 864 432 
L 864 0 
L 0 0 
z
" style="fill:#ffffff;"/>
  </g>
  <g id="axes_1">
   <g id="patch_2">
    <path d="M 108 378 
L 777.6 378 
L 777.6 51.84 
L 108 51.84 
z
" style="fill:#ffffff;"/>
   </g>
   <g id="matplotlib.axis_1">
    <g id="xtick_1">
     <g id="line2d_1">
      <defs>
       <path d="M 0 0 
L 0 3.5 
" id="mfd688570c0" style="stroke:#000000;stroke-width:0.8;"/>
      </defs>
      <g>
       <use style="stroke:#000000;stroke-width:0.8;" x="108" xlink:href="#mfd688570c0" y="378"/>
      </g>
     </g>
     <g id="text_1">
      <!-- 2019-01 -->
      <g transform="translate(87.108594 392.598437)scale(0.1 -0.1)">
       <defs>
        <path d="M 1228 531 
L 3431 531 
L 3431 0 
L 469 0 
L 469 531 
Q 828 903 1448 1529 
Q 2069 2156 2228 2338 
Q 2531 2678 2651 2914 
Q 2772 3150 2772 3378 
Q 2772 3750 2511 3984 
Q 2250 4219 1831 4219 
Q 1534 4219 1204 4116 
Q 875 4013 500 3803 
L 500 4441 
Q 881 4594 1212 4672 
Q 1544 4750 1819 4750 
Q 2544 4750 2975 4387 
Q 3406 4025 3406 3419 
Q 3406 3131 3298 2873 
Q 3191 2616 2906 2266 
Q 2828 2175 2409 1742 
Q 1991 1309 1228 531 
z
" id="DejaVuSans-32" transform="scale(0.015625)"/>
        <path d="M 2034 4250 
Q 1547 4250 1301 3770 
Q 1056 3291 1056 2328 
Q 1056 1369 1301 889 
Q 1547 409 2034 409 
Q 2525 409 2770 889 
Q 3016 1369 3016 2328 
Q 3016 3291 2770 3770 
Q 2525 4250 2034 4250 
z
M 2034 4750 
Q 2819 4750 3233 4129 
Q 3647 3509 3647 2328 
Q 3647 1150 3233 529 
Q 2819 -91 2034 -91 
Q 1250 -91 836 529 
Q 422 1150 422 2328 
Q 422 3509 836 4129 
Q 1250 4750 2034 4750 
z
" id="DejaVuSans-30" transform="scale(0.015625)"/>
        <path d="M 794 531 
L 1825 531 
L 1825 4091 
L 703 3866 
L 703 4441 
L 1819 4666 
L 2450 4666 
L 2450 531 
L 3481 531 
L 3481 0 
L 794 0 
L 794 531 
z
" id="DejaVuSans-31" transform="scale(0.015625)"/>
        <path d="M 703 97 
L 703 672 
Q 941 559 1184 500 
Q 1428 441 1663 441 
Q 2288 441 2617 861 
Q 2947 1281 2994 2138 
Q 2813 1869 2534 1725 
Q 2256 1581 1919 1581 
Q 1219 1581 811 2004 
Q 403 2428 403 3163 
Q 403 3881 828 4315 
Q 1253 4750 1959 4750 
Q 2769 4750 3195 4129 
Q 3622 3509 3622 2328 
Q 3622 1225 3098 567 
Q 2575 -91 1691 -91 
Q 1453 -91 1209 -44 
Q 966 3 703 97 
z
M 1959 2075 
Q 2384 2075 2632 2365 
Q 2881 2656 2881 3163 
Q 2881 3666 2632 3958 
Q 2384 4250 1959 4250 
Q 1534 4250 1286 3958 
Q 1038 3666 1038 3163 
Q 1038 2656 1286 2365 
Q 1534 2075 1959 2075 
z
" id="DejaVuSans-39" transform="scale(0.015625)"/>
        <path d="M 313 2009 
L 1997 2009 
L 1997 1497 
L 313 1497 
L 313 2009 
z
" id="DejaVuSans-2d" transform="scale(0.015625)"/>
       </defs>
       <use xlink:href="#DejaVuSans-32"/>
       <use x="63.623047" xlink:href="#DejaVuSans-30"/>
       <use x="127.246094" xlink:href="#DejaVuSans-31"/>
       <use x="190.869141" xlink:href="#DejaVuSans-39"/>
       <use x="254.492188" xlink:href="#DejaVuSans-2d"/>
       <use x="290.576172" xlink:href="#DejaVuSans-30"/>
       <use x="354.199219" xlink:href="#DejaVuSans-31"/>
      </g>
     </g>
    </g>
    <g id="xtick_2">
     <g id="line2d_2">
      <g>
       <use style="stroke:#000000;stroke-width:0.8;" x="190.955236" xlink:href="#mfd688570c0" y="378"/>
      </g>
     </g>
     <g id="text_2">
      <!-- 2019-07 -->
      <g transform="translate(170.06383 392.598437)scale(0.1 -0.1)">
       <defs>
        <path d="M 525 4666 
L 3525 4666 
L 3525 4397 
L 1831 0 
L 1172 0 
L 2766 4134 
L 525 4134 
L 525 4666 
z
" id="DejaVuSans-37" transform="scale(0.015625)"/>
       </defs>
       <use xlink:href="#DejaVuSans-32"/>
       <use x="63.623047" xlink:href="#DejaVuSans-30"/>
       <use x="127.246094" xlink:href="#DejaVuSans-31"/>
       <use x="190.869141" xlink:href="#DejaVuSans-39"/>
       <use x="254.492188" xlink:href="#DejaVuSans-2d"/>
       <use x="290.576172" xlink:href="#DejaVuSans-30"/>
       <use x="354.199219" xlink:href="#DejaVuSans-37"/>
      </g>
     </g>
    </g>
    <g id="xtick_3">
     <g id="line2d_3">
      <g>
       <use style="stroke:#000000;stroke-width:0.8;" x="275.285421" xlink:href="#mfd688570c0" y="378"/>
      </g>
     </g>
     <g id="text_3">
      <!-- 2020-01 -->
      <g transform="translate(254.394015 392.598437)scale(0.1 -0.1)">
       <use xlink:href="#DejaVuSans-32"/>
       <use x="63.623047" xlink:href="#DejaVuSans-30"/>
       <use x="127.246094" xlink:href="#DejaVuSans-32"/>
       <use x="190.869141" xlink:href="#DejaVuSans-30"/>
       <use x="254.492188" xlink:href="#DejaVuSans-2d"/>
       <use x="290.576172" xlink:href="#DejaVuSans-30"/>
       <use x="354.199219" xlink:href="#DejaVuSans-31"/>
      </g>
     </g>
    </g>
    <g id="xtick_4">
     <g id="line2d_4">
      <g>
       <use style="stroke:#000000;stroke-width:0.8;" x="358.698973" xlink:href="#mfd688570c0" y="378"/>
      </g>
     </g>
     <g id="text_4">
      <!-- 2020-07 -->
      <g transform="translate(337.807567 392.598437)scale(0.1 -0.1)">
       <use xlink:href="#DejaVuSans-32"/>
       <use x="63.623047" xlink:href="#DejaVuSans-30"/>
       <use x="127.246094" xlink:href="#DejaVuSans-32"/>
       <use x="190.869141" xlink:href="#DejaVuSans-30"/>
       <use x="254.492188" xlink:href="#DejaVuSans-2d"/>
       <use x="290.576172" xlink:href="#DejaVuSans-30"/>
       <use x="354.199219" xlink:href="#DejaVuSans-37"/>
      </g>
     </g>
    </g>
    <g id="xtick_5">
     <g id="line2d_5">
      <g>
       <use style="stroke:#000000;stroke-width:0.8;" x="443.029158" xlink:href="#mfd688570c0" y="378"/>
      </g>
     </g>
     <g id="text_5">
      <!-- 2021-01 -->
      <g transform="translate(422.137752 392.598437)scale(0.1 -0.1)">
       <use xlink:href="#DejaVuSans-32"/>
       <use x="63.623047" xlink:href="#DejaVuSans-30"/>
       <use x="127.246094" xlink:href="#DejaVuSans-32"/>
       <use x="190.869141" xlink:href="#DejaVuSans-31"/>
       <use x="254.492188" xlink:href="#DejaVuSans-2d"/>
       <use x="290.576172" xlink:href="#DejaVuSans-30"/>
       <use x="354.199219" xlink:href="#DejaVuSans-31"/>
      </g>
     </g>
    </g>
    <g id="xtick_6">
     <g id="line2d_6">
      <g>
       <use style="stroke:#000000;stroke-width:0.8;" x="525.984394" xlink:href="#mfd688570c0" y="378"/>
      </g>
     </g>
     <g id="text_6">
      <!-- 2021-07 -->
      <g transform="translate(505.092988 392.598437)scale(0.1 -0.1)">
       <use xlink:href="#DejaVuSans-32"/>
       <use x="63.623047" xlink:href="#DejaVuSans-30"/>
       <use x="127.246094" xlink:href="#DejaVuSans-32"/>
       <use x="190.869141" xlink:href="#DejaVuSans-31"/>
       <use x="254.492188" xlink:href="#DejaVuSans-2d"/>
       <use x="290.576172" xlink:href="#DejaVuSans-30"/>
       <use x="354.199219" xlink:href="#DejaVuSans-37"/>
      </g>
     </g>
    </g>
    <g id="xtick_7">
     <g id="line2d_7">
      <g>
       <use style="stroke:#000000;stroke-width:0.8;" x="610.314579" xlink:href="#mfd688570c0" y="378"/>
      </g>
     </g>
     <g id="text_7">
      <!-- 2022-01 -->
      <g transform="translate(589.423173 392.598437)scale(0.1 -0.1)">
       <use xlink:href="#DejaVuSans-32"/>
       <use x="63.623047" xlink:href="#DejaVuSans-30"/>
       <use x="127.246094" xlink:href="#DejaVuSans-32"/>
       <use x="190.869141" xlink:href="#DejaVuSans-32"/>
       <use x="254.492188" xlink:href="#DejaVuSans-2d"/>
       <use x="290.576172" xlink:href="#DejaVuSans-30"/>
       <use x="354.199219" xlink:href="#DejaVuSans-31"/>
      </g>
     </g>
    </g>
    <g id="xtick_8">
     <g id="line2d_8">
      <g>
       <use style="stroke:#000000;stroke-width:0.8;" x="693.269815" xlink:href="#mfd688570c0" y="378"/>
      </g>
     </g>
     <g id="text_8">
      <!-- 2022-07 -->
      <g transform="translate(672.378409 392.598437)scale(0.1 -0.1)">
       <use xlink:href="#DejaVuSans-32"/>
       <use x="63.623047" xlink:href="#DejaVuSans-30"/>
       <use x="127.246094" xlink:href="#DejaVuSans-32"/>
       <use x="190.869141" xlink:href="#DejaVuSans-32"/>
       <use x="254.492188" xlink:href="#DejaVuSans-2d"/>
       <use x="290.576172" xlink:href="#DejaVuSans-30"/>
       <use x="354.199219" xlink:href="#DejaVuSans-37"/>
      </g>
     </g>
    </g>
    <g id="xtick_9">
     <g id="line2d_9">
      <g>
       <use style="stroke:#000000;stroke-width:0.8;" x="777.6" xlink:href="#mfd688570c0" y="378"/>
      </g>
     </g>
     <g id="text_9">
      <!-- 2023-01 -->
      <g transform="translate(756.708594 392.598437)scale(0.1 -0.1)">
       <defs>
        <path d="M 2597 2516 
Q 3050 2419 3304 2112 
Q 3559 1806 3559 1356 
Q 3559 666 3084 287 
Q 2609 -91 1734 -91 
Q 1441 -91 1130 -33 
Q 819 25 488 141 
L 488 750 
Q 750 597 1062 519 
Q 1375 441 1716 441 
Q 2309 441 2620 675 
Q 2931 909 2931 1356 
Q 2931 1769 2642 2001 
Q 2353 2234 1838 2234 
L 1294 2234 
L 1294 2753 
L 1863 2753 
Q 2328 2753 2575 2939 
Q 2822 3125 2822 3475 
Q 2822 3834 2567 4026 
Q 2313 4219 1838 4219 
Q 1578 4219 1281 4162 
Q 984 4106 628 3988 
L 628 4550 
Q 988 4650 1302 4700 
Q 1616 4750 1894 4750 
Q 2613 4750 3031 4423 
Q 3450 4097 3450 3541 
Q 3450 3153 3228 2886 
Q 3006 2619 2597 2516 
z
" id="DejaVuSans-33" transform="scale(0.015625)"/>
       </defs>
       <use xlink:href="#DejaVuSans-32"/>
       <use x="63.623047" xlink:href="#DejaVuSans-30"/>
       <use x="127.246094" xlink:href="#DejaVuSans-32"/>
       <use x="190.869141" xlink:href="#DejaVuSans-33"/>
       <use x="254.492188" xlink:href="#DejaVuSans-2d"/>
       <use x="290.576172" xlink:href="#DejaVuSans-30"/>
       <use x="354.199219" xlink:href="#DejaVuSans-31"/>
      </g>
     </g>
    </g>
    <g id="xtick_10">
     <g id="line2d_10">
      <defs>
       <path d="M 0 0 
L 0 2 
" id="maabb725df0" style="stroke:#000000;stroke-width:0.6;"/>
      </defs>
      <g>
       <use style="stroke:#000000;stroke-width:0.6;" x="122.207803" xlink:href="#maabb725df0" y="378"/>
      </g>
     </g>
    </g>
    <g id="xtick_11">
     <g id="line2d_11">
      <g>
       <use style="stroke:#000000;stroke-width:0.6;" x="135.040657" xlink:href="#maabb725df0" y="378"/>
      </g>
     </g>
    </g>
    <g id="xtick_12">
     <g id="line2d_12">
      <g>
       <use style="stroke:#000000;stroke-width:0.6;" x="149.24846" xlink:href="#maabb725df0" y="378"/>
      </g>
     </g>
    </g>
    <g id="xtick_13">
     <g id="line2d_13">
      <g>
       <use style="stroke:#000000;stroke-width:0.6;" x="162.997947" xlink:href="#maabb725df0" y="378"/>
      </g>
     </g>
    </g>
    <g id="xtick_14">
     <g id="line2d_14">
      <g>
       <use style="stroke:#000000;stroke-width:0.6;" x="177.205749" xlink:href="#maabb725df0" y="378"/>
      </g>
     </g>
    </g>
    <g id="xtick_15">
     <g id="line2d_15">
      <g>
       <use style="stroke:#000000;stroke-width:0.6;" x="205.163039" xlink:href="#maabb725df0" y="378"/>
      </g>
     </g>
    </g>
    <g id="xtick_16">
     <g id="line2d_16">
      <g>
       <use style="stroke:#000000;stroke-width:0.6;" x="219.370842" xlink:href="#maabb725df0" y="378"/>
      </g>
     </g>
    </g>
    <g id="xtick_17">
     <g id="line2d_17">
      <g>
       <use style="stroke:#000000;stroke-width:0.6;" x="233.120329" xlink:href="#maabb725df0" y="378"/>
      </g>
     </g>
    </g>
    <g id="xtick_18">
     <g id="line2d_18">
      <g>
       <use style="stroke:#000000;stroke-width:0.6;" x="247.328131" xlink:href="#maabb725df0" y="378"/>
      </g>
     </g>
    </g>
    <g id="xtick_19">
     <g id="line2d_19">
      <g>
       <use style="stroke:#000000;stroke-width:0.6;" x="261.077618" xlink:href="#maabb725df0" y="378"/>
      </g>
     </g>
    </g>
    <g id="xtick_20">
     <g id="line2d_20">
      <g>
       <use style="stroke:#000000;stroke-width:0.6;" x="289.493224" xlink:href="#maabb725df0" y="378"/>
      </g>
     </g>
    </g>
    <g id="xtick_21">
     <g id="line2d_21">
      <g>
       <use style="stroke:#000000;stroke-width:0.6;" x="302.784394" xlink:href="#maabb725df0" y="378"/>
      </g>
     </g>
    </g>
    <g id="xtick_22">
     <g id="line2d_22">
      <g>
       <use style="stroke:#000000;stroke-width:0.6;" x="316.992197" xlink:href="#maabb725df0" y="378"/>
      </g>
     </g>
    </g>
    <g id="xtick_23">
     <g id="line2d_23">
      <g>
       <use style="stroke:#000000;stroke-width:0.6;" x="330.741684" xlink:href="#maabb725df0" y="378"/>
      </g>
     </g>
    </g>
    <g id="xtick_24">
     <g id="line2d_24">
      <g>
       <use style="stroke:#000000;stroke-width:0.6;" x="344.949487" xlink:href="#maabb725df0" y="378"/>
      </g>
     </g>
    </g>
    <g id="xtick_25">
     <g id="line2d_25">
      <g>
       <use style="stroke:#000000;stroke-width:0.6;" x="372.906776" xlink:href="#maabb725df0" y="378"/>
      </g>
     </g>
    </g>
    <g id="xtick_26">
     <g id="line2d_26">
      <g>
       <use style="stroke:#000000;stroke-width:0.6;" x="387.114579" xlink:href="#maabb725df0" y="378"/>
      </g>
     </g>
    </g>
    <g id="xtick_27">
     <g id="line2d_27">
      <g>
       <use style="stroke:#000000;stroke-width:0.6;" x="400.864066" xlink:href="#maabb725df0" y="378"/>
      </g>
     </g>
    </g>
    <g id="xtick_28">
     <g id="line2d_28">
      <g>
       <use style="stroke:#000000;stroke-width:0.6;" x="415.071869" xlink:href="#maabb725df0" y="378"/>
      </g>
     </g>
    </g>
    <g id="xtick_29">
     <g id="line2d_29">
      <g>
       <use style="stroke:#000000;stroke-width:0.6;" x="428.821355" xlink:href="#maabb725df0" y="378"/>
      </g>
     </g>
    </g>
    <g id="xtick_30">
     <g id="line2d_30">
      <g>
       <use style="stroke:#000000;stroke-width:0.6;" x="457.236961" xlink:href="#maabb725df0" y="378"/>
      </g>
     </g>
    </g>
    <g id="xtick_31">
     <g id="line2d_31">
      <g>
       <use style="stroke:#000000;stroke-width:0.6;" x="470.069815" xlink:href="#maabb725df0" y="378"/>
      </g>
     </g>
    </g>
    <g id="xtick_32">
     <g id="line2d_32">
      <g>
       <use style="stroke:#000000;stroke-width:0.6;" x="484.277618" xlink:href="#maabb725df0" y="378"/>
      </g>
     </g>
    </g>
    <g id="xtick_33">
     <g id="line2d_33">
      <g>
       <use style="stroke:#000000;stroke-width:0.6;" x="498.027105" xlink:href="#maabb725df0" y="378"/>
      </g>
     </g>
    </g>
    <g id="xtick_34">
     <g id="line2d_34">
      <g>
       <use style="stroke:#000000;stroke-width:0.6;" x="512.234908" xlink:href="#maabb725df0" y="378"/>
      </g>
     </g>
    </g>
    <g id="xtick_35">
     <g id="line2d_35">
      <g>
       <use style="stroke:#000000;stroke-width:0.6;" x="540.192197" xlink:href="#maabb725df0" y="378"/>
      </g>
     </g>
    </g>
    <g id="xtick_36">
     <g id="line2d_36">
      <g>
       <use style="stroke:#000000;stroke-width:0.6;" x="554.4" xlink:href="#maabb725df0" y="378"/>
      </g>
     </g>
    </g>
    <g id="xtick_37">
     <g id="line2d_37">
      <g>
       <use style="stroke:#000000;stroke-width:0.6;" x="568.149487" xlink:href="#maabb725df0" y="378"/>
      </g>
     </g>
    </g>
    <g id="xtick_38">
     <g id="line2d_38">
      <g>
       <use style="stroke:#000000;stroke-width:0.6;" x="582.35729" xlink:href="#maabb725df0" y="378"/>
      </g>
     </g>
    </g>
    <g id="xtick_39">
     <g id="line2d_39">
      <g>
       <use style="stroke:#000000;stroke-width:0.6;" x="596.106776" xlink:href="#maabb725df0" y="378"/>
      </g>
     </g>
    </g>
    <g id="xtick_40">
     <g id="line2d_40">
      <g>
       <use style="stroke:#000000;stroke-width:0.6;" x="624.522382" xlink:href="#maabb725df0" y="378"/>
      </g>
     </g>
    </g>
    <g id="xtick_41">
     <g id="line2d_41">
      <g>
       <use style="stroke:#000000;stroke-width:0.6;" x="637.355236" xlink:href="#maabb725df0" y="378"/>
      </g>
     </g>
    </g>
    <g id="xtick_42">
     <g id="line2d_42">
      <g>
       <use style="stroke:#000000;stroke-width:0.6;" x="651.563039" xlink:href="#maabb725df0" y="378"/>
      </g>
     </g>
    </g>
    <g id="xtick_43">
     <g id="line2d_43">
      <g>
       <use style="stroke:#000000;stroke-width:0.6;" x="665.312526" xlink:href="#maabb725df0" y="378"/>
      </g>
     </g>
    </g>
    <g id="xtick_44">
     <g id="line2d_44">
      <g>
       <use style="stroke:#000000;stroke-width:0.6;" x="679.520329" xlink:href="#maabb725df0" y="378"/>
      </g>
     </g>
    </g>
    <g id="xtick_45">
     <g id="line2d_45">
      <g>
       <use style="stroke:#000000;stroke-width:0.6;" x="707.477618" xlink:href="#maabb725df0" y="378"/>
      </g>
     </g>
    </g>
    <g id="xtick_46">
     <g id="line2d_46">
      <g>
       <use style="stroke:#000000;stroke-width:0.6;" x="721.685421" xlink:href="#maabb725df0" y="378"/>
      </g>
     </g>
    </g>
    <g id="xtick_47">
     <g id="line2d_47">
      <g>
       <use style="stroke:#000000;stroke-width:0.6;" x="735.434908" xlink:href="#maabb725df0" y="378"/>
      </g>
     </g>
    </g>
    <g id="xtick_48">
     <g id="line2d_48">
      <g>
       <use style="stroke:#000000;stroke-width:0.6;" x="749.64271" xlink:href="#maabb725df0" y="378"/>
      </g>
     </g>
    </g>
    <g id="xtick_49">
     <g id="line2d_49">
      <g>
       <use style="stroke:#000000;stroke-width:0.6;" x="763.392197" xlink:href="#maabb725df0" y="378"/>
      </g>
     </g>
    </g>
    <g id="text_10">
     <!-- Date -->
     <g transform="translate(430.849219 406.276563)scale(0.1 -0.1)">
      <defs>
       <path d="M 1259 4147 
L 1259 519 
L 2022 519 
Q 2988 519 3436 956 
Q 3884 1394 3884 2338 
Q 3884 3275 3436 3711 
Q 2988 4147 2022 4147 
L 1259 4147 
z
M 628 4666 
L 1925 4666 
Q 3281 4666 3915 4102 
Q 4550 3538 4550 2338 
Q 4550 1131 3912 565 
Q 3275 0 1925 0 
L 628 0 
L 628 4666 
z
" id="DejaVuSans-44" transform="scale(0.015625)"/>
       <path d="M 2194 1759 
Q 1497 1759 1228 1600 
Q 959 1441 959 1056 
Q 959 750 1161 570 
Q 1363 391 1709 391 
Q 2188 391 2477 730 
Q 2766 1069 2766 1631 
L 2766 1759 
L 2194 1759 
z
M 3341 1997 
L 3341 0 
L 2766 0 
L 2766 531 
Q 2569 213 2275 61 
Q 1981 -91 1556 -91 
Q 1019 -91 701 211 
Q 384 513 384 1019 
Q 384 1609 779 1909 
Q 1175 2209 1959 2209 
L 2766 2209 
L 2766 2266 
Q 2766 2663 2505 2880 
Q 2244 3097 1772 3097 
Q 1472 3097 1187 3025 
Q 903 2953 641 2809 
L 641 3341 
Q 956 3463 1253 3523 
Q 1550 3584 1831 3584 
Q 2591 3584 2966 3190 
Q 3341 2797 3341 1997 
z
" id="DejaVuSans-61" transform="scale(0.015625)"/>
       <path d="M 1172 4494 
L 1172 3500 
L 2356 3500 
L 2356 3053 
L 1172 3053 
L 1172 1153 
Q 1172 725 1289 603 
Q 1406 481 1766 481 
L 2356 481 
L 2356 0 
L 1766 0 
Q 1100 0 847 248 
Q 594 497 594 1153 
L 594 3053 
L 172 3053 
L 172 3500 
L 594 3500 
L 594 4494 
L 1172 4494 
z
" id="DejaVuSans-74" transform="scale(0.015625)"/>
       <path d="M 3597 1894 
L 3597 1613 
L 953 1613 
Q 991 1019 1311 708 
Q 1631 397 2203 397 
Q 2534 397 2845 478 
Q 3156 559 3463 722 
L 3463 178 
Q 3153 47 2828 -22 
Q 2503 -91 2169 -91 
Q 1331 -91 842 396 
Q 353 884 353 1716 
Q 353 2575 817 3079 
Q 1281 3584 2069 3584 
Q 2775 3584 3186 3129 
Q 3597 2675 3597 1894 
z
M 3022 2063 
Q 3016 2534 2758 2815 
Q 2500 3097 2075 3097 
Q 1594 3097 1305 2825 
Q 1016 2553 972 2059 
L 3022 2063 
z
" id="DejaVuSans-65" transform="scale(0.015625)"/>
      </defs>
      <use xlink:href="#DejaVuSans-44"/>
      <use x="77.001953" xlink:href="#DejaVuSans-61"/>
      <use x="138.28125" xlink:href="#DejaVuSans-74"/>
      <use x="177.490234" xlink:href="#DejaVuSans-65"/>
     </g>
    </g>
   </g>
   <g id="matplotlib.axis_2">
    <g id="ytick_1">
     <g id="line2d_50">
      <defs>
       <path d="M 0 0 
L -3.5 0 
" id="m38a05ec2d8" style="stroke:#000000;stroke-width:0.8;"/>
      </defs>
      <g>
       <use style="stroke:#000000;stroke-width:0.8;" x="108" xlink:href="#m38a05ec2d8" y="378"/>
      </g>
     </g>
     <g id="text_11">
      <!-- 1276.0 -->
      <g transform="translate(66.009375 381.799219)scale(0.1 -0.1)">
       <defs>
        <path d="M 2113 2584 
Q 1688 2584 1439 2293 
Q 1191 2003 1191 1497 
Q 1191 994 1439 701 
Q 1688 409 2113 409 
Q 2538 409 2786 701 
Q 3034 994 3034 1497 
Q 3034 2003 2786 2293 
Q 2538 2584 2113 2584 
z
M 3366 4563 
L 3366 3988 
Q 3128 4100 2886 4159 
Q 2644 4219 2406 4219 
Q 1781 4219 1451 3797 
Q 1122 3375 1075 2522 
Q 1259 2794 1537 2939 
Q 1816 3084 2150 3084 
Q 2853 3084 3261 2657 
Q 3669 2231 3669 1497 
Q 3669 778 3244 343 
Q 2819 -91 2113 -91 
Q 1303 -91 875 529 
Q 447 1150 447 2328 
Q 447 3434 972 4092 
Q 1497 4750 2381 4750 
Q 2619 4750 2861 4703 
Q 3103 4656 3366 4563 
z
" id="DejaVuSans-36" transform="scale(0.015625)"/>
        <path d="M 684 794 
L 1344 794 
L 1344 0 
L 684 0 
L 684 794 
z
" id="DejaVuSans-2e" transform="scale(0.015625)"/>
       </defs>
       <use xlink:href="#DejaVuSans-31"/>
       <use x="63.623047" xlink:href="#DejaVuSans-32"/>
       <use x="127.246094" xlink:href="#DejaVuSans-37"/>
       <use x="190.869141" xlink:href="#DejaVuSans-36"/>
       <use x="254.492188" xlink:href="#DejaVuSans-2e"/>
       <use x="286.279297" xlink:href="#DejaVuSans-30"/>
      </g>
     </g>
    </g>
    <g id="ytick_2">
     <g id="line2d_51">
      <g>
       <use style="stroke:#000000;stroke-width:0.8;" x="108" xlink:href="#m38a05ec2d8" y="323.64"/>
      </g>
     </g>
     <g id="text_12">
      <!-- 1276.5 -->
      <g transform="translate(66.009375 327.439219)scale(0.1 -0.1)">
       <defs>
        <path d="M 691 4666 
L 3169 4666 
L 3169 4134 
L 1269 4134 
L 1269 2991 
Q 1406 3038 1543 3061 
Q 1681 3084 1819 3084 
Q 2600 3084 3056 2656 
Q 3513 2228 3513 1497 
Q 3513 744 3044 326 
Q 2575 -91 1722 -91 
Q 1428 -91 1123 -41 
Q 819 9 494 109 
L 494 744 
Q 775 591 1075 516 
Q 1375 441 1709 441 
Q 2250 441 2565 725 
Q 2881 1009 2881 1497 
Q 2881 1984 2565 2268 
Q 2250 2553 1709 2553 
Q 1456 2553 1204 2497 
Q 953 2441 691 2322 
L 691 4666 
z
" id="DejaVuSans-35" transform="scale(0.015625)"/>
       </defs>
       <use xlink:href="#DejaVuSans-31"/>
       <use x="63.623047" xlink:href="#DejaVuSans-32"/>
       <use x="127.246094" xlink:href="#DejaVuSans-37"/>
       <use x="190.869141" xlink:href="#DejaVuSans-36"/>
       <use x="254.492188" xlink:href="#DejaVuSans-2e"/>
       <use x="286.279297" xlink:href="#DejaVuSans-35"/>
      </g>
     </g>
    </g>
    <g id="ytick_3">
     <g id="line2d_52">
      <g>
       <use style="stroke:#000000;stroke-width:0.8;" x="108" xlink:href="#m38a05ec2d8" y="269.28"/>
      </g>
     </g>
     <g id="text_13">
      <!-- 1277.0 -->
      <g transform="translate(66.009375 273.079219)scale(0.1 -0.1)">
       <use xlink:href="#DejaVuSans-31"/>
       <use x="63.623047" xlink:href="#DejaVuSans-32"/>
       <use x="127.246094" xlink:href="#DejaVuSans-37"/>
       <use x="190.869141" xlink:href="#DejaVuSans-37"/>
       <use x="254.492188" xlink:href="#DejaVuSans-2e"/>
       <use x="286.279297" xlink:href="#DejaVuSans-30"/>
      </g>
     </g>
    </g>
    <g id="ytick_4">
     <g id="line2d_53">
      <g>
       <use style="stroke:#000000;stroke-width:0.8;" x="108" xlink:href="#m38a05ec2d8" y="214.92"/>
      </g>
     </g>
     <g id="text_14">
      <!-- 1277.5 -->
      <g transform="translate(66.009375 218.719219)scale(0.1 -0.1)">
       <use xlink:href="#DejaVuSans-31"/>
       <use x="63.623047" xlink:href="#DejaVuSans-32"/>
       <use x="127.246094" xlink:href="#DejaVuSans-37"/>
       <use x="190.869141" xlink:href="#DejaVuSans-37"/>
       <use x="254.492188" xlink:href="#DejaVuSans-2e"/>
       <use x="286.279297" xlink:href="#DejaVuSans-35"/>
      </g>
     </g>
    </g>
    <g id="ytick_5">
     <g id="line2d_54">
      <g>
       <use style="stroke:#000000;stroke-width:0.8;" x="108" xlink:href="#m38a05ec2d8" y="160.56"/>
      </g>
     </g>
     <g id="text_15">
      <!-- 1278.0 -->
      <g transform="translate(66.009375 164.359219)scale(0.1 -0.1)">
       <defs>
        <path d="M 2034 2216 
Q 1584 2216 1326 1975 
Q 1069 1734 1069 1313 
Q 1069 891 1326 650 
Q 1584 409 2034 409 
Q 2484 409 2743 651 
Q 3003 894 3003 1313 
Q 3003 1734 2745 1975 
Q 2488 2216 2034 2216 
z
M 1403 2484 
Q 997 2584 770 2862 
Q 544 3141 544 3541 
Q 544 4100 942 4425 
Q 1341 4750 2034 4750 
Q 2731 4750 3128 4425 
Q 3525 4100 3525 3541 
Q 3525 3141 3298 2862 
Q 3072 2584 2669 2484 
Q 3125 2378 3379 2068 
Q 3634 1759 3634 1313 
Q 3634 634 3220 271 
Q 2806 -91 2034 -91 
Q 1263 -91 848 271 
Q 434 634 434 1313 
Q 434 1759 690 2068 
Q 947 2378 1403 2484 
z
M 1172 3481 
Q 1172 3119 1398 2916 
Q 1625 2713 2034 2713 
Q 2441 2713 2670 2916 
Q 2900 3119 2900 3481 
Q 2900 3844 2670 4047 
Q 2441 4250 2034 4250 
Q 1625 4250 1398 4047 
Q 1172 3844 1172 3481 
z
" id="DejaVuSans-38" transform="scale(0.015625)"/>
       </defs>
       <use xlink:href="#DejaVuSans-31"/>
       <use x="63.623047" xlink:href="#DejaVuSans-32"/>
       <use x="127.246094" xlink:href="#DejaVuSans-37"/>
       <use x="190.869141" xlink:href="#DejaVuSans-38"/>
       <use x="254.492188" xlink:href="#DejaVuSans-2e"/>
       <use x="286.279297" xlink:href="#DejaVuSans-30"/>
      </g>
     </g>
    </g>
    <g id="ytick_6">
     <g id="line2d_55">
      <g>
       <use style="stroke:#000000;stroke-width:0.8;" x="108" xlink:href="#m38a05ec2d8" y="106.2"/>
      </g>
     </g>
     <g id="text_16">
      <!-- 1278.5 -->
      <g transform="translate(66.009375 109.999219)scale(0.1 -0.1)">
       <use xlink:href="#DejaVuSans-31"/>
       <use x="63.623047" xlink:href="#DejaVuSans-32"/>
       <use x="127.246094" xlink:href="#DejaVuSans-37"/>
       <use x="190.869141" xlink:href="#DejaVuSans-38"/>
       <use x="254.492188" xlink:href="#DejaVuSans-2e"/>
       <use x="286.279297" xlink:href="#DejaVuSans-35"/>
      </g>
     </g>
    </g>
    <g id="ytick_7">
     <g id="line2d_56">
      <g>
       <use style="stroke:#000000;stroke-width:0.8;" x="108" xlink:href="#m38a05ec2d8" y="51.84"/>
      </g>
     </g>
     <g id="text_17">
      <!-- 1279.0 -->
      <g transform="translate(66.009375 55.639219)scale(0.1 -0.1)">
       <use xlink:href="#DejaVuSans-31"/>
       <use x="63.623047" xlink:href="#DejaVuSans-32"/>
       <use x="127.246094" xlink:href="#DejaVuSans-37"/>
       <use x="190.869141" xlink:href="#DejaVuSans-39"/>
       <use x="254.492188" xlink:href="#DejaVuSans-2e"/>
       <use x="286.279297" xlink:href="#DejaVuSans-30"/>
      </g>
     </g>
    </g>
    <g id="text_18">
     <!-- Lake elevation (m asl) -->
     <g transform="translate(59.929688 270.300469)rotate(-90)scale(0.1 -0.1)">
      <defs>
       <path d="M 628 4666 
L 1259 4666 
L 1259 531 
L 3531 531 
L 3531 0 
L 628 0 
L 628 4666 
z
" id="DejaVuSans-4c" transform="scale(0.015625)"/>
       <path d="M 581 4863 
L 1159 4863 
L 1159 1991 
L 2875 3500 
L 3609 3500 
L 1753 1863 
L 3688 0 
L 2938 0 
L 1159 1709 
L 1159 0 
L 581 0 
L 581 4863 
z
" id="DejaVuSans-6b" transform="scale(0.015625)"/>
       <path id="DejaVuSans-20" transform="scale(0.015625)"/>
       <path d="M 603 4863 
L 1178 4863 
L 1178 0 
L 603 0 
L 603 4863 
z
" id="DejaVuSans-6c" transform="scale(0.015625)"/>
       <path d="M 191 3500 
L 800 3500 
L 1894 563 
L 2988 3500 
L 3597 3500 
L 2284 0 
L 1503 0 
L 191 3500 
z
" id="DejaVuSans-76" transform="scale(0.015625)"/>
       <path d="M 603 3500 
L 1178 3500 
L 1178 0 
L 603 0 
L 603 3500 
z
M 603 4863 
L 1178 4863 
L 1178 4134 
L 603 4134 
L 603 4863 
z
" id="DejaVuSans-69" transform="scale(0.015625)"/>
       <path d="M 1959 3097 
Q 1497 3097 1228 2736 
Q 959 2375 959 1747 
Q 959 1119 1226 758 
Q 1494 397 1959 397 
Q 2419 397 2687 759 
Q 2956 1122 2956 1747 
Q 2956 2369 2687 2733 
Q 2419 3097 1959 3097 
z
M 1959 3584 
Q 2709 3584 3137 3096 
Q 3566 2609 3566 1747 
Q 3566 888 3137 398 
Q 2709 -91 1959 -91 
Q 1206 -91 779 398 
Q 353 888 353 1747 
Q 353 2609 779 3096 
Q 1206 3584 1959 3584 
z
" id="DejaVuSans-6f" transform="scale(0.015625)"/>
       <path d="M 3513 2113 
L 3513 0 
L 2938 0 
L 2938 2094 
Q 2938 2591 2744 2837 
Q 2550 3084 2163 3084 
Q 1697 3084 1428 2787 
Q 1159 2491 1159 1978 
L 1159 0 
L 581 0 
L 581 3500 
L 1159 3500 
L 1159 2956 
Q 1366 3272 1645 3428 
Q 1925 3584 2291 3584 
Q 2894 3584 3203 3211 
Q 3513 2838 3513 2113 
z
" id="DejaVuSans-6e" transform="scale(0.015625)"/>
       <path d="M 1984 4856 
Q 1566 4138 1362 3434 
Q 1159 2731 1159 2009 
Q 1159 1288 1364 580 
Q 1569 -128 1984 -844 
L 1484 -844 
Q 1016 -109 783 600 
Q 550 1309 550 2009 
Q 550 2706 781 3412 
Q 1013 4119 1484 4856 
L 1984 4856 
z
" id="DejaVuSans-28" transform="scale(0.015625)"/>
       <path d="M 3328 2828 
Q 3544 3216 3844 3400 
Q 4144 3584 4550 3584 
Q 5097 3584 5394 3201 
Q 5691 2819 5691 2113 
L 5691 0 
L 5113 0 
L 5113 2094 
Q 5113 2597 4934 2840 
Q 4756 3084 4391 3084 
Q 3944 3084 3684 2787 
Q 3425 2491 3425 1978 
L 3425 0 
L 2847 0 
L 2847 2094 
Q 2847 2600 2669 2842 
Q 2491 3084 2119 3084 
Q 1678 3084 1418 2786 
Q 1159 2488 1159 1978 
L 1159 0 
L 581 0 
L 581 3500 
L 1159 3500 
L 1159 2956 
Q 1356 3278 1631 3431 
Q 1906 3584 2284 3584 
Q 2666 3584 2933 3390 
Q 3200 3197 3328 2828 
z
" id="DejaVuSans-6d" transform="scale(0.015625)"/>
       <path d="M 2834 3397 
L 2834 2853 
Q 2591 2978 2328 3040 
Q 2066 3103 1784 3103 
Q 1356 3103 1142 2972 
Q 928 2841 928 2578 
Q 928 2378 1081 2264 
Q 1234 2150 1697 2047 
L 1894 2003 
Q 2506 1872 2764 1633 
Q 3022 1394 3022 966 
Q 3022 478 2636 193 
Q 2250 -91 1575 -91 
Q 1294 -91 989 -36 
Q 684 19 347 128 
L 347 722 
Q 666 556 975 473 
Q 1284 391 1588 391 
Q 1994 391 2212 530 
Q 2431 669 2431 922 
Q 2431 1156 2273 1281 
Q 2116 1406 1581 1522 
L 1381 1569 
Q 847 1681 609 1914 
Q 372 2147 372 2553 
Q 372 3047 722 3315 
Q 1072 3584 1716 3584 
Q 2034 3584 2315 3537 
Q 2597 3491 2834 3397 
z
" id="DejaVuSans-73" transform="scale(0.015625)"/>
       <path d="M 513 4856 
L 1013 4856 
Q 1481 4119 1714 3412 
Q 1947 2706 1947 2009 
Q 1947 1309 1714 600 
Q 1481 -109 1013 -844 
L 513 -844 
Q 928 -128 1133 580 
Q 1338 1288 1338 2009 
Q 1338 2731 1133 3434 
Q 928 4138 513 4856 
z
" id="DejaVuSans-29" transform="scale(0.015625)"/>
      </defs>
      <use xlink:href="#DejaVuSans-4c"/>
      <use x="55.712891" xlink:href="#DejaVuSans-61"/>
      <use x="116.992188" xlink:href="#DejaVuSans-6b"/>
      <use x="171.277344" xlink:href="#DejaVuSans-65"/>
      <use x="232.800781" xlink:href="#DejaVuSans-20"/>
      <use x="264.587891" xlink:href="#DejaVuSans-65"/>
      <use x="326.111328" xlink:href="#DejaVuSans-6c"/>
      <use x="353.894531" xlink:href="#DejaVuSans-65"/>
      <use x="415.417969" xlink:href="#DejaVuSans-76"/>
      <use x="474.597656" xlink:href="#DejaVuSans-61"/>
      <use x="535.876953" xlink:href="#DejaVuSans-74"/>
      <use x="575.085938" xlink:href="#DejaVuSans-69"/>
      <use x="602.869141" xlink:href="#DejaVuSans-6f"/>
      <use x="664.050781" xlink:href="#DejaVuSans-6e"/>
      <use x="727.429688" xlink:href="#DejaVuSans-20"/>
      <use x="759.216797" xlink:href="#DejaVuSans-28"/>
      <use x="798.230469" xlink:href="#DejaVuSans-6d"/>
      <use x="895.642578" xlink:href="#DejaVuSans-20"/>
      <use x="927.429688" xlink:href="#DejaVuSans-61"/>
      <use x="988.708984" xlink:href="#DejaVuSans-73"/>
      <use x="1040.808594" xlink:href="#DejaVuSans-6c"/>
      <use x="1068.591797" xlink:href="#DejaVuSans-29"/>
     </g>
    </g>
   </g>
   <g id="line2d_57">
    <path clip-path="url(#p5028b5f407)" d="M 107.541684 185.027365 
L 108 184.70192 
L 109.374949 186.447489 
L 110.291581 186.506661 
L 110.749897 187.285757 
L 111.208214 187.305481 
L 111.66653 186.832107 
L 112.124846 186.620074 
L 112.583162 186.15163 
L 113.499795 186.289698 
L 113.958111 185.755585 
L 115.33306 185.292072 
L 115.791376 185.114556 
L 116.708008 183.497192 
L 117.624641 181.057023 
L 118.541273 179.888379 
L 119.457906 178.749321 
L 119.916222 178.241429 
L 120.832854 178.740355 
L 121.29117 178.454358 
L 121.749487 177.946466 
L 122.666119 176.531273 
L 123.124435 176.121343 
L 123.582752 176.784323 
L 124.041068 177.072975 
L 124.499384 176.811633 
L 124.9577 175.901372 
L 125.874333 175.073582 
L 126.332649 174.770772 
L 127.249281 171.162672 
L 127.707598 169.956959 
L 128.165914 171.069389 
L 129.082546 168.756455 
L 129.540862 167.205871 
L 130.915811 163.932913 
L 131.374127 161.383592 
L 131.832444 160.890179 
L 132.749076 160.352701 
L 133.665708 160.367494 
L 135.040657 159.105161 
L 135.95729 157.719554 
L 136.415606 156.807321 
L 137.790554 155.367472 
L 139.623819 151.733978 
L 140.082136 150.560402 
L 140.540452 148.459802 
L 140.998768 147.029815 
L 141.457084 146.521923 
L 142.373717 145.234292 
L 143.290349 144.322059 
L 143.748665 145.081432 
L 144.206982 145.367429 
L 145.123614 145.150465 
L 146.498563 143.513377 
L 146.956879 142.72935 
L 147.873511 140.313166 
L 148.331828 139.218487 
L 149.24846 138.03505 
L 149.706776 137.556744 
L 150.165092 136.807234 
L 151.081725 136.422617 
L 151.540041 135.825967 
L 151.998357 135.623797 
L 152.456674 135.180008 
L 152.91499 134.297361 
L 153.373306 131.432457 
L 153.831622 130.05178 
L 154.289938 129.238167 
L 154.748255 128.937377 
L 156.123203 126.733225 
L 156.58152 128.015282 
L 157.039836 127.837767 
L 157.498152 126.930465 
L 157.956468 125.727304 
L 158.873101 122.497507 
L 159.789733 120.500457 
L 161.622998 116.600045 
L 162.081314 115.929431 
L 162.53963 114.815028 
L 162.997947 114.104965 
L 163.914579 113.355455 
L 164.372895 112.896873 
L 164.831211 113.207526 
L 165.289528 113.168078 
L 165.747844 113.493523 
L 166.664476 112.260776 
L 168.497741 111.008305 
L 168.956057 110.88503 
L 169.87269 112.556635 
L 170.331006 112.443222 
L 170.789322 112.596083 
L 171.247639 113.251904 
L 171.705955 113.468868 
L 172.164271 113.12863 
L 173.080903 111.826849 
L 173.53922 112.004365 
L 173.997536 111.560576 
L 174.455852 110.687791 
L 175.830801 108.868256 
L 176.747433 106.974757 
L 177.205749 106.432348 
L 177.664066 105.658183 
L 178.122382 105.105912 
L 178.580698 104.79526 
L 179.039014 104.671985 
L 179.497331 104.814984 
L 179.955647 103.537858 
L 180.413963 102.788348 
L 180.872279 102.369214 
L 181.788912 101.850506 
L 182.247228 101.505337 
L 182.705544 100.879101 
L 183.16386 101.815989 
L 183.622177 101.993505 
L 184.080493 101.988574 
L 184.538809 101.797219 
L 184.997125 101.994459 
L 185.455441 101.836667 
L 185.913758 101.161122 
L 186.372074 100.845539 
L 186.83039 100.727195 
L 187.747023 101.671158 
L 188.205339 101.779639 
L 188.663655 102.770768 
L 189.121971 104.531131 
L 190.038604 106.57256 
L 190.955236 108.158194 
L 191.413552 108.873187 
L 192.330185 108.424467 
L 192.788501 108.710465 
L 193.705133 109.716386 
L 194.16345 109.972797 
L 194.621766 110.498912 
L 195.538398 112.727719 
L 195.996715 113.427919 
L 196.455031 114.552185 
L 196.913347 114.902285 
L 197.371663 115.770139 
L 199.204928 117.660208 
L 199.663244 117.71938 
L 200.121561 118.192754 
L 201.954825 121.126692 
L 202.871458 123.399878 
L 204.246407 126.161231 
L 204.704723 127.791244 
L 205.163039 128.745166 
L 205.621355 129.248575 
L 206.079671 130.239704 
L 207.45462 132.514175 
L 207.912936 132.733283 
L 209.287885 134.638886 
L 212.037782 137.724398 
L 212.496099 138.049843 
L 214.329363 140.840782 
L 215.245996 141.950254 
L 215.704312 142.754005 
L 217.537577 145.038398 
L 218.454209 146.571935 
L 218.912526 146.976276 
L 220.287474 148.931188 
L 220.745791 149.404563 
L 221.204107 150.267486 
L 221.662423 150.627448 
L 222.579055 151.56075 
L 223.037372 152.078504 
L 224.41232 152.714601 
L 225.787269 154.568652 
L 226.245585 155.919743 
L 226.703901 156.141638 
L 227.162218 157.073594 
L 227.620534 157.078525 
L 228.995483 158.774785 
L 229.453799 158.380306 
L 229.912115 159.213643 
L 230.370431 159.405952 
L 230.828747 160.239289 
L 231.287064 160.431597 
L 231.74538 160.125876 
L 232.203696 159.39609 
L 232.662012 158.922715 
L 233.578645 157.719554 
L 234.036961 157.25111 
L 234.495277 156.112052 
L 234.953593 156.082466 
L 236.328542 156.758011 
L 236.786858 156.1515 
L 237.245175 155.791537 
L 237.703491 156.570634 
L 239.536756 156.718563 
L 239.995072 157.458211 
L 240.911704 157.443418 
L 241.828337 156.674184 
L 242.286653 156.491738 
L 242.744969 156.447359 
L 243.203285 156.05288 
L 243.661602 156.299429 
L 244.119918 156.284636 
L 244.578234 156.146569 
L 245.03655 155.475954 
L 245.494867 155.451299 
L 245.953183 154.972993 
L 246.411499 155.500609 
L 246.869815 155.717573 
L 247.328131 155.776744 
L 247.786448 156.343808 
L 248.244764 157.369454 
L 248.70308 157.591348 
L 249.161396 158.089378 
L 250.078029 157.828379 
L 251.452977 157.157765 
L 252.827926 156.196222 
L 253.744559 155.668263 
L 254.661191 155.367472 
L 255.577823 155.165302 
L 256.03614 154.918753 
L 256.494456 154.972993 
L 257.869405 154.770823 
L 258.327721 153.345767 
L 258.786037 153.2077 
L 259.244353 153.641627 
L 259.702669 153.45918 
L 261.077618 152.039056 
L 261.535934 152.990736 
L 261.994251 152.650498 
L 262.910883 151.136685 
L 263.369199 150.880273 
L 264.285832 149.943386 
L 265.66078 147.778682 
L 266.577413 146.629762 
L 267.494045 144.494644 
L 269.785626 141.467017 
L 270.243943 141.536051 
L 270.702259 141.309226 
L 272.077207 140.140582 
L 272.535524 139.662276 
L 273.452156 138.049843 
L 275.743737 136.864952 
L 276.66037 137.219984 
L 278.493634 136.314135 
L 278.951951 136.14155 
L 279.410267 135.717486 
L 281.243532 135.253973 
L 281.701848 135.061664 
L 282.160164 135.14056 
L 283.076797 134.854563 
L 283.993429 134.553772 
L 285.826694 134.070536 
L 286.743326 133.385128 
L 287.659959 132.241139 
L 289.493224 128.730276 
L 289.95154 127.30522 
L 290.409856 124.593177 
L 290.868172 123.370292 
L 291.784805 122.398887 
L 293.159754 120.677972 
L 293.61807 122.029063 
L 294.076386 121.940305 
L 295.451335 120.569491 
L 295.909651 120.401837 
L 296.367967 120.480733 
L 297.2846 119.331813 
L 297.742916 118.62175 
L 298.201232 118.168099 
L 299.576181 117.176971 
L 300.034497 116.240083 
L 300.492813 116.008327 
L 300.951129 116.042844 
L 302.326078 115.189783 
L 302.784394 114.095103 
L 303.24271 114.558616 
L 303.701027 114.489582 
L 304.617659 114.02607 
L 305.075975 113.902795 
L 305.534292 114.011277 
L 305.992608 114.58177 
L 306.450924 114.547254 
L 307.825873 113.738572 
L 308.284189 113.388471 
L 308.742505 114.083741 
L 309.200821 115.017198 
L 309.659138 115.07637 
L 310.117454 115.248955 
L 310.57577 115.194714 
L 311.492402 115.214438 
L 312.409035 112.645393 
L 312.867351 112.384051 
L 313.783984 111.447163 
L 315.158932 109.455044 
L 316.533881 108.325848 
L 316.992197 107.413615 
L 317.450513 107.250892 
L 317.90883 107.462925 
L 318.367146 107.398822 
L 318.825462 107.152272 
L 319.283778 107.324857 
L 319.742094 106.994481 
L 320.200411 107.413615 
L 320.658727 107.453063 
L 321.117043 107.29034 
L 321.575359 106.895861 
L 322.491992 105.184808 
L 323.408624 105.638459 
L 324.325257 105.811044 
L 324.783573 106.24004 
L 325.241889 107.211444 
L 325.700205 107.872197 
L 326.616838 107.778508 
L 327.075154 107.418546 
L 327.53347 107.38896 
L 327.991786 107.536889 
L 329.366735 107.684819 
L 329.825051 107.817956 
L 330.283368 108.385019 
L 330.741684 108.172987 
L 331.2 108.172987 
L 331.658316 107.803163 
L 332.574949 108.148332 
L 333.033265 108.034919 
L 333.491581 108.242021 
L 333.949897 108.976738 
L 334.408214 109.208494 
L 335.324846 110.737101 
L 335.783162 110.83572 
L 336.241478 111.28444 
L 337.158111 111.772608 
L 337.616427 111.989572 
L 338.074743 112.936321 
L 338.53306 114.257826 
L 338.991376 114.908716 
L 339.908008 117.160677 
L 340.366324 116.889473 
L 340.824641 117.540363 
L 341.282957 117.397365 
L 341.741273 116.633061 
L 342.199589 117.047264 
L 343.116222 116.777561 
L 344.032854 118.526132 
L 344.49117 118.669131 
L 344.949487 119.122782 
L 345.407803 119.132644 
L 346.324435 119.724362 
L 347.241068 121.634584 
L 347.699384 121.836754 
L 348.1577 121.777583 
L 349.074333 123.335775 
L 349.532649 124.021182 
L 349.990965 124.233215 
L 350.449281 123.666151 
L 351.365914 125.20955 
L 351.82423 124.632625 
L 352.282546 124.524143 
L 352.740862 124.622763 
L 354.574127 125.60896 
L 355.032444 126.619813 
L 355.49076 127.177014 
L 356.865708 127.25591 
L 357.324025 126.447228 
L 357.782341 126.8565 
L 358.240657 126.984706 
L 358.698973 127.280565 
L 359.615606 128.237177 
L 360.073922 128.607001 
L 360.532238 129.963023 
L 360.990554 130.179986 
L 361.448871 130.816084 
L 361.907187 130.845669 
L 363.740452 132.832858 
L 364.198768 133.266785 
L 364.657084 133.419645 
L 365.1154 134.331878 
L 367.406982 137.566606 
L 367.865298 138.493632 
L 368.323614 139.706655 
L 370.156879 142.77866 
L 370.615195 144.060717 
L 371.073511 144.760917 
L 371.531828 144.889123 
L 373.365092 147.16724 
L 373.823409 147.226411 
L 374.281725 147.611028 
L 374.740041 148.247126 
L 375.198357 149.474942 
L 377.948255 154.218552 
L 378.406571 154.359475 
L 380.698152 157.515307 
L 381.156468 157.73227 
L 382.989733 159.716604 
L 383.448049 160.076566 
L 384.364682 161.358623 
L 385.281314 162.216615 
L 385.73963 162.89216 
L 386.197947 163.266915 
L 387.114579 164.499662 
L 388.489528 167.808355 
L 388.947844 168.538141 
L 389.40616 169.524339 
L 390.322793 169.834991 
L 392.614374 173.986883 
L 393.531006 176.856718 
L 394.905955 177.438574 
L 395.364271 177.122991 
L 396.73922 177.601297 
L 398.114168 178.183154 
L 398.572485 178.676252 
L 399.489117 178.740355 
L 401.322382 180.193791 
L 402.697331 182.065397 
L 404.530595 183.395222 
L 404.988912 183.500943 
L 405.447228 183.180428 
L 406.36386 183.609424 
L 406.822177 183.426437 
L 407.280493 183.513552 
L 407.738809 183.834066 
L 408.197125 184.376475 
L 408.655441 185.20488 
L 409.572074 185.954391 
L 410.03039 186.575695 
L 410.488706 186.240388 
L 410.947023 186.536247 
L 411.405339 186.679246 
L 411.863655 186.255181 
L 412.321971 186.580626 
L 413.238604 187.601341 
L 413.69692 188.848881 
L 414.613552 189.558839 
L 415.071869 190.585668 
L 415.530185 190.812493 
L 416.905133 190.773045 
L 417.36345 191.034492 
L 417.821766 192.178481 
L 418.280082 192.803533 
L 418.738398 192.177297 
L 419.196715 192.48795 
L 419.655031 192.517536 
L 420.571663 192.921877 
L 421.029979 191.166445 
L 421.488296 190.821276 
L 421.946612 191.679268 
L 422.404928 191.772956 
L 422.863244 192.359744 
L 423.321561 192.236469 
L 423.779877 191.881438 
L 424.238193 192.69012 
L 425.613142 192.285779 
L 426.071458 191.846921 
L 426.529774 191.595441 
L 428.821355 191.572674 
L 429.279671 191.464193 
L 429.737988 191.789638 
L 430.196304 191.967153 
L 432.029569 192.285779 
L 432.487885 192.428778 
L 433.404517 192.458364 
L 433.862834 192.054023 
L 434.32115 192.049092 
L 434.779466 191.817335 
L 435.696099 191.827197 
L 436.612731 191.24041 
L 437.071047 191.388339 
L 437.529363 191.082618 
L 437.98768 190.964274 
L 438.445996 189.770975 
L 438.904312 189.115154 
L 441.195893 188.518504 
L 441.654209 189.302531 
L 442.112526 189.672356 
L 443.487474 189.277877 
L 444.862423 188.952431 
L 445.320739 188.725606 
L 446.237372 188.488918 
L 447.154004 188.069784 
L 447.61232 187.966234 
L 448.070637 188.000751 
L 449.445585 187.724615 
L 450.362218 187.616134 
L 450.820534 187.266033 
L 452.653799 186.526385 
L 454.487064 184.859711 
L 454.94538 184.864642 
L 455.862012 184.435646 
L 457.695277 183.888307 
L 458.153593 183.163451 
L 459.070226 182.30546 
L 459.528542 182.15753 
L 460.445175 181.620052 
L 461.820123 181.319262 
L 462.278439 180.914921 
L 463.195072 179.095386 
L 463.653388 178.597357 
L 464.570021 176.06776 
L 465.028337 175.234423 
L 466.403285 173.764988 
L 466.861602 173.257097 
L 467.319918 173.232442 
L 468.23655 172.196934 
L 468.694867 171.437562 
L 469.611499 171.467148 
L 470.069815 171.334011 
L 470.528131 171.432631 
L 470.986448 171.753145 
L 471.444764 171.748214 
L 471.90308 172.029281 
L 472.361396 172.088453 
L 472.819713 171.970109 
L 473.736345 171.412907 
L 474.194661 171.531251 
L 474.652977 171.846834 
L 475.56961 171.654526 
L 476.027926 171.656884 
L 476.944559 172.051363 
L 477.402875 172.056294 
L 477.861191 171.770297 
L 478.319507 171.923157 
L 478.777823 171.469506 
L 479.694456 171.062807 
L 480.611088 169.958266 
L 481.069405 169.913887 
L 481.527721 169.327099 
L 482.444353 169.701854 
L 482.902669 169.070688 
L 483.819302 169.83006 
L 484.277618 169.844853 
L 484.735934 170.293573 
L 485.194251 170.461227 
L 486.569199 170.342883 
L 487.027515 170.594363 
L 487.485832 170.283711 
L 487.944148 170.372469 
L 488.402464 170.673259 
L 488.86078 170.352745 
L 489.777413 171.866558 
L 490.235729 172.17721 
L 490.694045 172.744274 
L 491.152361 172.956306 
L 491.610678 172.916859 
L 492.068994 173.597335 
L 492.52731 173.306407 
L 492.985626 172.803446 
L 493.443943 172.783722 
L 494.360575 173.276821 
L 494.818891 173.676231 
L 495.277207 173.454336 
L 495.735524 173.809367 
L 496.652156 173.262028 
L 497.568789 173.049995 
L 498.027105 172.635792 
L 498.943737 172.300485 
L 499.402053 172.798515 
L 500.318686 173.168339 
L 501.235318 172.980961 
L 502.610267 174.874461 
L 503.526899 175.855727 
L 503.985216 176.314309 
L 504.443532 176.950407 
L 504.901848 177.113129 
L 505.81848 178.025362 
L 506.276797 178.306428 
L 506.735113 177.359679 
L 507.193429 178.050017 
L 508.110062 180.249238 
L 508.568378 181.013541 
L 509.48501 181.827154 
L 509.943326 183.641757 
L 510.401643 183.873514 
L 510.859959 183.562861 
L 511.776591 183.760101 
L 512.234908 184.164442 
L 512.693224 184.80547 
L 513.609856 185.530326 
L 514.068172 186.131906 
L 514.526489 186.358732 
L 514.984805 186.832107 
L 515.901437 189.223636 
L 516.359754 189.44553 
L 518.193018 193.824247 
L 518.651335 194.327208 
L 519.109651 194.28776 
L 519.567967 195.318337 
L 520.942916 196.274948 
L 521.859548 196.669427 
L 522.317864 197.261146 
L 523.234497 198.858786 
L 524.151129 200.170429 
L 525.984394 203.533363 
L 526.44271 204.134943 
L 527.359343 205.663549 
L 527.817659 206.196096 
L 528.275975 206.388405 
L 529.192608 207.206949 
L 531.484189 210.214851 
L 531.942505 210.998878 
L 532.859138 212.828275 
L 536.067351 217.705022 
L 536.983984 218.853942 
L 537.4423 219.84014 
L 538.358932 221.03837 
L 540.650513 223.999826 
L 541.567146 224.41896 
L 542.025462 224.847956 
L 542.483778 224.690164 
L 543.400411 225.903187 
L 543.858727 226.013737 
L 545.233676 228.296784 
L 545.691992 229.278051 
L 546.150308 229.662668 
L 546.608624 229.894424 
L 547.06694 230.584762 
L 547.525257 231.807647 
L 547.983573 232.575906 
L 548.900205 232.754102 
L 549.358522 233.308156 
L 549.816838 233.423877 
L 550.275154 233.723941 
L 550.73347 233.201256 
L 551.191786 233.172645 
L 552.108419 233.808063 
L 552.566735 233.60904 
L 553.025051 234.040658 
L 554.4 234.519691 
L 554.858316 235.042376 
L 555.316632 235.392476 
L 556.233265 236.31457 
L 556.691581 236.699188 
L 558.06653 237.433905 
L 558.524846 237.843177 
L 559.899795 238.426175 
L 561.73306 239.732887 
L 562.191376 241.644014 
L 562.649692 242.033562 
L 563.566324 243.749546 
L 564.941273 245.884664 
L 565.399589 245.239659 
L 565.857906 245.979307 
L 566.316222 246.339269 
L 566.774538 245.939859 
L 567.232854 246.028617 
L 569.524435 248.479318 
L 569.982752 249.68741 
L 570.441068 250.372113 
L 570.899384 250.509801 
L 571.3577 251.033472 
L 571.816016 250.933112 
L 572.274333 251.002146 
L 572.732649 250.300697 
L 573.190965 247.953547 
L 573.649281 248.017565 
L 574.107598 248.214497 
L 574.565914 248.114891 
L 575.482546 248.945038 
L 575.940862 250.431458 
L 576.399179 252.952981 
L 577.774127 253.045759 
L 578.232444 252.59107 
L 578.69076 252.51445 
L 579.149076 252.178647 
L 579.607392 250.574956 
L 580.524025 249.635524 
L 580.982341 249.014219 
L 581.440657 248.640502 
L 581.898973 247.795027 
L 582.35729 246.714693 
L 582.815606 247.369845 
L 585.565503 244.331225 
L 586.482136 243.930777 
L 588.773717 244.243599 
L 589.232033 243.611498 
L 590.148665 243.246605 
L 590.606982 243.226881 
L 591.065298 243.088814 
L 591.98193 243.143054 
L 592.440246 243.405331 
L 593.815195 243.538468 
L 594.273511 243.715983 
L 595.190144 243.740638 
L 595.64846 244.115393 
L 596.106776 244.342219 
L 597.940041 244.051291 
L 598.856674 244.011843 
L 599.31499 243.962533 
L 600.231622 242.759372 
L 601.606571 242.873874 
L 602.064887 243.495179 
L 602.523203 242.804841 
L 602.98152 243.085907 
L 603.439836 243.140148 
L 604.814784 241.748519 
L 605.273101 240.708081 
L 607.564682 242.200146 
L 608.022998 243.225791 
L 608.481314 242.954587 
L 608.93963 243.099714 
L 609.397947 242.769337 
L 609.856263 242.049413 
L 610.314579 241.078009 
L 610.772895 240.744726 
L 611.231211 239.507048 
L 611.689528 239.452807 
L 612.60616 238.784995 
L 613.522793 238.918132 
L 614.439425 238.296828 
L 614.897741 238.114381 
L 616.27269 237.266251 
L 617.189322 237.113391 
L 618.105955 236.615361 
L 618.564271 236.280054 
L 619.022587 236.092676 
L 619.480903 235.678473 
L 619.93922 235.002928 
L 620.855852 234.263279 
L 621.314168 233.489114 
L 622.230801 232.86781 
L 623.605749 233.074911 
L 624.064066 232.902327 
L 624.522382 233.306668 
L 624.980698 233.143945 
L 625.897331 233.31653 
L 627.272279 233.498976 
L 628.647228 233.735664 
L 630.022177 233.311599 
L 630.480493 233.11929 
L 630.938809 232.576882 
L 631.397125 231.827371 
L 632.313758 231.230722 
L 633.23039 230.905277 
L 633.688706 230.382592 
L 634.605339 231.363859 
L 635.063655 231.462478 
L 635.521971 231.22086 
L 636.438604 231.210998 
L 636.89692 231.546305 
L 637.355236 231.201136 
L 637.813552 231.210998 
L 638.271869 231.102516 
L 638.730185 231.166619 
L 639.188501 230.67352 
L 639.646817 229.568979 
L 640.105133 229.095604 
L 640.56345 228.962467 
L 641.021766 228.341163 
L 641.480082 227.315517 
L 641.938398 227.251415 
L 642.396715 227.458516 
L 642.855031 228.060311 
L 643.313347 228.149069 
L 643.771663 227.769383 
L 644.229979 227.55735 
L 644.688296 227.887726 
L 645.146612 227.562281 
L 645.604928 227.522833 
L 646.063244 226.696756 
L 646.521561 226.169141 
L 646.979877 226.01628 
L 647.896509 226.469931 
L 648.354825 226.430483 
L 648.813142 226.070521 
L 649.271458 226.792833 
L 649.729774 227.892443 
L 650.18809 227.571929 
L 652.479671 226.837212 
L 652.937988 226.156735 
L 653.396304 225.145883 
L 653.85462 225.402294 
L 654.312936 225.841152 
L 654.771253 226.102494 
L 655.229569 225.698153 
L 655.687885 225.663637 
L 656.146201 225.175469 
L 656.604517 226.403285 
L 657.979466 226.990072 
L 658.437782 227.852995 
L 658.896099 228.22775 
L 659.354415 228.957536 
L 659.812731 229.352016 
L 660.729363 229.371739 
L 661.645996 228.208026 
L 663.479261 228.498955 
L 663.937577 227.87765 
L 664.395893 227.907236 
L 664.854209 228.592643 
L 665.770842 227.887512 
L 666.229158 227.808616 
L 666.687474 228.114338 
L 667.604107 229.850045 
L 668.062423 229.67253 
L 668.520739 229.840183 
L 669.437372 230.436833 
L 669.895688 230.086733 
L 670.354004 229.909217 
L 670.81232 230.357937 
L 672.187269 232.32047 
L 672.645585 232.749466 
L 673.103901 233.513769 
L 673.562218 233.124221 
L 674.020534 232.882603 
L 674.47885 233.355978 
L 674.937166 233.198186 
L 675.853799 234.243556 
L 676.312115 234.830343 
L 676.770431 236.339225 
L 677.228747 237.300768 
L 677.687064 237.113391 
L 678.14538 237.399388 
L 678.603696 237.542386 
L 679.978645 237.45856 
L 680.436961 237.35994 
L 680.895277 237.66073 
L 681.353593 238.129174 
L 683.186858 238.311621 
L 684.561807 239.10551 
L 685.020123 238.681445 
L 685.478439 238.745548 
L 685.936756 239.095648 
L 686.395072 239.603539 
L 687.311704 242.404341 
L 687.770021 242.991128 
L 688.686653 245.653862 
L 689.603285 247.34519 
L 690.061602 247.193835 
L 690.519918 246.824011 
L 692.353183 249.807259 
L 692.811499 250.108049 
L 693.269815 250.782089 
L 693.728131 251.758425 
L 694.186448 253.222928 
L 694.644764 254.110506 
L 695.10308 254.712086 
L 696.936345 259.052195 
L 697.394661 259.02595 
L 697.852977 259.375616 
L 698.76961 260.965038 
L 699.686242 262.760544 
L 700.144559 263.297182 
L 701.519507 265.590111 
L 701.977823 265.731466 
L 702.43614 265.65719 
L 703.352772 266.435971 
L 703.811088 267.202279 
L 704.727721 268.375854 
L 706.102669 270.437007 
L 706.560986 271.324585 
L 707.019302 271.866994 
L 707.935934 273.481999 
L 708.852567 274.803504 
L 709.310883 275.079639 
L 709.769199 275.194338 
L 710.227515 275.588817 
L 710.685832 275.75154 
L 711.144148 276.044827 
L 711.602464 276.141837 
L 713.435729 277.812156 
L 714.352361 278.300324 
L 714.810678 278.804894 
L 715.268994 278.908444 
L 715.72731 279.209235 
L 716.643943 280.279259 
L 717.560575 281.378869 
L 719.39384 284.031242 
L 720.310472 285.002646 
L 720.768789 285.584503 
L 722.602053 287.212228 
L 723.518686 288.405527 
L 724.435318 289.302967 
L 724.893634 289.480482 
L 725.810267 290.086994 
L 726.726899 291.145737 
L 727.643532 291.838686 
L 728.101848 292.316991 
L 729.01848 292.458941 
L 729.935113 292.545775 
L 731.310062 293.373774 
L 732.226694 294.820528 
L 732.68501 295.278467 
L 732.68501 295.278467 
" style="fill:none;stroke:#1f77b4;stroke-linecap:square;stroke-width:1.5;"/>
   </g>
   <g id="line2d_58">
    <path clip-path="url(#p5028b5f407)" d="M 245.494867 159.879326 
L 245.953183 162.709157 
L 246.411499 161.167587 
L 246.869815 160.274044 
L 247.786448 159.417257 
L 248.70308 158.896479 
L 249.161396 157.565376 
L 249.619713 157.447033 
L 250.536345 157.438125 
L 251.911294 157.264437 
L 252.36961 157.215185 
L 252.827926 157.006929 
L 253.744559 156.27 
L 254.661191 155.883296 
L 255.119507 155.313051 
L 255.577823 155.37206 
L 256.03614 155.921869 
L 257.411088 155.7522 
L 257.869405 155.617079 
L 258.327721 157.007358 
L 258.786037 156.89633 
L 259.244353 155.652406 
L 259.702669 154.992714 
L 261.077618 154.309961 
L 261.535934 152.441376 
L 261.994251 151.837621 
L 262.910883 151.82397 
L 264.285832 149.771212 
L 264.744148 149.272658 
L 265.202464 148.580519 
L 266.119097 146.540646 
L 266.577413 145.806915 
L 267.494045 144.888876 
L 268.868994 142.807131 
L 269.785626 141.91708 
L 270.702259 140.879732 
L 271.618891 140.328952 
L 272.077207 140.512408 
L 272.535524 140.305307 
L 273.452156 140.896042 
L 274.368789 139.674869 
L 274.827105 139.453672 
L 275.285421 138.815861 
L 275.743737 138.554042 
L 276.202053 137.663891 
L 276.66037 136.51279 
L 277.577002 136.504833 
L 278.493634 136.148769 
L 278.951951 135.95974 
L 279.868583 135.836412 
L 280.326899 135.603922 
L 281.701848 135.287261 
L 282.160164 134.739143 
L 282.61848 135.003872 
L 283.535113 134.733914 
L 283.993429 134.398607 
L 285.368378 134.036591 
L 285.826694 132.859993 
L 287.201643 131.978188 
L 287.659959 131.017898 
L 288.576591 130.130605 
L 289.493224 128.421258 
L 289.95154 128.779715 
L 290.409856 129.706321 
L 290.868172 129.90513 
L 291.326489 128.901435 
L 291.784805 128.296991 
L 292.701437 128.645258 
L 293.159754 127.670428 
L 293.61807 125.552645 
L 294.076386 124.470975 
L 294.993018 123.177903 
L 295.909651 121.369648 
L 296.367967 120.141832 
L 297.2846 119.707204 
L 297.742916 119.742455 
L 298.659548 119.019261 
L 299.117864 118.727816 
L 299.576181 118.673212 
L 300.034497 119.269506 
L 300.492813 119.225999 
L 300.951129 118.511166 
L 301.409446 118.220762 
L 301.867762 117.635856 
L 302.326078 117.372003 
L 302.784394 118.212627 
L 303.24271 116.687839 
L 303.701027 115.801913 
L 304.617659 114.884796 
L 305.075975 114.533541 
L 305.534292 113.83315 
L 305.992608 112.317343 
L 306.450924 111.935299 
L 307.825873 112.106639 
L 308.284189 112.316888 
L 309.200821 110.713583 
L 309.659138 110.468717 
L 310.117454 110.06537 
L 310.57577 110.351368 
L 311.034086 110.280865 
L 311.492402 109.795934 
L 311.950719 110.244346 
L 312.409035 110.37976 
L 312.867351 109.760203 
L 313.325667 109.644364 
L 313.783984 108.928575 
L 314.2423 108.460236 
L 315.158932 108.364655 
L 315.617248 107.674873 
L 316.075565 107.53462 
L 316.533881 107.210814 
L 316.992197 108.082296 
L 317.450513 107.869912 
L 317.90883 107.00021 
L 318.367146 106.473023 
L 318.825462 106.789088 
L 319.283778 106.721168 
L 319.742094 106.509273 
L 320.200411 105.387106 
L 320.658727 105.216761 
L 321.117043 105.572368 
L 322.491992 108.478796 
L 322.950308 108.691842 
L 323.408624 109.151219 
L 323.86694 109.77693 
L 324.325257 109.906943 
L 324.783573 109.228179 
L 325.241889 108.220507 
L 325.700205 107.506523 
L 326.158522 107.69635 
L 326.616838 107.533251 
L 327.075154 108.031281 
L 327.53347 108.344103 
L 328.908419 108.650981 
L 329.366735 108.5169 
L 329.825051 108.242253 
L 330.283368 107.420667 
L 330.741684 107.744362 
L 331.2 107.888866 
L 331.658316 108.667962 
L 332.574949 109.032688 
L 333.033265 109.951929 
L 333.491581 110.319865 
L 333.949897 110.235402 
L 334.408214 110.853281 
L 334.86653 110.619006 
L 335.324846 110.702397 
L 335.783162 111.705124 
L 336.241478 111.911596 
L 337.158111 113.251552 
L 337.616427 113.88104 
L 338.53306 114.014945 
L 339.908008 115.435175 
L 340.366324 116.932989 
L 340.824641 117.225072 
L 341.741273 118.938542 
L 342.199589 118.604825 
L 343.116222 118.391953 
L 343.574538 117.075278 
L 344.032854 116.521329 
L 344.949487 117.160922 
L 345.407803 117.923635 
L 346.324435 118.399003 
L 346.782752 118.438414 
L 347.241068 119.187341 
L 348.1577 121.112294 
L 348.616016 121.077459 
L 349.532649 121.661942 
L 349.990965 122.225259 
L 350.449281 123.440334 
L 351.365914 123.728883 
L 351.82423 125.303691 
L 352.740862 127.019571 
L 353.199179 127.639691 
L 353.657495 127.216676 
L 354.115811 127.070973 
L 354.574127 127.043604 
L 355.032444 126.25954 
L 355.49076 126.095801 
L 356.865708 127.391928 
L 357.324025 129.433357 
L 357.782341 129.357819 
L 358.698973 130.230042 
L 360.073922 130.852618 
L 360.532238 129.763357 
L 360.990554 130.489025 
L 361.448871 130.776112 
L 361.907187 131.501388 
L 362.365503 131.720635 
L 363.282136 132.93128 
L 363.740452 133.178455 
L 364.657084 134.742215 
L 365.1154 135.154295 
L 366.948665 137.886498 
L 367.865298 138.466646 
L 368.323614 138.431016 
L 370.156879 141.212034 
L 370.615195 141.685408 
L 371.073511 142.577917 
L 371.531828 143.952231 
L 372.44846 144.948975 
L 373.365092 145.971847 
L 373.823409 146.983374 
L 374.281725 147.713368 
L 375.198357 148.572395 
L 376.573306 151.216883 
L 377.031622 152.083231 
L 377.489938 152.626366 
L 377.948255 153.35583 
L 378.406571 154.42458 
L 379.323203 155.529225 
L 379.78152 156.153316 
L 380.698152 157.120937 
L 381.156468 157.928166 
L 382.989733 159.980777 
L 383.448049 160.673134 
L 384.364682 161.342813 
L 385.281314 162.982182 
L 385.73963 163.535739 
L 387.572895 167.219716 
L 388.489528 167.944995 
L 388.947844 168.487403 
L 389.40616 168.716616 
L 390.322793 171.216561 
L 390.781109 171.674503 
L 392.614374 175.212788 
L 393.531006 174.474638 
L 393.989322 175.159846 
L 394.905955 175.577091 
L 395.364271 176.409494 
L 397.197536 177.748584 
L 398.114168 178.466431 
L 398.572485 178.48594 
L 399.489117 179.746561 
L 400.864066 180.971279 
L 401.322382 181.225407 
L 401.780698 181.230552 
L 402.697331 180.891501 
L 403.613963 181.06348 
L 404.530595 181.1544 
L 404.988912 181.657673 
L 405.447228 182.579243 
L 406.36386 183.228604 
L 406.822177 184.200533 
L 407.738809 185.190298 
L 408.197125 185.459374 
L 408.655441 185.280255 
L 409.572074 185.952142 
L 410.03039 185.737836 
L 410.488706 186.904763 
L 411.405339 187.644803 
L 411.863655 189.169568 
L 413.238604 190.260304 
L 413.69692 189.477988 
L 414.613552 189.633456 
L 415.071869 188.547236 
L 415.530185 188.692303 
L 415.988501 188.561828 
L 417.36345 188.586398 
L 417.821766 188.194591 
L 418.280082 188.274211 
L 418.738398 189.43396 
L 419.196715 189.794666 
L 419.655031 190.646629 
L 420.113347 191.079207 
L 420.571663 191.71581 
L 421.029979 193.589378 
L 421.488296 193.803126 
L 421.946612 192.813063 
L 422.404928 192.772193 
L 422.863244 192.173138 
L 423.779877 192.355225 
L 424.238193 191.099536 
L 424.696509 190.993841 
L 426.529774 191.371004 
L 427.446407 191.135942 
L 428.363039 191.168301 
L 429.279671 191.555216 
L 429.737988 191.174167 
L 430.65462 191.21403 
L 431.571253 191.233353 
L 432.487885 190.820637 
L 432.946201 190.830113 
L 433.404517 190.725473 
L 433.862834 191.173933 
L 434.32115 191.036841 
L 434.779466 191.186221 
L 436.612731 189.780262 
L 437.071047 188.918221 
L 437.98768 187.828805 
L 438.445996 188.997134 
L 438.904312 189.364755 
L 440.279261 188.910961 
L 441.195893 189.187251 
L 441.654209 188.074316 
L 442.112526 187.584588 
L 443.487474 187.560785 
L 444.404107 186.949239 
L 445.779055 186.700225 
L 446.237372 186.572902 
L 446.695688 186.922477 
L 447.61232 186.897245 
L 448.070637 186.526646 
L 448.987269 186.488411 
L 449.445585 186.363038 
L 449.903901 185.867505 
L 450.362218 185.669504 
L 450.820534 186.091096 
L 451.27885 186.109182 
L 452.195483 185.937614 
L 452.653799 185.817251 
L 453.112115 185.879696 
L 453.570431 185.759726 
L 454.028747 184.862052 
L 454.487064 184.46531 
L 454.94538 183.502272 
L 455.403696 182.878915 
L 456.320329 182.177332 
L 457.695277 181.331064 
L 458.153593 181.90115 
L 459.070226 182.32135 
L 459.528542 181.95986 
L 460.445175 182.001623 
L 460.903491 181.622924 
L 462.278439 179.547612 
L 462.736756 179.38029 
L 463.195072 178.764393 
L 463.653388 177.793312 
L 464.111704 178.119415 
L 464.570021 178.01858 
L 465.028337 177.45398 
L 465.486653 176.492779 
L 466.403285 175.426753 
L 466.861602 175.058554 
L 467.319918 174.12915 
L 468.23655 174.002812 
L 468.694867 174.671482 
L 469.153183 174.556956 
L 470.069815 173.979438 
L 470.528131 173.394405 
L 470.986448 172.520651 
L 471.444764 172.203046 
L 472.361396 170.656784 
L 472.819713 170.474325 
L 473.278029 171.105192 
L 473.736345 171.379352 
L 474.194661 171.35534 
L 474.652977 171.10267 
L 475.56961 171.781417 
L 476.027926 171.877974 
L 476.486242 171.242847 
L 477.861191 171.212851 
L 478.319507 170.800557 
L 478.777823 170.889981 
L 479.23614 170.682267 
L 479.694456 170.757031 
L 480.152772 171.036314 
L 480.611088 171.183492 
L 481.069405 171.176334 
L 481.527721 171.76169 
L 482.444353 170.873145 
L 482.902669 171.864775 
L 483.360986 171.477011 
L 483.819302 171.37012 
L 484.277618 171.439665 
L 484.735934 170.97138 
L 485.194251 171.051955 
L 485.652567 171.448477 
L 486.110883 171.393744 
L 486.569199 171.882725 
L 487.027515 171.790108 
L 487.485832 172.667151 
L 488.402464 173.242932 
L 488.86078 174.155744 
L 489.319097 174.086918 
L 489.777413 173.629149 
L 490.235729 174.128251 
L 490.694045 173.863281 
L 491.610678 174.118424 
L 492.068994 173.511679 
L 492.985626 174.530906 
L 493.902259 174.485048 
L 494.818891 174.848401 
L 495.277207 175.896952 
L 495.735524 175.680578 
L 496.19384 176.269231 
L 496.652156 176.53213 
L 497.110472 176.491193 
L 497.568789 176.24092 
L 498.027105 176.545916 
L 498.485421 175.825612 
L 498.943737 175.403749 
L 499.402053 174.1379 
L 499.86037 174.243908 
L 500.318686 174.554512 
L 500.777002 176.494686 
L 501.235318 177.801647 
L 501.693634 177.835584 
L 502.151951 178.175148 
L 502.610267 178.218833 
L 503.068583 178.492143 
L 503.526899 179.006681 
L 504.443532 179.611234 
L 504.901848 180.198574 
L 505.81848 180.455609 
L 506.276797 180.96938 
L 506.735113 183.392854 
L 507.193429 183.940575 
L 507.651745 183.588982 
L 508.110062 183.98868 
L 508.568378 184.60306 
L 509.48501 186.51696 
L 509.943326 185.081399 
L 510.401643 185.454757 
L 510.859959 186.61805 
L 511.776591 187.678995 
L 512.234908 187.902385 
L 512.693224 187.832625 
L 513.609856 188.473818 
L 514.068172 188.396966 
L 514.984805 189.437881 
L 515.443121 189.537816 
L 515.901437 189.81479 
L 516.359754 192.005408 
L 517.276386 193.774996 
L 518.193018 194.870326 
L 519.109651 197.640856 
L 519.567967 197.042026 
L 520.4846 198.03658 
L 521.401232 199.311273 
L 522.776181 200.410422 
L 523.234497 200.851654 
L 524.151129 202.165928 
L 524.609446 202.649375 
L 527.817659 207.339794 
L 528.275975 208.222204 
L 528.734292 208.746538 
L 529.650924 210.030087 
L 531.942505 212.76394 
L 532.400821 213.014349 
L 532.859138 213.575379 
L 536.525667 219.815714 
L 536.983984 220.472004 
L 537.4423 220.605134 
L 537.900616 221.088133 
L 538.358932 222.088618 
L 539.275565 223.237353 
L 541.10883 225.085176 
L 542.025462 225.19329 
L 542.483778 226.131186 
L 543.400411 227.134731 
L 544.317043 228.874149 
L 545.691992 230.832578 
L 546.608624 232.214855 
L 547.06694 232.421851 
L 547.525257 231.664191 
L 547.983573 231.376658 
L 548.900205 230.493207 
L 549.358522 229.626156 
L 549.816838 229.263272 
L 550.275154 229.141111 
L 550.73347 229.996248 
L 551.191786 230.464478 
L 553.025051 233.40103 
L 553.483368 233.767514 
L 554.4 233.794677 
L 554.858316 233.551921 
L 555.774949 232.711142 
L 556.233265 232.596148 
L 556.691581 232.298048 
L 558.06653 232.52512 
L 558.524846 233.066312 
L 559.441478 233.446258 
L 559.899795 233.938048 
L 561.73306 238.989826 
L 562.191376 239.549732 
L 563.108008 242.473521 
L 564.024641 243.881116 
L 564.941273 245.340607 
L 565.399589 246.74015 
L 566.316222 247.260552 
L 567.232854 248.341296 
L 567.69117 248.575438 
L 569.524435 250.211273 
L 570.441068 250.345265 
L 570.899384 250.671368 
L 571.3577 250.795728 
L 572.274333 251.473741 
L 572.732649 251.473741 
L 573.190965 251.656884 
L 573.649281 252.209155 
L 575.482546 253.158448 
L 575.940862 253.750738 
L 576.399179 253.498016 
L 577.774127 252.083491 
L 578.232444 252.139481 
L 578.69076 251.610289 
L 579.149076 250.437142 
L 579.607392 250.899499 
L 580.065708 250.692814 
L 580.982341 250.685489 
L 581.440657 249.281653 
L 581.898973 248.740451 
L 582.35729 249.381565 
L 582.815606 247.800062 
L 583.273922 247.091846 
L 583.732238 246.625689 
L 584.190554 246.481597 
L 584.648871 246.502404 
L 585.107187 246.922063 
L 586.023819 246.315185 
L 586.482136 246.327967 
L 586.940452 246.475796 
L 587.398768 246.234188 
L 587.857084 245.750643 
L 588.3154 244.882789 
L 588.773717 244.536444 
L 589.232033 245.240059 
L 589.690349 245.47686 
L 590.148665 245.381155 
L 590.606982 245.519541 
L 591.065298 245.858555 
L 591.98193 245.996151 
L 592.440246 245.596932 
L 592.898563 245.702354 
L 593.815195 245.577236 
L 594.273511 245.286756 
L 594.731828 245.265424 
L 595.190144 245.379866 
L 595.64846 245.087847 
L 596.106776 244.636078 
L 598.856674 244.674442 
L 599.31499 244.586839 
L 599.773306 244.921203 
L 600.231622 245.456539 
L 601.148255 245.104397 
L 601.606571 244.725335 
L 602.064887 244.063628 
L 602.523203 244.089338 
L 603.898152 242.177789 
L 604.356468 241.595881 
L 604.814784 241.424553 
L 605.273101 241.54157 
L 605.731417 240.952369 
L 606.648049 240.200287 
L 607.106366 240.101789 
L 607.564682 240.515833 
L 608.022998 240.258398 
L 608.481314 240.348037 
L 608.93963 240.245803 
L 609.397947 240.352694 
L 610.314579 240.976884 
L 610.772895 240.18798 
L 612.147844 239.809438 
L 612.60616 239.478585 
L 613.064476 238.888942 
L 613.522793 238.567316 
L 613.981109 238.768752 
L 614.439425 238.626826 
L 615.356057 237.704215 
L 616.27269 237.548799 
L 616.731006 237.08255 
L 617.189322 236.417921 
L 617.647639 236.167046 
L 618.105955 236.060956 
L 618.564271 236.156023 
L 619.022587 235.753909 
L 619.93922 236.115524 
L 620.397536 236.169551 
L 620.855852 236.069599 
L 621.314168 236.908445 
L 621.772485 236.497406 
L 622.230801 236.680648 
L 622.689117 235.832734 
L 623.147433 235.450006 
L 623.605749 235.375726 
L 624.064066 235.524942 
L 624.522382 234.616535 
L 624.980698 235.172716 
L 625.439014 234.903421 
L 626.813963 234.887263 
L 627.730595 234.352037 
L 628.188912 233.735664 
L 629.56386 233.81456 
L 630.022177 233.375702 
L 630.480493 233.099566 
L 630.938809 233.824422 
L 631.397125 234.204108 
L 631.855441 234.130143 
L 632.772074 233.129152 
L 633.23039 233.188324 
L 633.688706 233.750457 
L 634.147023 232.571951 
L 634.605339 232.458538 
L 635.063655 232.215031 
L 635.521971 232.613369 
L 635.980287 232.693378 
L 636.438604 232.625708 
L 636.89692 231.940511 
L 637.355236 232.030044 
L 637.813552 231.319346 
L 638.730185 231.116816 
L 639.188501 231.609372 
L 639.646817 232.439755 
L 640.105133 232.515293 
L 640.56345 232.220631 
L 641.480082 232.866242 
L 641.938398 232.036235 
L 642.855031 229.607243 
L 643.771663 228.768212 
L 644.229979 228.4773 
L 644.688296 227.756947 
L 645.604928 227.551329 
L 646.063244 228.157654 
L 646.979877 228.648108 
L 647.896509 227.466128 
L 648.354825 227.143992 
L 648.813142 227.367762 
L 649.271458 226.274526 
L 649.729774 225.566239 
L 650.18809 226.184704 
L 650.646407 226.547688 
L 651.563039 227.77536 
L 652.021355 227.979874 
L 652.937988 229.069108 
L 653.396304 230.376415 
L 654.312936 231.009158 
L 654.771253 230.668659 
L 655.229569 231.267236 
L 655.687885 233.813113 
L 656.146201 234.650176 
L 657.52115 232.583 
L 657.979466 233.171109 
L 658.437782 232.972302 
L 658.896099 231.203721 
L 659.354415 230.69636 
L 659.812731 229.233358 
L 661.18768 228.390539 
L 661.645996 228.738003 
L 663.020945 229.018269 
L 663.479261 229.347001 
L 663.937577 229.812487 
L 664.395893 231.02551 
L 664.854209 230.87017 
L 665.312526 231.836643 
L 665.770842 231.994473 
L 666.229158 233.026653 
L 667.145791 233.209683 
L 667.604107 232.306152 
L 668.062423 232.366806 
L 668.520739 231.621017 
L 668.979055 233.629704 
L 669.437372 233.351524 
L 669.895688 233.884751 
L 670.81232 234.215974 
L 671.270637 234.577887 
L 671.728953 235.219862 
L 672.187269 233.596962 
L 672.645585 234.135939 
L 673.103901 234.331818 
L 673.562218 235.064368 
L 675.395483 236.760214 
L 675.853799 236.88506 
L 676.770431 237.667109 
L 677.228747 238.492055 
L 678.14538 239.513567 
L 678.603696 239.62474 
L 679.062012 240.031357 
L 679.520329 239.856247 
L 679.978645 240.058992 
L 680.436961 239.764447 
L 680.895277 239.770726 
L 682.270226 238.576077 
L 682.728542 238.978169 
L 683.186858 238.978169 
L 683.645175 238.677811 
L 684.103491 239.973364 
L 684.561807 239.973364 
L 685.020123 242.257077 
L 686.853388 242.257077 
L 687.311704 241.937229 
L 687.770021 241.937229 
M 692.353183 251.866906 
L 692.811499 252.012967 
L 693.269815 251.35032 
L 693.728131 251.115937 
L 694.186448 251.140069 
L 695.10308 252.199048 
L 696.019713 252.712622 
L 696.478029 253.358138 
L 697.852977 256.297847 
L 698.76961 257.479391 
L 699.227926 257.827169 
L 700.144559 258.987701 
L 700.602875 259.274651 
L 701.061191 259.423867 
L 701.519507 260.158361 
L 702.894456 263.199824 
L 703.811088 265.078414 
L 704.269405 266.138362 
L 706.102669 268.91578 
L 706.560986 269.28396 
L 707.477618 270.534973 
L 708.394251 271.611897 
L 708.852567 272.184188 
L 709.769199 274.134258 
L 711.144148 275.199775 
L 711.602464 275.866571 
L 712.06078 276.061448 
L 712.977413 275.851667 
L 714.352361 277.312937 
L 714.810678 277.335503 
L 716.643943 279.352836 
L 717.560575 280.43888 
L 718.018891 280.469543 
L 718.477207 281.134184 
L 719.39384 282.116456 
L 720.310472 283.707927 
L 720.768789 284.359165 
L 721.227105 285.491586 
L 723.977002 288.103053 
L 724.435318 288.52586 
L 725.351951 290.260096 
L 726.268583 291.928851 
L 728.101848 293.854394 
L 729.01848 293.95522 
L 729.476797 293.72102 
L 729.935113 293.834466 
L 730.393429 293.742954 
L 730.851745 293.336055 
L 731.768378 294.079338 
L 732.226694 294.378745 
L 732.68501 295.09661 
L 733.601643 296.023216 
L 734.059959 296.199855 
L 734.518275 296.13117 
L 734.976591 297.01294 
L 735.893224 298.093191 
L 736.809856 299.095824 
L 737.268172 300.394407 
L 737.726489 300.771071 
L 738.184805 300.408486 
L 738.643121 300.434272 
L 739.559754 300.707227 
L 742.309651 302.69943 
L 742.767967 303.021949 
L 743.6846 303.268746 
L 744.601232 303.571439 
L 745.059548 303.42264 
L 745.517864 304.661505 
L 746.434497 305.17306 
L 746.892813 306.284118 
L 747.351129 306.940686 
L 747.351129 306.940686 
" style="fill:none;stroke:#ff7f0e;stroke-linecap:square;stroke-width:1.5;"/>
   </g>
   <g id="patch_3">
    <path d="M 108 378 
L 108 51.84 
" style="fill:none;stroke:#000000;stroke-linecap:square;stroke-linejoin:miter;stroke-width:0.8;"/>
   </g>
   <g id="patch_4">
    <path d="M 777.6 378 
L 777.6 51.84 
" style="fill:none;stroke:#000000;stroke-linecap:square;stroke-linejoin:miter;stroke-width:0.8;"/>
   </g>
   <g id="patch_5">
    <path d="M 108 378 
L 777.6 378 
" style="fill:none;stroke:#000000;stroke-linecap:square;stroke-linejoin:miter;stroke-width:0.8;"/>
   </g>
   <g id="patch_6">
    <path d="M 108 51.84 
L 777.6 51.84 
" style="fill:none;stroke:#000000;stroke-linecap:square;stroke-linejoin:miter;stroke-width:0.8;"/>
   </g>
   <g id="legend_1">
    <g id="patch_7">
     <path d="M 624.873438 89.19625 
L 770.6 89.19625 
Q 772.6 89.19625 772.6 87.19625 
L 772.6 58.84 
Q 772.6 56.84 770.6 56.84 
L 624.873438 56.84 
Q 622.873438 56.84 622.873438 58.84 
L 622.873438 87.19625 
Q 622.873438 89.19625 624.873438 89.19625 
z
" style="fill:#ffffff;opacity:0.8;stroke:#cccccc;stroke-linejoin:miter;"/>
    </g>
    <g id="line2d_59">
     <path d="M 626.873438 64.938437 
L 646.873438 64.938437 
" style="fill:none;stroke:#1f77b4;stroke-linecap:square;stroke-width:1.5;"/>
    </g>
    <g id="line2d_60"/>
    <g id="text_19">
     <!-- elevation at Saltair -->
     <g transform="translate(654.873438 68.438437)scale(0.1 -0.1)">
      <defs>
       <path d="M 3425 4513 
L 3425 3897 
Q 3066 4069 2747 4153 
Q 2428 4238 2131 4238 
Q 1616 4238 1336 4038 
Q 1056 3838 1056 3469 
Q 1056 3159 1242 3001 
Q 1428 2844 1947 2747 
L 2328 2669 
Q 3034 2534 3370 2195 
Q 3706 1856 3706 1288 
Q 3706 609 3251 259 
Q 2797 -91 1919 -91 
Q 1588 -91 1214 -16 
Q 841 59 441 206 
L 441 856 
Q 825 641 1194 531 
Q 1563 422 1919 422 
Q 2459 422 2753 634 
Q 3047 847 3047 1241 
Q 3047 1584 2836 1778 
Q 2625 1972 2144 2069 
L 1759 2144 
Q 1053 2284 737 2584 
Q 422 2884 422 3419 
Q 422 4038 858 4394 
Q 1294 4750 2059 4750 
Q 2388 4750 2728 4690 
Q 3069 4631 3425 4513 
z
" id="DejaVuSans-53" transform="scale(0.015625)"/>
       <path d="M 2631 2963 
Q 2534 3019 2420 3045 
Q 2306 3072 2169 3072 
Q 1681 3072 1420 2755 
Q 1159 2438 1159 1844 
L 1159 0 
L 581 0 
L 581 3500 
L 1159 3500 
L 1159 2956 
Q 1341 3275 1631 3429 
Q 1922 3584 2338 3584 
Q 2397 3584 2469 3576 
Q 2541 3569 2628 3553 
L 2631 2963 
z
" id="DejaVuSans-72" transform="scale(0.015625)"/>
      </defs>
      <use xlink:href="#DejaVuSans-65"/>
      <use x="61.523438" xlink:href="#DejaVuSans-6c"/>
      <use x="89.306641" xlink:href="#DejaVuSans-65"/>
      <use x="150.830078" xlink:href="#DejaVuSans-76"/>
      <use x="210.009766" xlink:href="#DejaVuSans-61"/>
      <use x="271.289062" xlink:href="#DejaVuSans-74"/>
      <use x="310.498047" xlink:href="#DejaVuSans-69"/>
      <use x="338.28125" xlink:href="#DejaVuSans-6f"/>
      <use x="399.462891" xlink:href="#DejaVuSans-6e"/>
      <use x="462.841797" xlink:href="#DejaVuSans-20"/>
      <use x="494.628906" xlink:href="#DejaVuSans-61"/>
      <use x="555.908203" xlink:href="#DejaVuSans-74"/>
      <use x="595.117188" xlink:href="#DejaVuSans-20"/>
      <use x="626.904297" xlink:href="#DejaVuSans-53"/>
      <use x="690.380859" xlink:href="#DejaVuSans-61"/>
      <use x="751.660156" xlink:href="#DejaVuSans-6c"/>
      <use x="779.443359" xlink:href="#DejaVuSans-74"/>
      <use x="818.652344" xlink:href="#DejaVuSans-61"/>
      <use x="879.931641" xlink:href="#DejaVuSans-69"/>
      <use x="907.714844" xlink:href="#DejaVuSans-72"/>
     </g>
    </g>
    <g id="line2d_61">
     <path d="M 626.873438 79.616562 
L 646.873438 79.616562 
" style="fill:none;stroke:#ff7f0e;stroke-linecap:square;stroke-width:1.5;"/>
    </g>
    <g id="line2d_62"/>
    <g id="text_20">
     <!-- elevation at Causeway -->
     <g transform="translate(654.873438 83.116562)scale(0.1 -0.1)">
      <defs>
       <path d="M 4122 4306 
L 4122 3641 
Q 3803 3938 3442 4084 
Q 3081 4231 2675 4231 
Q 1875 4231 1450 3742 
Q 1025 3253 1025 2328 
Q 1025 1406 1450 917 
Q 1875 428 2675 428 
Q 3081 428 3442 575 
Q 3803 722 4122 1019 
L 4122 359 
Q 3791 134 3420 21 
Q 3050 -91 2638 -91 
Q 1578 -91 968 557 
Q 359 1206 359 2328 
Q 359 3453 968 4101 
Q 1578 4750 2638 4750 
Q 3056 4750 3426 4639 
Q 3797 4528 4122 4306 
z
" id="DejaVuSans-43" transform="scale(0.015625)"/>
       <path d="M 544 1381 
L 544 3500 
L 1119 3500 
L 1119 1403 
Q 1119 906 1312 657 
Q 1506 409 1894 409 
Q 2359 409 2629 706 
Q 2900 1003 2900 1516 
L 2900 3500 
L 3475 3500 
L 3475 0 
L 2900 0 
L 2900 538 
Q 2691 219 2414 64 
Q 2138 -91 1772 -91 
Q 1169 -91 856 284 
Q 544 659 544 1381 
z
M 1991 3584 
L 1991 3584 
z
" id="DejaVuSans-75" transform="scale(0.015625)"/>
       <path d="M 269 3500 
L 844 3500 
L 1563 769 
L 2278 3500 
L 2956 3500 
L 3675 769 
L 4391 3500 
L 4966 3500 
L 4050 0 
L 3372 0 
L 2619 2869 
L 1863 0 
L 1184 0 
L 269 3500 
z
" id="DejaVuSans-77" transform="scale(0.015625)"/>
       <path d="M 2059 -325 
Q 1816 -950 1584 -1140 
Q 1353 -1331 966 -1331 
L 506 -1331 
L 506 -850 
L 844 -850 
Q 1081 -850 1212 -737 
Q 1344 -625 1503 -206 
L 1606 56 
L 191 3500 
L 800 3500 
L 1894 763 
L 2988 3500 
L 3597 3500 
L 2059 -325 
z
" id="DejaVuSans-79" transform="scale(0.015625)"/>
      </defs>
      <use xlink:href="#DejaVuSans-65"/>
      <use x="61.523438" xlink:href="#DejaVuSans-6c"/>
      <use x="89.306641" xlink:href="#DejaVuSans-65"/>
      <use x="150.830078" xlink:href="#DejaVuSans-76"/>
      <use x="210.009766" xlink:href="#DejaVuSans-61"/>
      <use x="271.289062" xlink:href="#DejaVuSans-74"/>
      <use x="310.498047" xlink:href="#DejaVuSans-69"/>
      <use x="338.28125" xlink:href="#DejaVuSans-6f"/>
      <use x="399.462891" xlink:href="#DejaVuSans-6e"/>
      <use x="462.841797" xlink:href="#DejaVuSans-20"/>
      <use x="494.628906" xlink:href="#DejaVuSans-61"/>
      <use x="555.908203" xlink:href="#DejaVuSans-74"/>
      <use x="595.117188" xlink:href="#DejaVuSans-20"/>
      <use x="626.904297" xlink:href="#DejaVuSans-43"/>
      <use x="696.728516" xlink:href="#DejaVuSans-61"/>
      <use x="758.007812" xlink:href="#DejaVuSans-75"/>
      <use x="821.386719" xlink:href="#DejaVuSans-73"/>
      <use x="873.486328" xlink:href="#DejaVuSans-65"/>
      <use x="935.009766" xlink:href="#DejaVuSans-77"/>
      <use x="1016.796875" xlink:href="#DejaVuSans-61"/>
      <use x="1078.076172" xlink:href="#DejaVuSans-79"/>
     </g>
    </g>
   </g>
  </g>
  <g id="axes_2">
   <g id="PathCollection_1">
    <defs>
     <path d="M 0 3 
C 0.795609 3 1.55874 2.683901 2.12132 2.12132 
C 2.683901 1.55874 3 0.795609 3 0 
C 3 -0.795609 2.683901 -1.55874 2.12132 -2.12132 
C 1.55874 -2.683901 0.795609 -3 0 -3 
C -0.795609 -3 -1.55874 -2.683901 -2.12132 -2.12132 
C -2.683901 -1.55874 -3 -0.795609 -3 0 
C -3 0.795609 -2.683901 1.55874 -2.12132 2.12132 
C -1.55874 2.683901 -0.795609 3 0 3 
z
" id="m8332423dc6" style="stroke:#1f77b4;"/>
    </defs>
    <g clip-path="url(#p5028b5f407)">
     <use style="fill:#1f77b4;stroke:#1f77b4;" x="141.830421" xlink:href="#m8332423dc6" y="283.4136"/>
     <use style="fill:#1f77b4;stroke:#1f77b4;" x="201.716119" xlink:href="#m8332423dc6" y="261.6696"/>
     <use style="fill:#1f77b4;stroke:#1f77b4;" x="217.314784" xlink:href="#m8332423dc6" y="284.5008"/>
     <use style="fill:#1f77b4;stroke:#1f77b4;" x="236.653183" xlink:href="#m8332423dc6" y="292.1112"/>
     <use style="fill:#1f77b4;stroke:#1f77b4;" x="250.321509" xlink:href="#m8332423dc6" y="298.6344"/>
     <use style="fill:#1f77b4;stroke:#1f77b4;" x="269.580339" xlink:href="#m8332423dc6" y="279.0648"/>
     <use style="fill:#1f77b4;stroke:#1f77b4;" x="300.712423" xlink:href="#m8332423dc6" y="254.0592"/>
     <use style="fill:#1f77b4;stroke:#1f77b4;" x="323.204928" xlink:href="#m8332423dc6" y="245.3616"/>
     <use style="fill:#1f77b4;stroke:#1f77b4;" x="333.262423" xlink:href="#m8332423dc6" y="245.3616"/>
     <use style="fill:#1f77b4;stroke:#1f77b4;" x="358.918583" xlink:href="#m8332423dc6" y="267.1056"/>
     <use style="fill:#1f77b4;stroke:#1f77b4;" x="372.626694" xlink:href="#m8332423dc6" y="282.3264"/>
     <use style="fill:#1f77b4;stroke:#1f77b4;" x="392.366119" xlink:href="#m8332423dc6" y="311.6808"/>
     <use style="fill:#1f77b4;stroke:#1f77b4;" x="404.296663" xlink:href="#m8332423dc6" y="318.204"/>
     <use style="fill:#1f77b4;stroke:#1f77b4;" x="428.152977" xlink:href="#m8332423dc6" y="325.8144"/>
     <use style="fill:#1f77b4;stroke:#1f77b4;" x="458.821971" xlink:href="#m8332423dc6" y="320.3784"/>
     <use style="fill:#1f77b4;stroke:#1f77b4;" x="538.120226" xlink:href="#m8332423dc6" y="362.7792"/>
     <use style="fill:#1f77b4;stroke:#1f77b4;" x="541.318891" xlink:href="#m8332423dc6" y="363.8664"/>
     <use style="fill:#1f77b4;stroke:#1f77b4;" x="544.078337" xlink:href="#m8332423dc6" y="375.282"/>
     <use style="fill:#1f77b4;stroke:#1f77b4;" x="547.754415" xlink:href="#m8332423dc6" y="378"/>
     <use style="fill:#1f77b4;stroke:#1f77b4;" x="567.462012" xlink:href="#m8332423dc6" y="309.5064"/>
     <use style="fill:#1f77b4;stroke:#1f77b4;" x="731.501027" xlink:href="#m8332423dc6" y="352.9944"/>
     <use style="fill:#1f77b4;stroke:#1f77b4;" x="744.365708" xlink:href="#m8332423dc6" y="358.4304"/>
    </g>
   </g>
   <g id="matplotlib.axis_3">
    <g id="ytick_8">
     <g id="line2d_63">
      <defs>
       <path d="M 0 0 
L 3.5 0 
" id="mf188160b0b" style="stroke:#000000;stroke-width:0.8;"/>
      </defs>
      <g>
       <use style="stroke:#000000;stroke-width:0.8;" x="777.6" xlink:href="#mf188160b0b" y="378"/>
      </g>
     </g>
     <g id="text_21">
      <!-- 0.0 -->
      <g transform="translate(784.6 381.799219)scale(0.1 -0.1)">
       <use xlink:href="#DejaVuSans-30"/>
       <use x="63.623047" xlink:href="#DejaVuSans-2e"/>
       <use x="95.410156" xlink:href="#DejaVuSans-30"/>
      </g>
     </g>
    </g>
    <g id="ytick_9">
     <g id="line2d_64">
      <g>
       <use style="stroke:#000000;stroke-width:0.8;" x="777.6" xlink:href="#mf188160b0b" y="323.64"/>
      </g>
     </g>
     <g id="text_22">
      <!-- 0.5 -->
      <g transform="translate(784.6 327.439219)scale(0.1 -0.1)">
       <use xlink:href="#DejaVuSans-30"/>
       <use x="63.623047" xlink:href="#DejaVuSans-2e"/>
       <use x="95.410156" xlink:href="#DejaVuSans-35"/>
      </g>
     </g>
    </g>
    <g id="ytick_10">
     <g id="line2d_65">
      <g>
       <use style="stroke:#000000;stroke-width:0.8;" x="777.6" xlink:href="#mf188160b0b" y="269.28"/>
      </g>
     </g>
     <g id="text_23">
      <!-- 1.0 -->
      <g transform="translate(784.6 273.079219)scale(0.1 -0.1)">
       <use xlink:href="#DejaVuSans-31"/>
       <use x="63.623047" xlink:href="#DejaVuSans-2e"/>
       <use x="95.410156" xlink:href="#DejaVuSans-30"/>
      </g>
     </g>
    </g>
    <g id="ytick_11">
     <g id="line2d_66">
      <g>
       <use style="stroke:#000000;stroke-width:0.8;" x="777.6" xlink:href="#mf188160b0b" y="214.92"/>
      </g>
     </g>
     <g id="text_24">
      <!-- 1.5 -->
      <g transform="translate(784.6 218.719219)scale(0.1 -0.1)">
       <use xlink:href="#DejaVuSans-31"/>
       <use x="63.623047" xlink:href="#DejaVuSans-2e"/>
       <use x="95.410156" xlink:href="#DejaVuSans-35"/>
      </g>
     </g>
    </g>
    <g id="ytick_12">
     <g id="line2d_67">
      <g>
       <use style="stroke:#000000;stroke-width:0.8;" x="777.6" xlink:href="#mf188160b0b" y="160.56"/>
      </g>
     </g>
     <g id="text_25">
      <!-- 2.0 -->
      <g transform="translate(784.6 164.359219)scale(0.1 -0.1)">
       <use xlink:href="#DejaVuSans-32"/>
       <use x="63.623047" xlink:href="#DejaVuSans-2e"/>
       <use x="95.410156" xlink:href="#DejaVuSans-30"/>
      </g>
     </g>
    </g>
    <g id="ytick_13">
     <g id="line2d_68">
      <g>
       <use style="stroke:#000000;stroke-width:0.8;" x="777.6" xlink:href="#mf188160b0b" y="106.2"/>
      </g>
     </g>
     <g id="text_26">
      <!-- 2.5 -->
      <g transform="translate(784.6 109.999219)scale(0.1 -0.1)">
       <use xlink:href="#DejaVuSans-32"/>
       <use x="63.623047" xlink:href="#DejaVuSans-2e"/>
       <use x="95.410156" xlink:href="#DejaVuSans-35"/>
      </g>
     </g>
    </g>
    <g id="ytick_14">
     <g id="line2d_69">
      <g>
       <use style="stroke:#000000;stroke-width:0.8;" x="777.6" xlink:href="#mf188160b0b" y="51.84"/>
      </g>
     </g>
     <g id="text_27">
      <!-- 3.0 -->
      <g transform="translate(784.6 55.639219)scale(0.1 -0.1)">
       <use xlink:href="#DejaVuSans-33"/>
       <use x="63.623047" xlink:href="#DejaVuSans-2e"/>
       <use x="95.410156" xlink:href="#DejaVuSans-30"/>
      </g>
     </g>
    </g>
    <g id="text_28">
     <!-- Water depth measured at Site B (m) -->
     <g transform="translate(812.101563 305.594219)rotate(-90)scale(0.1 -0.1)">
      <defs>
       <path d="M 213 4666 
L 850 4666 
L 1831 722 
L 2809 4666 
L 3519 4666 
L 4500 722 
L 5478 4666 
L 6119 4666 
L 4947 0 
L 4153 0 
L 3169 4050 
L 2175 0 
L 1381 0 
L 213 4666 
z
" id="DejaVuSans-57" transform="scale(0.015625)"/>
       <path d="M 2906 2969 
L 2906 4863 
L 3481 4863 
L 3481 0 
L 2906 0 
L 2906 525 
Q 2725 213 2448 61 
Q 2172 -91 1784 -91 
Q 1150 -91 751 415 
Q 353 922 353 1747 
Q 353 2572 751 3078 
Q 1150 3584 1784 3584 
Q 2172 3584 2448 3432 
Q 2725 3281 2906 2969 
z
M 947 1747 
Q 947 1113 1208 752 
Q 1469 391 1925 391 
Q 2381 391 2643 752 
Q 2906 1113 2906 1747 
Q 2906 2381 2643 2742 
Q 2381 3103 1925 3103 
Q 1469 3103 1208 2742 
Q 947 2381 947 1747 
z
" id="DejaVuSans-64" transform="scale(0.015625)"/>
       <path d="M 1159 525 
L 1159 -1331 
L 581 -1331 
L 581 3500 
L 1159 3500 
L 1159 2969 
Q 1341 3281 1617 3432 
Q 1894 3584 2278 3584 
Q 2916 3584 3314 3078 
Q 3713 2572 3713 1747 
Q 3713 922 3314 415 
Q 2916 -91 2278 -91 
Q 1894 -91 1617 61 
Q 1341 213 1159 525 
z
M 3116 1747 
Q 3116 2381 2855 2742 
Q 2594 3103 2138 3103 
Q 1681 3103 1420 2742 
Q 1159 2381 1159 1747 
Q 1159 1113 1420 752 
Q 1681 391 2138 391 
Q 2594 391 2855 752 
Q 3116 1113 3116 1747 
z
" id="DejaVuSans-70" transform="scale(0.015625)"/>
       <path d="M 3513 2113 
L 3513 0 
L 2938 0 
L 2938 2094 
Q 2938 2591 2744 2837 
Q 2550 3084 2163 3084 
Q 1697 3084 1428 2787 
Q 1159 2491 1159 1978 
L 1159 0 
L 581 0 
L 581 4863 
L 1159 4863 
L 1159 2956 
Q 1366 3272 1645 3428 
Q 1925 3584 2291 3584 
Q 2894 3584 3203 3211 
Q 3513 2838 3513 2113 
z
" id="DejaVuSans-68" transform="scale(0.015625)"/>
       <path d="M 1259 2228 
L 1259 519 
L 2272 519 
Q 2781 519 3026 730 
Q 3272 941 3272 1375 
Q 3272 1813 3026 2020 
Q 2781 2228 2272 2228 
L 1259 2228 
z
M 1259 4147 
L 1259 2741 
L 2194 2741 
Q 2656 2741 2882 2914 
Q 3109 3088 3109 3444 
Q 3109 3797 2882 3972 
Q 2656 4147 2194 4147 
L 1259 4147 
z
M 628 4666 
L 2241 4666 
Q 2963 4666 3353 4366 
Q 3744 4066 3744 3513 
Q 3744 3084 3544 2831 
Q 3344 2578 2956 2516 
Q 3422 2416 3680 2098 
Q 3938 1781 3938 1306 
Q 3938 681 3513 340 
Q 3088 0 2303 0 
L 628 0 
L 628 4666 
z
" id="DejaVuSans-42" transform="scale(0.015625)"/>
      </defs>
      <use xlink:href="#DejaVuSans-57"/>
      <use x="92.501953" xlink:href="#DejaVuSans-61"/>
      <use x="153.78125" xlink:href="#DejaVuSans-74"/>
      <use x="192.990234" xlink:href="#DejaVuSans-65"/>
      <use x="254.513672" xlink:href="#DejaVuSans-72"/>
      <use x="295.626953" xlink:href="#DejaVuSans-20"/>
      <use x="327.414062" xlink:href="#DejaVuSans-64"/>
      <use x="390.890625" xlink:href="#DejaVuSans-65"/>
      <use x="452.414062" xlink:href="#DejaVuSans-70"/>
      <use x="515.890625" xlink:href="#DejaVuSans-74"/>
      <use x="555.099609" xlink:href="#DejaVuSans-68"/>
      <use x="618.478516" xlink:href="#DejaVuSans-20"/>
      <use x="650.265625" xlink:href="#DejaVuSans-6d"/>
      <use x="747.677734" xlink:href="#DejaVuSans-65"/>
      <use x="809.201172" xlink:href="#DejaVuSans-61"/>
      <use x="870.480469" xlink:href="#DejaVuSans-73"/>
      <use x="922.580078" xlink:href="#DejaVuSans-75"/>
      <use x="985.958984" xlink:href="#DejaVuSans-72"/>
      <use x="1024.822266" xlink:href="#DejaVuSans-65"/>
      <use x="1086.345703" xlink:href="#DejaVuSans-64"/>
      <use x="1149.822266" xlink:href="#DejaVuSans-20"/>
      <use x="1181.609375" xlink:href="#DejaVuSans-61"/>
      <use x="1242.888672" xlink:href="#DejaVuSans-74"/>
      <use x="1282.097656" xlink:href="#DejaVuSans-20"/>
      <use x="1313.884766" xlink:href="#DejaVuSans-53"/>
      <use x="1377.361328" xlink:href="#DejaVuSans-69"/>
      <use x="1405.144531" xlink:href="#DejaVuSans-74"/>
      <use x="1444.353516" xlink:href="#DejaVuSans-65"/>
      <use x="1505.876953" xlink:href="#DejaVuSans-20"/>
      <use x="1537.664062" xlink:href="#DejaVuSans-42"/>
      <use x="1606.267578" xlink:href="#DejaVuSans-20"/>
      <use x="1638.054688" xlink:href="#DejaVuSans-28"/>
      <use x="1677.068359" xlink:href="#DejaVuSans-6d"/>
      <use x="1774.480469" xlink:href="#DejaVuSans-29"/>
     </g>
    </g>
   </g>
   <g id="patch_8">
    <path d="M 108 378 
L 108 51.84 
" style="fill:none;stroke:#000000;stroke-linecap:square;stroke-linejoin:miter;stroke-width:0.8;"/>
   </g>
   <g id="patch_9">
    <path d="M 777.6 378 
L 777.6 51.84 
" style="fill:none;stroke:#000000;stroke-linecap:square;stroke-linejoin:miter;stroke-width:0.8;"/>
   </g>
   <g id="patch_10">
    <path d="M 108 378 
L 777.6 378 
" style="fill:none;stroke:#000000;stroke-linecap:square;stroke-linejoin:miter;stroke-width:0.8;"/>
   </g>
   <g id="patch_11">
    <path d="M 108 51.84 
L 777.6 51.84 
" style="fill:none;stroke:#000000;stroke-linecap:square;stroke-linejoin:miter;stroke-width:0.8;"/>
   </g>
  </g>
 </g>
 <defs>
  <clipPath id="p5028b5f407">
   <rect height="326.16" width="669.6" x="108" y="51.84"/>
  </clipPath>
 </defs>
</svg>
