<?xml version="1.0" encoding="utf-8" standalone="no"?>
<!DOCTYPE svg PUBLIC "-//W3C//DTD SVG 1.1//EN"
  "http://www.w3.org/Graphics/SVG/1.1/DTD/svg11.dtd">
<svg xmlns:xlink="http://www.w3.org/1999/xlink" width="576pt" height="288pt" viewBox="0 0 576 288" xmlns="http://www.w3.org/2000/svg" version="1.1">
 <metadata>
  <rdf:RDF xmlns:dc="http://purl.org/dc/elements/1.1/" xmlns:cc="http://creativecommons.org/ns#" xmlns:rdf="http://www.w3.org/1999/02/22-rdf-syntax-ns#">
   <cc:Work>
    <dc:type rdf:resource="http://purl.org/dc/dcmitype/StillImage"/>
    <dc:date>2023-09-05T16:57:32.646760</dc:date>
    <dc:format>image/svg+xml</dc:format>
    <dc:creator>
     <cc:Agent>
      <dc:title>Matplotlib v3.7.1, https://matplotlib.org/</dc:title>
     </cc:Agent>
    </dc:creator>
   </cc:Work>
  </rdf:RDF>
 </metadata>
 <defs>
  <style type="text/css">*{stroke-linejoin: round; stroke-linecap: butt}</style>
 </defs>
 <g id="figure_1">
  <g id="patch_1">
   <path d="M 0 288 
L 576 288 
L 576 0 
L 0 0 
z
" style="fill: #ffffff"/>
  </g>
  <g id="axes_1">
   <g id="patch_2">
    <path d="M 72 252 
L 518.4 252 
L 518.4 34.56 
L 72 34.56 
z
" style="fill: #ffffff"/>
   </g>
   <g id="matplotlib.axis_1">
    <g id="xtick_1">
     <g id="line2d_1">
      <defs>
       <path id="med7606f097" d="M 0 0 
L 0 3.5 
" style="stroke: #000000; stroke-width: 0.8"/>
      </defs>
      <g>
       <use xlink:href="#med7606f097" x="72" y="252" style="stroke: #000000; stroke-width: 0.8"/>
      </g>
     </g>
     <g id="text_1">
      <text style="font: 10px 'DejaVu Sans', 'Bitstream Vera Sans', 'Computer Modern Sans Serif', 'Lucida Grande', 'Verdana', 'Geneva', 'Lucid', 'Arial', 'Helvetica', 'Avant Garde', sans-serif; text-anchor: middle" x="72" y="266.598437" transform="rotate(-0 72 266.598437)">2018</text>
     </g>
    </g>
    <g id="xtick_2">
     <g id="line2d_2">
      <g>
       <use xlink:href="#med7606f097" x="150.827286" y="252" style="stroke: #000000; stroke-width: 0.8"/>
      </g>
     </g>
     <g id="text_2">
      <text style="font: 10px 'DejaVu Sans', 'Bitstream Vera Sans', 'Computer Modern Sans Serif', 'Lucida Grande', 'Verdana', 'Geneva', 'Lucid', 'Arial', 'Helvetica', 'Avant Garde', sans-serif; text-anchor: middle" x="150.827286" y="266.598437" transform="rotate(-0 150.827286 266.598437)">2019</text>
     </g>
    </g>
    <g id="xtick_3">
     <g id="line2d_3">
      <g>
       <use xlink:href="#med7606f097" x="229.654572" y="252" style="stroke: #000000; stroke-width: 0.8"/>
      </g>
     </g>
     <g id="text_3">
      <text style="font: 10px 'DejaVu Sans', 'Bitstream Vera Sans', 'Computer Modern Sans Serif', 'Lucida Grande', 'Verdana', 'Geneva', 'Lucid', 'Arial', 'Helvetica', 'Avant Garde', sans-serif; text-anchor: middle" x="229.654572" y="266.598437" transform="rotate(-0 229.654572 266.598437)">2020</text>
     </g>
    </g>
    <g id="xtick_4">
     <g id="line2d_4">
      <g>
       <use xlink:href="#med7606f097" x="308.697823" y="252" style="stroke: #000000; stroke-width: 0.8"/>
      </g>
     </g>
     <g id="text_4">
      <text style="font: 10px 'DejaVu Sans', 'Bitstream Vera Sans', 'Computer Modern Sans Serif', 'Lucida Grande', 'Verdana', 'Geneva', 'Lucid', 'Arial', 'Helvetica', 'Avant Garde', sans-serif; text-anchor: middle" x="308.697823" y="266.598437" transform="rotate(-0 308.697823 266.598437)">2021</text>
     </g>
    </g>
    <g id="xtick_5">
     <g id="line2d_5">
      <g>
       <use xlink:href="#med7606f097" x="387.525109" y="252" style="stroke: #000000; stroke-width: 0.8"/>
      </g>
     </g>
     <g id="text_5">
      <text style="font: 10px 'DejaVu Sans', 'Bitstream Vera Sans', 'Computer Modern Sans Serif', 'Lucida Grande', 'Verdana', 'Geneva', 'Lucid', 'Arial', 'Helvetica', 'Avant Garde', sans-serif; text-anchor: middle" x="387.525109" y="266.598437" transform="rotate(-0 387.525109 266.598437)">2022</text>
     </g>
    </g>
    <g id="xtick_6">
     <g id="line2d_6">
      <g>
       <use xlink:href="#med7606f097" x="466.352395" y="252" style="stroke: #000000; stroke-width: 0.8"/>
      </g>
     </g>
     <g id="text_6">
      <text style="font: 10px 'DejaVu Sans', 'Bitstream Vera Sans', 'Computer Modern Sans Serif', 'Lucida Grande', 'Verdana', 'Geneva', 'Lucid', 'Arial', 'Helvetica', 'Avant Garde', sans-serif; text-anchor: middle" x="466.352395" y="266.598437" transform="rotate(-0 466.352395 266.598437)">2023</text>
     </g>
    </g>
    <g id="text_7">
     <text style="font: 10px 'DejaVu Sans', 'Bitstream Vera Sans', 'Computer Modern Sans Serif', 'Lucida Grande', 'Verdana', 'Geneva', 'Lucid', 'Arial', 'Helvetica', 'Avant Garde', sans-serif; text-anchor: middle" x="295.2" y="280.276563" transform="rotate(-0 295.2 280.276563)">Year</text>
    </g>
   </g>
   <g id="matplotlib.axis_2">
    <g id="ytick_1">
     <g id="line2d_7">
      <defs>
       <path id="m49b91e41ad" d="M 0 0 
L -3.5 0 
" style="stroke: #000000; stroke-width: 0.8"/>
      </defs>
      <g>
       <use xlink:href="#m49b91e41ad" x="72" y="252" style="stroke: #000000; stroke-width: 0.8"/>
      </g>
     </g>
     <g id="text_8">
      <text style="font: 10px 'DejaVu Sans', 'Bitstream Vera Sans', 'Computer Modern Sans Serif', 'Lucida Grande', 'Verdana', 'Geneva', 'Lucid', 'Arial', 'Helvetica', 'Avant Garde', sans-serif; text-anchor: end" x="65" y="255.799219" transform="rotate(-0 65 255.799219)">4188</text>
     </g>
    </g>
    <g id="ytick_2">
     <g id="line2d_8">
      <g>
       <use xlink:href="#m49b91e41ad" x="72" y="224.82" style="stroke: #000000; stroke-width: 0.8"/>
      </g>
     </g>
     <g id="text_9">
      <text style="font: 10px 'DejaVu Sans', 'Bitstream Vera Sans', 'Computer Modern Sans Serif', 'Lucida Grande', 'Verdana', 'Geneva', 'Lucid', 'Arial', 'Helvetica', 'Avant Garde', sans-serif; text-anchor: end" x="65" y="228.619219" transform="rotate(-0 65 228.619219)">4189</text>
     </g>
    </g>
    <g id="ytick_3">
     <g id="line2d_9">
      <g>
       <use xlink:href="#m49b91e41ad" x="72" y="197.64" style="stroke: #000000; stroke-width: 0.8"/>
      </g>
     </g>
     <g id="text_10">
      <text style="font: 10px 'DejaVu Sans', 'Bitstream Vera Sans', 'Computer Modern Sans Serif', 'Lucida Grande', 'Verdana', 'Geneva', 'Lucid', 'Arial', 'Helvetica', 'Avant Garde', sans-serif; text-anchor: end" x="65" y="201.439219" transform="rotate(-0 65 201.439219)">4190</text>
     </g>
    </g>
    <g id="ytick_4">
     <g id="line2d_10">
      <g>
       <use xlink:href="#m49b91e41ad" x="72" y="170.46" style="stroke: #000000; stroke-width: 0.8"/>
      </g>
     </g>
     <g id="text_11">
      <text style="font: 10px 'DejaVu Sans', 'Bitstream Vera Sans', 'Computer Modern Sans Serif', 'Lucida Grande', 'Verdana', 'Geneva', 'Lucid', 'Arial', 'Helvetica', 'Avant Garde', sans-serif; text-anchor: end" x="65" y="174.259219" transform="rotate(-0 65 174.259219)">4191</text>
     </g>
    </g>
    <g id="ytick_5">
     <g id="line2d_11">
      <g>
       <use xlink:href="#m49b91e41ad" x="72" y="143.28" style="stroke: #000000; stroke-width: 0.8"/>
      </g>
     </g>
     <g id="text_12">
      <text style="font: 10px 'DejaVu Sans', 'Bitstream Vera Sans', 'Computer Modern Sans Serif', 'Lucida Grande', 'Verdana', 'Geneva', 'Lucid', 'Arial', 'Helvetica', 'Avant Garde', sans-serif; text-anchor: end" x="65" y="147.079219" transform="rotate(-0 65 147.079219)">4192</text>
     </g>
    </g>
    <g id="ytick_6">
     <g id="line2d_12">
      <g>
       <use xlink:href="#m49b91e41ad" x="72" y="116.1" style="stroke: #000000; stroke-width: 0.8"/>
      </g>
     </g>
     <g id="text_13">
      <text style="font: 10px 'DejaVu Sans', 'Bitstream Vera Sans', 'Computer Modern Sans Serif', 'Lucida Grande', 'Verdana', 'Geneva', 'Lucid', 'Arial', 'Helvetica', 'Avant Garde', sans-serif; text-anchor: end" x="65" y="119.899219" transform="rotate(-0 65 119.899219)">4193</text>
     </g>
    </g>
    <g id="ytick_7">
     <g id="line2d_13">
      <g>
       <use xlink:href="#m49b91e41ad" x="72" y="88.92" style="stroke: #000000; stroke-width: 0.8"/>
      </g>
     </g>
     <g id="text_14">
      <text style="font: 10px 'DejaVu Sans', 'Bitstream Vera Sans', 'Computer Modern Sans Serif', 'Lucida Grande', 'Verdana', 'Geneva', 'Lucid', 'Arial', 'Helvetica', 'Avant Garde', sans-serif; text-anchor: end" x="65" y="92.719219" transform="rotate(-0 65 92.719219)">4194</text>
     </g>
    </g>
    <g id="ytick_8">
     <g id="line2d_14">
      <g>
       <use xlink:href="#m49b91e41ad" x="72" y="61.74" style="stroke: #000000; stroke-width: 0.8"/>
      </g>
     </g>
     <g id="text_15">
      <text style="font: 10px 'DejaVu Sans', 'Bitstream Vera Sans', 'Computer Modern Sans Serif', 'Lucida Grande', 'Verdana', 'Geneva', 'Lucid', 'Arial', 'Helvetica', 'Avant Garde', sans-serif; text-anchor: end" x="65" y="65.539219" transform="rotate(-0 65 65.539219)">4195</text>
     </g>
    </g>
    <g id="ytick_9">
     <g id="line2d_15">
      <g>
       <use xlink:href="#m49b91e41ad" x="72" y="34.56" style="stroke: #000000; stroke-width: 0.8"/>
      </g>
     </g>
     <g id="text_16">
      <text style="font: 10px 'DejaVu Sans', 'Bitstream Vera Sans', 'Computer Modern Sans Serif', 'Lucida Grande', 'Verdana', 'Geneva', 'Lucid', 'Arial', 'Helvetica', 'Avant Garde', sans-serif; text-anchor: end" x="65" y="38.359219" transform="rotate(-0 65 38.359219)">4196</text>
     </g>
    </g>
    <g id="text_17">
     <text style="font: 10px 'DejaVu Sans', 'Bitstream Vera Sans', 'Computer Modern Sans Serif', 'Lucida Grande', 'Verdana', 'Geneva', 'Lucid', 'Arial', 'Helvetica', 'Avant Garde', sans-serif; text-anchor: middle" x="33.470312" y="143.28" transform="rotate(-90 33.470312 143.28)">Elevation (ft)</text>
    </g>
   </g>
   <g id="line2d_16">
    <path d="M 71.136139 91.638 
L 72.647896 91.249714 
L 74.159652 88.531714 
L 75.671408 84.260571 
L 77.183164 83.872286 
L 78.69492 83.095714 
L 80.206676 80.377714 
L 83.230189 78.824571 
L 84.741945 78.436286 
L 86.253701 76.494857 
L 87.765457 74.165143 
L 89.277213 72.223714 
L 92.300726 67.564286 
L 93.812482 64.846286 
L 95.324238 65.622857 
L 96.835994 66.011143 
L 98.34775 67.564286 
L 99.859507 65.234571 
L 101.371263 65.234571 
L 102.883019 68.729143 
L 104.394775 69.894 
L 105.906531 73.000286 
L 107.418287 76.494857 
L 108.930044 80.766 
L 110.4418 86.978571 
L 111.953556 92.026286 
L 118.000581 107.557714 
L 119.512337 111.828857 
L 121.024093 115.323429 
L 122.535849 120.759429 
L 124.047605 122.700857 
L 127.071118 130.466571 
L 128.582874 133.961143 
L 130.09463 138.620571 
L 133.118142 138.620571 
L 134.629898 140.950286 
L 136.141655 140.562 
L 137.653411 140.950286 
L 140.676923 143.28 
L 142.188679 142.891714 
L 143.700435 140.950286 
L 145.212192 140.562 
L 146.723948 138.232286 
L 148.235704 137.067429 
L 149.74746 133.961143 
L 151.259216 134.349429 
L 152.770972 133.961143 
L 154.282729 131.631429 
L 155.794485 127.748571 
L 157.306241 125.807143 
L 158.817997 125.030571 
L 161.841509 112.605429 
L 163.353266 109.887429 
L 164.865022 106.004571 
L 166.376778 100.180286 
L 167.888534 99.403714 
L 169.40029 95.520857 
L 170.912046 92.414571 
L 172.423803 86.978571 
L 173.935559 82.707429 
L 175.447315 76.494857 
L 178.470827 72.612 
L 179.982583 73.776857 
L 181.49434 71.447143 
L 183.006096 67.564286 
L 184.517852 65.622857 
L 186.029608 64.458 
L 187.541364 64.069714 
L 189.05312 69.894 
L 190.564877 71.058857 
L 192.076633 75.718286 
L 193.588389 78.048 
L 195.100145 83.095714 
L 196.611901 88.92 
L 199.635414 95.132571 
L 204.170682 105.616286 
L 205.682438 107.946 
L 207.194194 111.828857 
L 208.705951 112.217143 
L 210.217707 109.499143 
L 213.241219 109.499143 
L 214.752975 109.110857 
L 216.264731 110.275714 
L 217.776488 110.664 
L 219.288244 107.946 
L 220.8 107.946 
L 222.311756 106.004571 
L 223.823512 103.674857 
L 225.335269 99.792 
L 226.847025 97.074 
L 228.358781 93.579429 
L 229.870537 93.579429 
L 231.382293 91.638 
L 232.894049 91.638 
L 234.405806 90.473143 
L 235.917562 85.813714 
L 237.429318 79.989429 
L 238.941074 79.989429 
L 240.45283 77.659714 
L 241.964586 74.165143 
L 243.476343 75.33 
L 244.988099 75.718286 
L 248.011611 71.058857 
L 249.523367 69.117429 
L 251.035123 68.340857 
L 252.54688 69.117429 
L 254.058636 69.117429 
L 255.570392 69.505714 
L 257.082148 71.835429 
L 258.593904 73.776857 
L 260.10566 77.271429 
L 261.617417 78.436286 
L 263.129173 81.154286 
L 264.640929 83.095714 
L 266.152685 84.260571 
L 267.664441 85.037143 
L 269.176197 87.366857 
L 270.687954 90.084857 
L 272.19971 93.579429 
L 273.711466 99.015429 
L 275.223222 101.733429 
L 278.246734 109.499143 
L 281.270247 114.935143 
L 282.782003 120.371143 
L 284.293759 124.254 
L 285.805515 126.583714 
L 287.317271 126.972 
L 288.829028 129.69 
L 290.340784 131.631429 
L 291.85254 133.184571 
L 293.364296 133.961143 
L 294.876052 137.844 
L 296.387808 139.397143 
L 297.899565 137.844 
L 299.411321 139.008857 
L 300.923077 137.844 
L 302.434833 138.620571 
L 305.458345 137.844 
L 306.970102 136.290857 
L 308.481858 135.514286 
L 309.993614 135.126 
L 311.50537 135.126 
L 314.528882 132.796286 
L 316.040639 130.078286 
L 317.552395 127.748571 
L 319.064151 123.477429 
L 320.575907 121.536 
L 322.087663 121.536 
L 323.599419 121.924286 
L 325.111176 121.536 
L 326.622932 120.371143 
L 328.134688 120.759429 
L 329.646444 120.371143 
L 331.1582 123.865714 
L 332.669956 123.089143 
L 334.181713 122.700857 
L 335.693469 123.865714 
L 340.228737 132.019714 
L 341.740493 134.349429 
L 343.25225 139.008857 
L 344.764006 142.503429 
L 346.275762 145.609714 
L 347.787518 149.880857 
L 349.299274 152.210571 
L 350.81103 156.481714 
L 352.322787 161.529429 
L 353.834543 164.635714 
L 355.346299 166.188857 
L 356.858055 169.683429 
L 358.369811 172.789714 
L 359.881567 173.178 
L 361.393324 175.507714 
L 362.90508 176.672571 
L 364.416836 179.390571 
L 365.928592 182.885143 
L 367.440348 184.438286 
L 368.952104 186.379714 
L 370.463861 185.603143 
L 371.975617 188.709429 
L 373.487373 183.273429 
L 374.999129 181.720286 
L 376.510885 181.332 
L 378.022642 180.555429 
L 381.046154 181.332 
L 384.069666 179.778857 
L 385.581422 180.167143 
L 387.093179 178.614 
L 388.604935 176.672571 
L 390.116691 175.896 
L 391.628447 173.566286 
L 393.140203 172.789714 
L 394.651959 172.789714 
L 396.163716 173.178 
L 397.675472 170.848286 
L 399.187228 170.46 
L 400.698984 169.295143 
L 402.21074 168.518571 
L 403.722496 166.965429 
L 405.234253 167.353714 
L 406.746009 167.353714 
L 408.257765 166.188857 
L 409.769521 168.906857 
L 411.281277 168.518571 
L 412.793033 168.906857 
L 414.30479 169.683429 
L 415.816546 171.624857 
L 417.328302 172.789714 
L 418.840058 175.507714 
L 420.351814 175.896 
L 421.86357 177.449143 
L 423.375327 180.943714 
L 424.887083 184.05 
L 426.398839 189.097714 
L 427.910595 193.757143 
L 429.422351 197.64 
L 430.934107 200.358 
L 432.445864 204.240857 
L 433.95762 207.347143 
L 435.469376 209.676857 
L 436.981132 211.618286 
L 438.492888 215.112857 
L 440.004644 217.442571 
L 441.516401 219.384 
L 443.028157 220.937143 
L 444.539913 223.266857 
L 446.051669 224.82 
L 446.051669 224.82 
" clip-path="url(#pae7249d67a)" style="fill: none; stroke: #191970; stroke-width: 1.5; stroke-linecap: square"/>
   </g>
   <g id="line2d_17">
    <path d="M 282.782003 113.382 
L 284.293759 119.206286 
L 285.805515 120.371143 
L 288.829028 124.254 
L 290.340784 125.418857 
L 291.85254 127.360286 
L 293.364296 130.466571 
L 294.876052 130.078286 
L 296.387808 130.078286 
L 297.899565 134.737714 
L 299.411321 132.408 
L 300.923077 132.796286 
L 303.946589 132.796286 
L 305.458345 130.078286 
L 306.970102 131.243143 
L 308.481858 129.301714 
L 309.993614 129.69 
L 311.50537 127.748571 
L 313.017126 127.360286 
L 314.528882 124.642286 
L 316.040639 125.030571 
L 319.064151 119.594571 
L 320.575907 118.429714 
L 322.087663 115.711714 
L 323.599419 116.876571 
L 325.111176 115.711714 
L 326.622932 116.1 
L 328.134688 116.876571 
L 329.646444 118.818 
L 331.1582 118.429714 
L 332.669956 120.371143 
L 334.181713 119.982857 
L 335.693469 120.371143 
L 337.205225 123.477429 
L 338.716981 126.972 
L 340.228737 129.301714 
L 341.740493 130.466571 
L 343.25225 135.126 
L 346.275762 141.338571 
L 347.787518 145.221429 
L 350.81103 152.210571 
L 352.322787 157.646571 
L 353.834543 159.588 
L 355.346299 161.917714 
L 356.858055 166.188857 
L 358.369811 163.470857 
L 359.881567 167.353714 
L 361.393324 166.577143 
L 362.90508 167.742 
L 364.416836 177.060857 
L 365.928592 181.720286 
L 367.440348 183.661714 
L 368.952104 183.661714 
L 370.463861 184.826571 
L 371.975617 180.555429 
L 373.487373 176.672571 
L 374.999129 175.119429 
L 376.510885 174.731143 
L 378.022642 175.896 
L 379.534398 176.284286 
L 381.046154 175.896 
L 382.55791 176.672571 
L 384.069666 173.954571 
L 385.581422 173.178 
L 387.093179 172.789714 
L 388.604935 171.236571 
L 390.116691 170.071714 
L 393.140203 170.848286 
L 394.651959 170.848286 
L 396.163716 169.683429 
L 397.675472 169.683429 
L 399.187228 168.906857 
L 400.698984 168.518571 
L 402.21074 165.412286 
L 403.722496 163.859143 
L 405.234253 162.694286 
L 406.746009 165.024 
L 408.257765 169.295143 
L 409.769521 166.965429 
L 411.281277 165.024 
L 412.793033 167.936143 
L 414.30479 168.130286 
L 415.816546 170.654143 
L 417.328302 171.624857 
L 418.840058 174.342857 
L 420.351814 175.896 
L 421.86357 175.896 
L 423.375327 177.9345 
L 424.887083 182.691 
L 426.398839 185.700214 
L 427.910595 189.874286 
L 429.422351 192.980571 
L 430.934107 197.64 
L 432.445864 201.134571 
L 433.95762 206.570571 
L 435.469376 206.958857 
L 436.981132 210.065143 
L 438.492888 213.559714 
L 440.004644 216.666 
L 441.516401 220.937143 
L 444.539913 223.266857 
L 446.051669 225.596571 
L 447.563425 227.538 
L 449.075181 228.702857 
L 450.586938 231.032571 
L 452.098694 232.974 
L 453.61045 232.974 
L 455.122206 233.750571 
L 456.633962 233.362286 
L 458.145718 231.420857 
L 459.657475 229.867714 
L 461.169231 226.373143 
L 464.192743 225.596571 
L 465.704499 223.655143 
L 467.216255 216.666 
L 468.728012 210.453429 
L 470.239768 203.7555 
L 471.751524 199.872643 
L 473.26328 195.310286 
L 474.775036 193.368857 
L 476.286792 192.204 
L 477.798549 188.321143 
L 479.310305 183.661714 
L 480.822061 179.390571 
L 482.333817 171.236571 
L 483.845573 164.635714 
L 485.357329 154.152 
L 486.869086 147.939429 
L 488.380842 138.232286 
L 489.892598 138.232286 
L 491.404354 127.360286 
L 492.91611 121.536 
L 494.427866 123.865714 
L 495.939623 109.499143 
L 497.451379 99.403714 
L 498.963135 93.967714 
L 500.474891 90.084857 
L 501.986647 90.473143 
L 503.498403 92.802857 
L 505.01016 92.802857 
L 506.521916 94.356 
L 508.033672 97.074 
L 509.545428 101.248071 
L 512.56894 110.469857 
L 514.080697 108.722571 
L 515.592453 110.955214 
L 517.104209 113.673214 
L 518.615965 116.876571 
L 520.127721 121.536 
L 520.127721 121.536 
" clip-path="url(#pae7249d67a)" style="fill: none; stroke: #87ceeb; stroke-width: 1.5; stroke-linecap: square"/>
   </g>
   <g id="patch_3">
    <path d="M 72 252 
L 72 34.56 
" style="fill: none; stroke: #000000; stroke-width: 0.8; stroke-linejoin: miter; stroke-linecap: square"/>
   </g>
   <g id="patch_4">
    <path d="M 518.4 252 
L 518.4 34.56 
" style="fill: none; stroke: #000000; stroke-width: 0.8; stroke-linejoin: miter; stroke-linecap: square"/>
   </g>
   <g id="patch_5">
    <path d="M 72 252 
L 518.4 252 
" style="fill: none; stroke: #000000; stroke-width: 0.8; stroke-linejoin: miter; stroke-linecap: square"/>
   </g>
   <g id="patch_6">
    <path d="M 72 34.56 
L 518.4 34.56 
" style="fill: none; stroke: #000000; stroke-width: 0.8; stroke-linejoin: miter; stroke-linecap: square"/>
   </g>
  </g>
 </g>
 <defs>
  <clipPath id="pae7249d67a">
   <rect x="72" y="34.56" width="446.4" height="217.44"/>
  </clipPath>
 </defs>
</svg>
