<?xml version="1.0" encoding="utf-8" standalone="no"?>
<!DOCTYPE svg PUBLIC "-//W3C//DTD SVG 1.1//EN"
  "http://www.w3.org/Graphics/SVG/1.1/DTD/svg11.dtd">
<svg xmlns:xlink="http://www.w3.org/1999/xlink" width="576pt" height="288pt" viewBox="0 0 576 288" xmlns="http://www.w3.org/2000/svg" version="1.1">
 <metadata>
  <rdf:RDF xmlns:dc="http://purl.org/dc/elements/1.1/" xmlns:cc="http://creativecommons.org/ns#" xmlns:rdf="http://www.w3.org/1999/02/22-rdf-syntax-ns#">
   <cc:Work>
    <dc:type rdf:resource="http://purl.org/dc/dcmitype/StillImage"/>
    <dc:date>2023-04-11T23:16:48.554391</dc:date>
    <dc:format>image/svg+xml</dc:format>
    <dc:creator>
     <cc:Agent>
      <dc:title>Matplotlib v3.5.2, https://matplotlib.org/</dc:title>
     </cc:Agent>
    </dc:creator>
   </cc:Work>
  </rdf:RDF>
 </metadata>
 <defs>
  <style type="text/css">*{stroke-linejoin: round; stroke-linecap: butt}</style>
 </defs>
 <g id="figure_1">
  <g id="patch_1">
   <path d="M 0 288 
L 576 288 
L 576 0 
L 0 0 
z
" style="fill: #ffffff"/>
  </g>
  <g id="axes_1">
   <g id="patch_2">
    <path d="M 72 252 
L 518.4 252 
L 518.4 34.56 
L 72 34.56 
z
" style="fill: #ffffff"/>
   </g>
   <g id="matplotlib.axis_1">
    <g id="xtick_1">
     <g id="line2d_1">
      <defs>
       <path id="m3f8e6b8be4" d="M 0 0 
L 0 3.5 
" style="stroke: #000000; stroke-width: 0.8"/>
      </defs>
      <g>
       <use xlink:href="#m3f8e6b8be4" x="72" y="252" style="stroke: #000000; stroke-width: 0.8"/>
      </g>
     </g>
     <g id="text_1">
      <text style="font: 10px 'sans-serif'; text-anchor: middle" x="72" y="266.598437" transform="rotate(-0, 72, 266.598437)">2005</text>
     </g>
    </g>
    <g id="xtick_2">
     <g id="line2d_2">
      <g>
       <use xlink:href="#m3f8e6b8be4" x="116.615553" y="252" style="stroke: #000000; stroke-width: 0.8"/>
      </g>
     </g>
     <g id="text_2">
      <text style="font: 10px 'sans-serif'; text-anchor: middle" x="116.615553" y="266.598437" transform="rotate(-0, 116.615553, 266.598437)">2006</text>
     </g>
    </g>
    <g id="xtick_3">
     <g id="line2d_3">
      <g>
       <use xlink:href="#m3f8e6b8be4" x="161.231106" y="252" style="stroke: #000000; stroke-width: 0.8"/>
      </g>
     </g>
     <g id="text_3">
      <text style="font: 10px 'sans-serif'; text-anchor: middle" x="161.231106" y="266.598437" transform="rotate(-0, 161.231106, 266.598437)">2007</text>
     </g>
    </g>
    <g id="xtick_4">
     <g id="line2d_4">
      <g>
       <use xlink:href="#m3f8e6b8be4" x="205.846659" y="252" style="stroke: #000000; stroke-width: 0.8"/>
      </g>
     </g>
     <g id="text_4">
      <text style="font: 10px 'sans-serif'; text-anchor: middle" x="205.846659" y="266.598437" transform="rotate(-0, 205.846659, 266.598437)">2008</text>
     </g>
    </g>
    <g id="xtick_5">
     <g id="line2d_5">
      <g>
       <use xlink:href="#m3f8e6b8be4" x="250.584447" y="252" style="stroke: #000000; stroke-width: 0.8"/>
      </g>
     </g>
     <g id="text_5">
      <text style="font: 10px 'sans-serif'; text-anchor: middle" x="250.584447" y="266.598437" transform="rotate(-0, 250.584447, 266.598437)">2009</text>
     </g>
    </g>
    <g id="xtick_6">
     <g id="line2d_6">
      <g>
       <use xlink:href="#m3f8e6b8be4" x="295.2" y="252" style="stroke: #000000; stroke-width: 0.8"/>
      </g>
     </g>
     <g id="text_6">
      <text style="font: 10px 'sans-serif'; text-anchor: middle" x="295.2" y="266.598437" transform="rotate(-0, 295.2, 266.598437)">2010</text>
     </g>
    </g>
    <g id="xtick_7">
     <g id="line2d_7">
      <g>
       <use xlink:href="#m3f8e6b8be4" x="339.815553" y="252" style="stroke: #000000; stroke-width: 0.8"/>
      </g>
     </g>
     <g id="text_7">
      <text style="font: 10px 'sans-serif'; text-anchor: middle" x="339.815553" y="266.598437" transform="rotate(-0, 339.815553, 266.598437)">2011</text>
     </g>
    </g>
    <g id="xtick_8">
     <g id="line2d_8">
      <g>
       <use xlink:href="#m3f8e6b8be4" x="384.431106" y="252" style="stroke: #000000; stroke-width: 0.8"/>
      </g>
     </g>
     <g id="text_8">
      <text style="font: 10px 'sans-serif'; text-anchor: middle" x="384.431106" y="266.598437" transform="rotate(-0, 384.431106, 266.598437)">2012</text>
     </g>
    </g>
    <g id="xtick_9">
     <g id="line2d_9">
      <g>
       <use xlink:href="#m3f8e6b8be4" x="429.168894" y="252" style="stroke: #000000; stroke-width: 0.8"/>
      </g>
     </g>
     <g id="text_9">
      <text style="font: 10px 'sans-serif'; text-anchor: middle" x="429.168894" y="266.598437" transform="rotate(-0, 429.168894, 266.598437)">2013</text>
     </g>
    </g>
    <g id="xtick_10">
     <g id="line2d_10">
      <g>
       <use xlink:href="#m3f8e6b8be4" x="473.784447" y="252" style="stroke: #000000; stroke-width: 0.8"/>
      </g>
     </g>
     <g id="text_10">
      <text style="font: 10px 'sans-serif'; text-anchor: middle" x="473.784447" y="266.598437" transform="rotate(-0, 473.784447, 266.598437)">2014</text>
     </g>
    </g>
    <g id="xtick_11">
     <g id="line2d_11">
      <g>
       <use xlink:href="#m3f8e6b8be4" x="518.4" y="252" style="stroke: #000000; stroke-width: 0.8"/>
      </g>
     </g>
     <g id="text_11">
      <text style="font: 10px 'sans-serif'; text-anchor: middle" x="518.4" y="266.598437" transform="rotate(-0, 518.4, 266.598437)">2015</text>
     </g>
    </g>
    <g id="text_12">
     <text style="font: 10px 'sans-serif'; text-anchor: middle" x="295.2" y="280.276563" transform="rotate(-0, 295.2, 280.276563)">Year</text>
    </g>
   </g>
   <g id="matplotlib.axis_2">
    <g id="ytick_1">
     <g id="line2d_12">
      <defs>
       <path id="m3b274ce577" d="M 0 0 
L -3.5 0 
" style="stroke: #000000; stroke-width: 0.8"/>
      </defs>
      <g>
       <use xlink:href="#m3b274ce577" x="72" y="252" style="stroke: #000000; stroke-width: 0.8"/>
      </g>
     </g>
     <g id="text_13">
      <text style="font: 10px 'sans-serif'; text-anchor: end" x="65" y="255.799219" transform="rotate(-0, 65, 255.799219)">4193</text>
     </g>
    </g>
    <g id="ytick_2">
     <g id="line2d_13">
      <g>
       <use xlink:href="#m3b274ce577" x="72" y="220.937143" style="stroke: #000000; stroke-width: 0.8"/>
      </g>
     </g>
     <g id="text_14">
      <text style="font: 10px 'sans-serif'; text-anchor: end" x="65" y="224.736362" transform="rotate(-0, 65, 224.736362)">4194</text>
     </g>
    </g>
    <g id="ytick_3">
     <g id="line2d_14">
      <g>
       <use xlink:href="#m3b274ce577" x="72" y="189.874286" style="stroke: #000000; stroke-width: 0.8"/>
      </g>
     </g>
     <g id="text_15">
      <text style="font: 10px 'sans-serif'; text-anchor: end" x="65" y="193.673504" transform="rotate(-0, 65, 193.673504)">4195</text>
     </g>
    </g>
    <g id="ytick_4">
     <g id="line2d_15">
      <g>
       <use xlink:href="#m3b274ce577" x="72" y="158.811429" style="stroke: #000000; stroke-width: 0.8"/>
      </g>
     </g>
     <g id="text_16">
      <text style="font: 10px 'sans-serif'; text-anchor: end" x="65" y="162.610647" transform="rotate(-0, 65, 162.610647)">4196</text>
     </g>
    </g>
    <g id="ytick_5">
     <g id="line2d_16">
      <g>
       <use xlink:href="#m3b274ce577" x="72" y="127.748571" style="stroke: #000000; stroke-width: 0.8"/>
      </g>
     </g>
     <g id="text_17">
      <text style="font: 10px 'sans-serif'; text-anchor: end" x="65" y="131.54779" transform="rotate(-0, 65, 131.54779)">4197</text>
     </g>
    </g>
    <g id="ytick_6">
     <g id="line2d_17">
      <g>
       <use xlink:href="#m3b274ce577" x="72" y="96.685714" style="stroke: #000000; stroke-width: 0.8"/>
      </g>
     </g>
     <g id="text_18">
      <text style="font: 10px 'sans-serif'; text-anchor: end" x="65" y="100.484933" transform="rotate(-0, 65, 100.484933)">4198</text>
     </g>
    </g>
    <g id="ytick_7">
     <g id="line2d_18">
      <g>
       <use xlink:href="#m3b274ce577" x="72" y="65.622857" style="stroke: #000000; stroke-width: 0.8"/>
      </g>
     </g>
     <g id="text_19">
      <text style="font: 10px 'sans-serif'; text-anchor: end" x="65" y="69.422076" transform="rotate(-0, 65, 69.422076)">4199</text>
     </g>
    </g>
    <g id="ytick_8">
     <g id="line2d_19">
      <g>
       <use xlink:href="#m3b274ce577" x="72" y="34.56" style="stroke: #000000; stroke-width: 0.8"/>
      </g>
     </g>
     <g id="text_20">
      <text style="font: 10px 'sans-serif'; text-anchor: end" x="65" y="38.359219" transform="rotate(-0, 65, 38.359219)">4200</text>
     </g>
    </g>
    <g id="text_21">
     <text style="font: 10px 'sans-serif'; text-anchor: middle" x="33.470312" y="143.28" transform="rotate(-90, 33.470312, 143.28)">Elevation (ft)</text>
    </g>
   </g>
   <g id="line2d_20">
    <path d="M 71.755531 206.071347 
L 72.611172 204.296327 
L 75.178094 185.791739 
L 76.033735 182.552327 
L 76.889376 181.309812 
L 77.745016 177.271641 
L 78.600657 174.830988 
L 79.456298 173.189094 
L 80.311939 172.43471 
L 81.167579 173.765976 
L 82.02322 170.570939 
L 82.878861 165.245878 
L 83.734502 161.07458 
L 84.590142 161.917714 
L 85.445783 158.988931 
L 86.301424 154.862008 
L 87.157065 151.400718 
L 88.868346 126.550433 
L 89.723987 118.784718 
L 90.579628 117.497829 
L 91.435268 115.989061 
L 92.290909 116.210939 
L 93.14655 118.740343 
L 94.002191 117.985959 
L 95.713472 125.086041 
L 96.569113 130.766106 
L 98.280394 140.661845 
L 99.136035 144.300637 
L 99.991676 149.936327 
L 101.702957 158.811429 
L 102.558598 162.139592 
L 103.414239 166.399641 
L 105.12552 171.369698 
L 105.981161 171.94658 
L 106.836802 175.00849 
L 107.692442 175.629747 
L 108.548083 175.452245 
L 109.403724 175.097241 
L 110.259365 175.00849 
L 111.970646 173.410971 
L 112.826287 173.189094 
L 113.681928 174.254106 
L 114.537568 174.298482 
L 115.393209 172.257208 
L 116.24885 168.662792 
L 117.960131 156.992033 
L 118.815772 154.240751 
L 119.671413 152.731984 
L 120.527054 148.649437 
L 121.382694 145.365649 
L 122.238335 143.457502 
L 123.093976 143.990008 
L 123.949617 141.549355 
L 124.805257 137.777437 
L 125.660898 135.203657 
L 126.516539 130.810482 
L 127.37218 127.792947 
L 128.22782 123.000392 
L 129.939102 105.605192 
L 130.794743 100.19138 
L 132.506024 92.913796 
L 133.361665 93.446302 
L 135.072946 95.886955 
L 135.928587 96.907592 
L 136.784228 96.907592 
L 137.639869 99.703249 
L 138.495509 103.164539 
L 139.35115 108.045845 
L 140.206791 113.859037 
L 141.918072 121.047869 
L 144.484995 135.203657 
L 146.196276 141.771233 
L 147.051917 146.386286 
L 147.907558 147.362547 
L 148.763198 145.05502 
L 149.618839 146.963167 
L 150.47448 147.895053 
L 151.33012 145.188147 
L 152.185761 143.146873 
L 153.041402 144.700016 
L 153.897043 145.543151 
L 154.752683 144.56689 
L 155.608324 143.191249 
L 156.463965 141.416229 
L 157.319606 140.928098 
L 158.175246 140.573094 
L 159.030887 137.954939 
L 159.886528 136.401796 
L 160.742169 133.783641 
L 161.597809 132.80738 
L 162.45345 131.476114 
L 163.309091 133.162384 
L 164.164732 133.428637 
L 165.020372 133.162384 
L 165.876013 132.496751 
L 166.731654 128.369829 
L 167.587295 123.621649 
L 168.442935 120.204735 
L 170.154217 115.101551 
L 171.009858 111.906514 
L 171.865498 110.974629 
L 173.57678 106.359576 
L 174.432421 110.841502 
L 175.288061 111.196506 
L 176.143702 110.708376 
L 176.999343 114.657796 
L 177.854984 115.767184 
L 178.710624 118.252212 
L 179.566265 122.290384 
L 180.421906 122.82289 
L 181.277547 125.041665 
L 182.133187 129.479216 
L 183.844469 137.244931 
L 186.411391 151.400718 
L 187.267032 154.862008 
L 188.122673 160.231445 
L 188.978313 164.535869 
L 189.833954 167.553404 
L 190.689595 172.168457 
L 191.545235 174.12098 
L 193.256517 183.129208 
L 194.112158 185.259233 
L 194.967798 184.416098 
L 195.823439 185.037355 
L 196.67908 184.238596 
L 197.534721 186.457371 
L 198.390361 185.924865 
L 199.246002 186.501747 
L 200.101643 186.279869 
L 200.957284 186.235494 
L 201.812924 188.188016 
L 202.668565 186.856751 
L 203.524206 183.617339 
L 204.379847 182.81858 
L 205.235487 181.13231 
L 206.091128 182.552327 
L 206.946769 180.067298 
L 207.80241 178.869159 
L 208.65805 178.203527 
L 209.513691 178.46978 
L 210.369332 176.694759 
L 211.224973 173.854727 
L 212.080613 173.987853 
L 214.647536 160.364571 
L 216.358817 156.903282 
L 217.214458 157.258286 
L 218.070099 156.992033 
L 218.925739 159.122057 
L 219.78138 159.832065 
L 220.637021 160.231445 
L 221.492662 160.941453 
L 223.203943 161.252082 
L 224.059584 160.630824 
L 224.915225 158.855804 
L 225.770865 161.296457 
L 226.626506 162.627722 
L 227.482147 164.802122 
L 229.193428 173.810351 
L 230.049069 179.179788 
L 230.90471 183.173584 
L 233.471632 197.329371 
L 235.182913 207.713241 
L 236.038554 209.266384 
L 236.894195 212.505796 
L 237.749836 214.990824 
L 239.461117 218.718367 
L 240.316758 218.09711 
L 241.172399 221.247771 
L 242.028039 221.647151 
L 242.88368 223.244669 
L 244.594962 219.694629 
L 245.450602 218.851494 
L 246.306243 219.028996 
L 247.161884 217.875233 
L 248.017525 217.475853 
L 248.873165 220.227135 
L 249.728806 219.561502 
L 252.295728 214.902073 
L 253.151369 213.615184 
L 254.00701 207.801992 
L 254.862651 206.825731 
L 255.718291 201.678171 
L 256.573932 198.793763 
L 257.429573 195.199347 
L 258.285214 192.936196 
L 259.140854 187.699886 
L 259.996495 186.590498 
L 260.852136 183.040457 
L 261.707777 181.842318 
L 262.563417 183.661714 
L 263.419058 180.200424 
L 264.274699 174.697861 
L 265.13034 171.902204 
L 265.98598 167.464653 
L 266.841621 166.177763 
L 267.697262 166.754645 
L 268.552903 167.065273 
L 269.408543 165.955886 
L 270.264184 165.734008 
L 271.119825 161.296457 
L 271.975465 159.033306 
L 272.831106 157.347037 
L 273.686747 158.367673 
L 276.253669 173.144718 
L 277.10931 179.934171 
L 278.820591 189.82991 
L 279.676232 191.693682 
L 280.531873 194.223086 
L 281.387514 197.950629 
L 283.098795 203.364441 
L 283.954436 205.671967 
L 285.665717 211.440784 
L 286.521358 207.801992 
L 287.376999 206.781355 
L 288.23264 209.754514 
L 289.08828 209.133257 
L 289.943921 209.310759 
L 290.799562 208.689502 
L 291.655203 208.822629 
L 292.510843 210.109518 
L 293.366484 208.733878 
L 294.222125 207.801992 
L 295.077766 207.446988 
L 295.933406 205.893845 
L 296.789047 205.538841 
L 297.644688 204.429453 
L 298.500329 202.121927 
L 302.778532 188.05489 
L 303.634173 180.200424 
L 304.489814 178.647282 
L 305.345455 177.626645 
L 306.201095 180.022922 
L 307.056736 178.247902 
L 307.912377 180.111673 
L 308.768018 177.094139 
L 309.623658 176.428506 
L 310.479299 176.206629 
L 311.33494 175.762873 
L 312.190581 175.940376 
L 313.046221 175.896 
L 313.901862 174.564735 
L 314.757503 170.704065 
L 315.613143 169.683429 
L 316.468784 169.683429 
L 317.324425 173.899102 
L 319.035706 183.040457 
L 320.746988 192.536816 
L 322.458269 203.231314 
L 324.169551 211.97329 
L 325.025192 214.058939 
L 325.880832 219.694629 
L 326.736473 222.800914 
L 328.447755 226.972212 
L 329.303395 230.211624 
L 330.159036 230.699755 
L 331.014677 232.918531 
L 331.870318 229.85662 
L 332.725958 230.832882 
L 333.581599 228.0816 
L 334.43724 228.303478 
L 335.292881 229.235363 
L 337.004162 224.13218 
L 337.859803 219.028996 
L 339.571084 204.385078 
L 340.426725 202.965061 
L 341.282366 202.476931 
L 342.993647 197.018743 
L 343.849288 193.024947 
L 344.704929 192.448065 
L 345.56057 191.161176 
L 348.127492 175.185992 
L 348.983133 172.345959 
L 349.838773 168.618416 
L 350.694414 160.719576 
L 351.550055 156.370776 
L 352.405696 147.673176 
L 354.116977 134.449273 
L 354.972618 131.387363 
L 355.828258 124.376033 
L 356.683899 118.784718 
L 358.395181 98.283233 
L 359.250821 91.582531 
L 360.106462 86.035592 
L 360.962103 82.884931 
L 361.817744 83.28431 
L 362.673384 83.28431 
L 363.529025 85.591837 
L 364.384666 86.923102 
L 365.240307 90.872522 
L 366.095947 91.582531 
L 366.951588 94.466939 
L 369.51851 105.02831 
L 370.374151 109.066482 
L 371.229792 111.418384 
L 372.941073 113.415282 
L 373.796714 115.678433 
L 374.652355 111.995265 
L 376.363636 108.445224 
L 377.219277 107.335837 
L 378.074918 109.243984 
L 378.930559 108.312098 
L 379.786199 106.581453 
L 380.64184 101.478269 
L 381.497481 103.075788 
L 382.353122 102.898286 
L 384.064403 101.345143 
L 384.920044 101.07889 
L 385.775685 98.90449 
L 386.631325 95.04382 
L 387.486966 90.251265 
L 388.342607 86.434971 
L 390.053888 82.086171 
L 390.909529 79.468016 
L 391.76517 80.2224 
L 392.620811 75.829224 
L 393.476451 80.399902 
L 394.332092 77.692996 
L 395.187733 77.604245 
L 396.043373 74.364833 
L 396.899014 76.450482 
L 397.754655 76.228604 
L 398.610296 75.385469 
L 399.465936 75.074841 
L 400.321577 77.204865 
L 401.177218 80.355527 
L 402.032859 82.263673 
L 402.888499 87.233731 
L 403.74414 88.209992 
L 406.311062 104.895184 
L 408.877985 115.634057 
L 410.589266 124.198531 
L 413.156188 136.002416 
L 414.011829 139.241829 
L 414.86747 140.794971 
L 415.723111 144.833143 
L 417.434392 149.492571 
L 418.290033 151.267592 
L 419.145674 156.104522 
L 420.001314 156.237649 
L 420.856955 155.838269 
L 421.712596 154.773257 
L 422.568237 154.862008 
L 423.423877 154.063249 
L 424.279518 152.510106 
L 425.135159 153.308865 
L 425.9908 150.868212 
L 426.84644 150.735086 
L 428.557722 147.540049 
L 429.413363 146.918792 
L 430.269003 146.785665 
L 431.124644 146.297535 
L 431.980285 146.120033 
L 432.835926 144.123135 
L 434.547207 141.238727 
L 435.402848 139.064327 
L 436.258488 138.975576 
L 437.114129 134.626776 
L 437.96977 131.609241 
L 438.825411 129.612343 
L 439.681051 130.810482 
L 440.536692 130.455478 
L 441.392333 127.082939 
L 442.247974 129.83422 
L 443.103614 131.697992 
L 443.959255 132.496751 
L 444.814896 139.064327 
L 445.670537 138.975576 
L 446.526177 139.241829 
L 447.381818 142.614367 
L 448.237459 145.365649 
L 449.0931 150.291331 
L 449.94874 157.125159 
L 450.804381 162.760849 
L 451.660022 164.580245 
L 452.515663 167.730906 
L 453.371303 173.233469 
L 454.226944 175.629747 
L 456.793866 191.915559 
L 457.649507 195.643102 
L 458.505148 198.261257 
L 459.360789 199.459396 
L 460.216429 201.367543 
L 461.07207 202.87631 
L 461.927711 207.22511 
L 462.783352 208.867004 
L 463.638992 210.153894 
L 464.494633 210.730776 
L 465.350274 211.884539 
L 466.205915 212.283918 
L 467.061555 213.615184 
L 468.772837 212.062041 
L 469.628478 212.8608 
L 470.484118 211.485159 
L 471.339759 212.772049 
L 472.1954 210.997029 
L 473.051041 208.955755 
L 474.762322 207.446988 
L 475.617963 206.160098 
L 476.473604 205.583216 
L 477.329244 204.695706 
L 478.184885 203.408816 
L 479.040526 200.302531 
L 479.896166 195.731853 
L 480.751807 193.024947 
L 481.607448 187.566759 
L 482.463089 183.351086 
L 483.318729 182.774204 
L 484.17437 185.214857 
L 485.030011 185.214857 
L 485.885652 183.927967 
L 486.741292 185.969241 
L 487.596933 185.88049 
L 488.452574 186.102367 
L 489.308215 184.327347 
L 490.163855 186.36862 
L 491.019496 187.389257 
L 491.875137 189.874286 
L 492.730778 192.758694 
L 493.586418 196.75249 
L 494.442059 201.545045 
L 495.2977 202.920686 
L 497.864622 214.014563 
L 498.720263 218.585241 
L 499.575904 222.312784 
L 500.431544 223.377796 
L 501.287185 225.951576 
L 502.142826 227.282841 
L 502.998467 229.36849 
L 504.709748 234.826678 
L 506.42103 240.861747 
L 507.27667 239.042351 
L 508.132311 238.376718 
L 508.987952 241.039249 
L 509.843593 239.264229 
L 510.699233 240.817371 
L 511.554874 241.926759 
L 512.410515 240.772996 
L 513.266156 244.367412 
L 514.121796 242.947396 
L 514.977437 241.749257 
L 515.833078 239.796735 
L 516.688719 238.909224 
L 517.544359 233.850416 
L 518.4 236.601698 
L 519.255641 235.314808 
L 519.255641 235.314808 
" clip-path="url(#p61092b1046)" style="fill: none; stroke: #191970; stroke-width: 1.5; stroke-linecap: square"/>
   </g>
   <g id="line2d_21">
    <path d="M 0 0 
" clip-path="url(#p61092b1046)" style="fill: none; stroke: #87ceeb; stroke-width: 1.5; stroke-linecap: square"/>
   </g>
   <g id="patch_3">
    <path d="M 72 252 
L 72 34.56 
" style="fill: none; stroke: #000000; stroke-width: 0.8; stroke-linejoin: miter; stroke-linecap: square"/>
   </g>
   <g id="patch_4">
    <path d="M 518.4 252 
L 518.4 34.56 
" style="fill: none; stroke: #000000; stroke-width: 0.8; stroke-linejoin: miter; stroke-linecap: square"/>
   </g>
   <g id="patch_5">
    <path d="M 72 252 
L 518.4 252 
" style="fill: none; stroke: #000000; stroke-width: 0.8; stroke-linejoin: miter; stroke-linecap: square"/>
   </g>
   <g id="patch_6">
    <path d="M 72 34.56 
L 518.4 34.56 
" style="fill: none; stroke: #000000; stroke-width: 0.8; stroke-linejoin: miter; stroke-linecap: square"/>
   </g>
  </g>
 </g>
 <defs>
  <clipPath id="p61092b1046">
   <rect x="72" y="34.56" width="446.4" height="217.44"/>
  </clipPath>
 </defs>
</svg>
