<?xml version="1.0" encoding="utf-8" standalone="no"?>
<!DOCTYPE svg PUBLIC "-//W3C//DTD SVG 1.1//EN"
  "http://www.w3.org/Graphics/SVG/1.1/DTD/svg11.dtd">
<svg height="432pt" version="1.1" viewBox="0 0 864 432" width="864pt" xmlns="http://www.w3.org/2000/svg" xmlns:xlink="http://www.w3.org/1999/xlink">
 <metadata>
  <rdf:RDF xmlns:cc="http://creativecommons.org/ns#" xmlns:dc="http://purl.org/dc/elements/1.1/" xmlns:rdf="http://www.w3.org/1999/02/22-rdf-syntax-ns#">
   <cc:Work>
    <dc:type rdf:resource="http://purl.org/dc/dcmitype/StillImage"/>
    <dc:date>2022-11-06T19:47:31.573555</dc:date>
    <dc:format>image/svg+xml</dc:format>
    <dc:creator>
     <cc:Agent>
      <dc:title>Matplotlib v3.4.3, https://matplotlib.org/</dc:title>
     </cc:Agent>
    </dc:creator>
   </cc:Work>
  </rdf:RDF>
 </metadata>
 <defs>
  <style type="text/css">*{stroke-linecap:butt;stroke-linejoin:round;}</style>
 </defs>
 <g id="figure_1">
  <g id="patch_1">
   <path d="M 0 432 
L 864 432 
L 864 0 
L 0 0 
z
" style="fill:#ffffff;"/>
  </g>
  <g id="axes_1">
   <g id="patch_2">
    <path d="M 108 378 
L 777.6 378 
L 777.6 51.84 
L 108 51.84 
z
" style="fill:#ffffff;"/>
   </g>
   <g id="matplotlib.axis_1">
    <g id="xtick_1">
     <g id="line2d_1">
      <defs>
       <path d="M 0 0 
L 0 3.5 
" id="m828ee2b77e" style="stroke:#000000;stroke-width:0.8;"/>
      </defs>
      <g>
       <use style="stroke:#000000;stroke-width:0.8;" x="108" xlink:href="#m828ee2b77e" y="378"/>
      </g>
     </g>
     <g id="text_1">
      <!-- 2019 -->
      <g transform="translate(95.275 392.598437)scale(0.1 -0.1)">
       <defs>
        <path d="M 1228 531 
L 3431 531 
L 3431 0 
L 469 0 
L 469 531 
Q 828 903 1448 1529 
Q 2069 2156 2228 2338 
Q 2531 2678 2651 2914 
Q 2772 3150 2772 3378 
Q 2772 3750 2511 3984 
Q 2250 4219 1831 4219 
Q 1534 4219 1204 4116 
Q 875 4013 500 3803 
L 500 4441 
Q 881 4594 1212 4672 
Q 1544 4750 1819 4750 
Q 2544 4750 2975 4387 
Q 3406 4025 3406 3419 
Q 3406 3131 3298 2873 
Q 3191 2616 2906 2266 
Q 2828 2175 2409 1742 
Q 1991 1309 1228 531 
z
" id="DejaVuSans-32" transform="scale(0.015625)"/>
        <path d="M 2034 4250 
Q 1547 4250 1301 3770 
Q 1056 3291 1056 2328 
Q 1056 1369 1301 889 
Q 1547 409 2034 409 
Q 2525 409 2770 889 
Q 3016 1369 3016 2328 
Q 3016 3291 2770 3770 
Q 2525 4250 2034 4250 
z
M 2034 4750 
Q 2819 4750 3233 4129 
Q 3647 3509 3647 2328 
Q 3647 1150 3233 529 
Q 2819 -91 2034 -91 
Q 1250 -91 836 529 
Q 422 1150 422 2328 
Q 422 3509 836 4129 
Q 1250 4750 2034 4750 
z
" id="DejaVuSans-30" transform="scale(0.015625)"/>
        <path d="M 794 531 
L 1825 531 
L 1825 4091 
L 703 3866 
L 703 4441 
L 1819 4666 
L 2450 4666 
L 2450 531 
L 3481 531 
L 3481 0 
L 794 0 
L 794 531 
z
" id="DejaVuSans-31" transform="scale(0.015625)"/>
        <path d="M 703 97 
L 703 672 
Q 941 559 1184 500 
Q 1428 441 1663 441 
Q 2288 441 2617 861 
Q 2947 1281 2994 2138 
Q 2813 1869 2534 1725 
Q 2256 1581 1919 1581 
Q 1219 1581 811 2004 
Q 403 2428 403 3163 
Q 403 3881 828 4315 
Q 1253 4750 1959 4750 
Q 2769 4750 3195 4129 
Q 3622 3509 3622 2328 
Q 3622 1225 3098 567 
Q 2575 -91 1691 -91 
Q 1453 -91 1209 -44 
Q 966 3 703 97 
z
M 1959 2075 
Q 2384 2075 2632 2365 
Q 2881 2656 2881 3163 
Q 2881 3666 2632 3958 
Q 2384 4250 1959 4250 
Q 1534 4250 1286 3958 
Q 1038 3666 1038 3163 
Q 1038 2656 1286 2365 
Q 1534 2075 1959 2075 
z
" id="DejaVuSans-39" transform="scale(0.015625)"/>
       </defs>
       <use xlink:href="#DejaVuSans-32"/>
       <use x="63.623047" xlink:href="#DejaVuSans-30"/>
       <use x="127.246094" xlink:href="#DejaVuSans-31"/>
       <use x="190.869141" xlink:href="#DejaVuSans-39"/>
      </g>
     </g>
    </g>
    <g id="xtick_2">
     <g id="line2d_2">
      <g>
       <use style="stroke:#000000;stroke-width:0.8;" x="275.285421" xlink:href="#m828ee2b77e" y="378"/>
      </g>
     </g>
     <g id="text_2">
      <!-- 2020 -->
      <g transform="translate(262.560421 392.598437)scale(0.1 -0.1)">
       <use xlink:href="#DejaVuSans-32"/>
       <use x="63.623047" xlink:href="#DejaVuSans-30"/>
       <use x="127.246094" xlink:href="#DejaVuSans-32"/>
       <use x="190.869141" xlink:href="#DejaVuSans-30"/>
      </g>
     </g>
    </g>
    <g id="xtick_3">
     <g id="line2d_3">
      <g>
       <use style="stroke:#000000;stroke-width:0.8;" x="443.029158" xlink:href="#m828ee2b77e" y="378"/>
      </g>
     </g>
     <g id="text_3">
      <!-- 2021 -->
      <g transform="translate(430.304158 392.598437)scale(0.1 -0.1)">
       <use xlink:href="#DejaVuSans-32"/>
       <use x="63.623047" xlink:href="#DejaVuSans-30"/>
       <use x="127.246094" xlink:href="#DejaVuSans-32"/>
       <use x="190.869141" xlink:href="#DejaVuSans-31"/>
      </g>
     </g>
    </g>
    <g id="xtick_4">
     <g id="line2d_4">
      <g>
       <use style="stroke:#000000;stroke-width:0.8;" x="610.314579" xlink:href="#m828ee2b77e" y="378"/>
      </g>
     </g>
     <g id="text_4">
      <!-- 2022 -->
      <g transform="translate(597.589579 392.598437)scale(0.1 -0.1)">
       <use xlink:href="#DejaVuSans-32"/>
       <use x="63.623047" xlink:href="#DejaVuSans-30"/>
       <use x="127.246094" xlink:href="#DejaVuSans-32"/>
       <use x="190.869141" xlink:href="#DejaVuSans-32"/>
      </g>
     </g>
    </g>
    <g id="xtick_5">
     <g id="line2d_5">
      <g>
       <use style="stroke:#000000;stroke-width:0.8;" x="777.6" xlink:href="#m828ee2b77e" y="378"/>
      </g>
     </g>
     <g id="text_5">
      <!-- 2023 -->
      <g transform="translate(764.875 392.598437)scale(0.1 -0.1)">
       <defs>
        <path d="M 2597 2516 
Q 3050 2419 3304 2112 
Q 3559 1806 3559 1356 
Q 3559 666 3084 287 
Q 2609 -91 1734 -91 
Q 1441 -91 1130 -33 
Q 819 25 488 141 
L 488 750 
Q 750 597 1062 519 
Q 1375 441 1716 441 
Q 2309 441 2620 675 
Q 2931 909 2931 1356 
Q 2931 1769 2642 2001 
Q 2353 2234 1838 2234 
L 1294 2234 
L 1294 2753 
L 1863 2753 
Q 2328 2753 2575 2939 
Q 2822 3125 2822 3475 
Q 2822 3834 2567 4026 
Q 2313 4219 1838 4219 
Q 1578 4219 1281 4162 
Q 984 4106 628 3988 
L 628 4550 
Q 988 4650 1302 4700 
Q 1616 4750 1894 4750 
Q 2613 4750 3031 4423 
Q 3450 4097 3450 3541 
Q 3450 3153 3228 2886 
Q 3006 2619 2597 2516 
z
" id="DejaVuSans-33" transform="scale(0.015625)"/>
       </defs>
       <use xlink:href="#DejaVuSans-32"/>
       <use x="63.623047" xlink:href="#DejaVuSans-30"/>
       <use x="127.246094" xlink:href="#DejaVuSans-32"/>
       <use x="190.869141" xlink:href="#DejaVuSans-33"/>
      </g>
     </g>
    </g>
    <g id="xtick_6">
     <g id="line2d_6">
      <defs>
       <path d="M 0 0 
L 0 2 
" id="m318be38e6d" style="stroke:#000000;stroke-width:0.6;"/>
      </defs>
      <g>
       <use style="stroke:#000000;stroke-width:0.6;" x="122.207803" xlink:href="#m318be38e6d" y="378"/>
      </g>
     </g>
    </g>
    <g id="xtick_7">
     <g id="line2d_7">
      <g>
       <use style="stroke:#000000;stroke-width:0.6;" x="135.040657" xlink:href="#m318be38e6d" y="378"/>
      </g>
     </g>
    </g>
    <g id="xtick_8">
     <g id="line2d_8">
      <g>
       <use style="stroke:#000000;stroke-width:0.6;" x="149.24846" xlink:href="#m318be38e6d" y="378"/>
      </g>
     </g>
    </g>
    <g id="xtick_9">
     <g id="line2d_9">
      <g>
       <use style="stroke:#000000;stroke-width:0.6;" x="162.997947" xlink:href="#m318be38e6d" y="378"/>
      </g>
     </g>
    </g>
    <g id="xtick_10">
     <g id="line2d_10">
      <g>
       <use style="stroke:#000000;stroke-width:0.6;" x="177.205749" xlink:href="#m318be38e6d" y="378"/>
      </g>
     </g>
    </g>
    <g id="xtick_11">
     <g id="line2d_11">
      <g>
       <use style="stroke:#000000;stroke-width:0.6;" x="190.955236" xlink:href="#m318be38e6d" y="378"/>
      </g>
     </g>
    </g>
    <g id="xtick_12">
     <g id="line2d_12">
      <g>
       <use style="stroke:#000000;stroke-width:0.6;" x="205.163039" xlink:href="#m318be38e6d" y="378"/>
      </g>
     </g>
    </g>
    <g id="xtick_13">
     <g id="line2d_13">
      <g>
       <use style="stroke:#000000;stroke-width:0.6;" x="219.370842" xlink:href="#m318be38e6d" y="378"/>
      </g>
     </g>
    </g>
    <g id="xtick_14">
     <g id="line2d_14">
      <g>
       <use style="stroke:#000000;stroke-width:0.6;" x="233.120329" xlink:href="#m318be38e6d" y="378"/>
      </g>
     </g>
    </g>
    <g id="xtick_15">
     <g id="line2d_15">
      <g>
       <use style="stroke:#000000;stroke-width:0.6;" x="247.328131" xlink:href="#m318be38e6d" y="378"/>
      </g>
     </g>
    </g>
    <g id="xtick_16">
     <g id="line2d_16">
      <g>
       <use style="stroke:#000000;stroke-width:0.6;" x="261.077618" xlink:href="#m318be38e6d" y="378"/>
      </g>
     </g>
    </g>
    <g id="xtick_17">
     <g id="line2d_17">
      <g>
       <use style="stroke:#000000;stroke-width:0.6;" x="289.493224" xlink:href="#m318be38e6d" y="378"/>
      </g>
     </g>
    </g>
    <g id="xtick_18">
     <g id="line2d_18">
      <g>
       <use style="stroke:#000000;stroke-width:0.6;" x="302.784394" xlink:href="#m318be38e6d" y="378"/>
      </g>
     </g>
    </g>
    <g id="xtick_19">
     <g id="line2d_19">
      <g>
       <use style="stroke:#000000;stroke-width:0.6;" x="316.992197" xlink:href="#m318be38e6d" y="378"/>
      </g>
     </g>
    </g>
    <g id="xtick_20">
     <g id="line2d_20">
      <g>
       <use style="stroke:#000000;stroke-width:0.6;" x="330.741684" xlink:href="#m318be38e6d" y="378"/>
      </g>
     </g>
    </g>
    <g id="xtick_21">
     <g id="line2d_21">
      <g>
       <use style="stroke:#000000;stroke-width:0.6;" x="344.949487" xlink:href="#m318be38e6d" y="378"/>
      </g>
     </g>
    </g>
    <g id="xtick_22">
     <g id="line2d_22">
      <g>
       <use style="stroke:#000000;stroke-width:0.6;" x="358.698973" xlink:href="#m318be38e6d" y="378"/>
      </g>
     </g>
    </g>
    <g id="xtick_23">
     <g id="line2d_23">
      <g>
       <use style="stroke:#000000;stroke-width:0.6;" x="372.906776" xlink:href="#m318be38e6d" y="378"/>
      </g>
     </g>
    </g>
    <g id="xtick_24">
     <g id="line2d_24">
      <g>
       <use style="stroke:#000000;stroke-width:0.6;" x="387.114579" xlink:href="#m318be38e6d" y="378"/>
      </g>
     </g>
    </g>
    <g id="xtick_25">
     <g id="line2d_25">
      <g>
       <use style="stroke:#000000;stroke-width:0.6;" x="400.864066" xlink:href="#m318be38e6d" y="378"/>
      </g>
     </g>
    </g>
    <g id="xtick_26">
     <g id="line2d_26">
      <g>
       <use style="stroke:#000000;stroke-width:0.6;" x="415.071869" xlink:href="#m318be38e6d" y="378"/>
      </g>
     </g>
    </g>
    <g id="xtick_27">
     <g id="line2d_27">
      <g>
       <use style="stroke:#000000;stroke-width:0.6;" x="428.821355" xlink:href="#m318be38e6d" y="378"/>
      </g>
     </g>
    </g>
    <g id="xtick_28">
     <g id="line2d_28">
      <g>
       <use style="stroke:#000000;stroke-width:0.6;" x="457.236961" xlink:href="#m318be38e6d" y="378"/>
      </g>
     </g>
    </g>
    <g id="xtick_29">
     <g id="line2d_29">
      <g>
       <use style="stroke:#000000;stroke-width:0.6;" x="470.069815" xlink:href="#m318be38e6d" y="378"/>
      </g>
     </g>
    </g>
    <g id="xtick_30">
     <g id="line2d_30">
      <g>
       <use style="stroke:#000000;stroke-width:0.6;" x="484.277618" xlink:href="#m318be38e6d" y="378"/>
      </g>
     </g>
    </g>
    <g id="xtick_31">
     <g id="line2d_31">
      <g>
       <use style="stroke:#000000;stroke-width:0.6;" x="498.027105" xlink:href="#m318be38e6d" y="378"/>
      </g>
     </g>
    </g>
    <g id="xtick_32">
     <g id="line2d_32">
      <g>
       <use style="stroke:#000000;stroke-width:0.6;" x="512.234908" xlink:href="#m318be38e6d" y="378"/>
      </g>
     </g>
    </g>
    <g id="xtick_33">
     <g id="line2d_33">
      <g>
       <use style="stroke:#000000;stroke-width:0.6;" x="525.984394" xlink:href="#m318be38e6d" y="378"/>
      </g>
     </g>
    </g>
    <g id="xtick_34">
     <g id="line2d_34">
      <g>
       <use style="stroke:#000000;stroke-width:0.6;" x="540.192197" xlink:href="#m318be38e6d" y="378"/>
      </g>
     </g>
    </g>
    <g id="xtick_35">
     <g id="line2d_35">
      <g>
       <use style="stroke:#000000;stroke-width:0.6;" x="554.4" xlink:href="#m318be38e6d" y="378"/>
      </g>
     </g>
    </g>
    <g id="xtick_36">
     <g id="line2d_36">
      <g>
       <use style="stroke:#000000;stroke-width:0.6;" x="568.149487" xlink:href="#m318be38e6d" y="378"/>
      </g>
     </g>
    </g>
    <g id="xtick_37">
     <g id="line2d_37">
      <g>
       <use style="stroke:#000000;stroke-width:0.6;" x="582.35729" xlink:href="#m318be38e6d" y="378"/>
      </g>
     </g>
    </g>
    <g id="xtick_38">
     <g id="line2d_38">
      <g>
       <use style="stroke:#000000;stroke-width:0.6;" x="596.106776" xlink:href="#m318be38e6d" y="378"/>
      </g>
     </g>
    </g>
    <g id="xtick_39">
     <g id="line2d_39">
      <g>
       <use style="stroke:#000000;stroke-width:0.6;" x="624.522382" xlink:href="#m318be38e6d" y="378"/>
      </g>
     </g>
    </g>
    <g id="xtick_40">
     <g id="line2d_40">
      <g>
       <use style="stroke:#000000;stroke-width:0.6;" x="637.355236" xlink:href="#m318be38e6d" y="378"/>
      </g>
     </g>
    </g>
    <g id="xtick_41">
     <g id="line2d_41">
      <g>
       <use style="stroke:#000000;stroke-width:0.6;" x="651.563039" xlink:href="#m318be38e6d" y="378"/>
      </g>
     </g>
    </g>
    <g id="xtick_42">
     <g id="line2d_42">
      <g>
       <use style="stroke:#000000;stroke-width:0.6;" x="665.312526" xlink:href="#m318be38e6d" y="378"/>
      </g>
     </g>
    </g>
    <g id="xtick_43">
     <g id="line2d_43">
      <g>
       <use style="stroke:#000000;stroke-width:0.6;" x="679.520329" xlink:href="#m318be38e6d" y="378"/>
      </g>
     </g>
    </g>
    <g id="xtick_44">
     <g id="line2d_44">
      <g>
       <use style="stroke:#000000;stroke-width:0.6;" x="693.269815" xlink:href="#m318be38e6d" y="378"/>
      </g>
     </g>
    </g>
    <g id="xtick_45">
     <g id="line2d_45">
      <g>
       <use style="stroke:#000000;stroke-width:0.6;" x="707.477618" xlink:href="#m318be38e6d" y="378"/>
      </g>
     </g>
    </g>
    <g id="xtick_46">
     <g id="line2d_46">
      <g>
       <use style="stroke:#000000;stroke-width:0.6;" x="721.685421" xlink:href="#m318be38e6d" y="378"/>
      </g>
     </g>
    </g>
    <g id="xtick_47">
     <g id="line2d_47">
      <g>
       <use style="stroke:#000000;stroke-width:0.6;" x="735.434908" xlink:href="#m318be38e6d" y="378"/>
      </g>
     </g>
    </g>
    <g id="xtick_48">
     <g id="line2d_48">
      <g>
       <use style="stroke:#000000;stroke-width:0.6;" x="749.64271" xlink:href="#m318be38e6d" y="378"/>
      </g>
     </g>
    </g>
    <g id="xtick_49">
     <g id="line2d_49">
      <g>
       <use style="stroke:#000000;stroke-width:0.6;" x="763.392197" xlink:href="#m318be38e6d" y="378"/>
      </g>
     </g>
    </g>
    <g id="text_6">
     <!-- Date -->
     <g transform="translate(430.849219 406.276563)scale(0.1 -0.1)">
      <defs>
       <path d="M 1259 4147 
L 1259 519 
L 2022 519 
Q 2988 519 3436 956 
Q 3884 1394 3884 2338 
Q 3884 3275 3436 3711 
Q 2988 4147 2022 4147 
L 1259 4147 
z
M 628 4666 
L 1925 4666 
Q 3281 4666 3915 4102 
Q 4550 3538 4550 2338 
Q 4550 1131 3912 565 
Q 3275 0 1925 0 
L 628 0 
L 628 4666 
z
" id="DejaVuSans-44" transform="scale(0.015625)"/>
       <path d="M 2194 1759 
Q 1497 1759 1228 1600 
Q 959 1441 959 1056 
Q 959 750 1161 570 
Q 1363 391 1709 391 
Q 2188 391 2477 730 
Q 2766 1069 2766 1631 
L 2766 1759 
L 2194 1759 
z
M 3341 1997 
L 3341 0 
L 2766 0 
L 2766 531 
Q 2569 213 2275 61 
Q 1981 -91 1556 -91 
Q 1019 -91 701 211 
Q 384 513 384 1019 
Q 384 1609 779 1909 
Q 1175 2209 1959 2209 
L 2766 2209 
L 2766 2266 
Q 2766 2663 2505 2880 
Q 2244 3097 1772 3097 
Q 1472 3097 1187 3025 
Q 903 2953 641 2809 
L 641 3341 
Q 956 3463 1253 3523 
Q 1550 3584 1831 3584 
Q 2591 3584 2966 3190 
Q 3341 2797 3341 1997 
z
" id="DejaVuSans-61" transform="scale(0.015625)"/>
       <path d="M 1172 4494 
L 1172 3500 
L 2356 3500 
L 2356 3053 
L 1172 3053 
L 1172 1153 
Q 1172 725 1289 603 
Q 1406 481 1766 481 
L 2356 481 
L 2356 0 
L 1766 0 
Q 1100 0 847 248 
Q 594 497 594 1153 
L 594 3053 
L 172 3053 
L 172 3500 
L 594 3500 
L 594 4494 
L 1172 4494 
z
" id="DejaVuSans-74" transform="scale(0.015625)"/>
       <path d="M 3597 1894 
L 3597 1613 
L 953 1613 
Q 991 1019 1311 708 
Q 1631 397 2203 397 
Q 2534 397 2845 478 
Q 3156 559 3463 722 
L 3463 178 
Q 3153 47 2828 -22 
Q 2503 -91 2169 -91 
Q 1331 -91 842 396 
Q 353 884 353 1716 
Q 353 2575 817 3079 
Q 1281 3584 2069 3584 
Q 2775 3584 3186 3129 
Q 3597 2675 3597 1894 
z
M 3022 2063 
Q 3016 2534 2758 2815 
Q 2500 3097 2075 3097 
Q 1594 3097 1305 2825 
Q 1016 2553 972 2059 
L 3022 2063 
z
" id="DejaVuSans-65" transform="scale(0.015625)"/>
      </defs>
      <use xlink:href="#DejaVuSans-44"/>
      <use x="77.001953" xlink:href="#DejaVuSans-61"/>
      <use x="138.28125" xlink:href="#DejaVuSans-74"/>
      <use x="177.490234" xlink:href="#DejaVuSans-65"/>
     </g>
    </g>
   </g>
   <g id="matplotlib.axis_2">
    <g id="ytick_1">
     <g id="line2d_50">
      <defs>
       <path d="M 0 0 
L -3.5 0 
" id="m51bcad2200" style="stroke:#000000;stroke-width:0.8;"/>
      </defs>
      <g>
       <use style="stroke:#000000;stroke-width:0.8;" x="108" xlink:href="#m51bcad2200" y="363.174545"/>
      </g>
     </g>
     <g id="text_7">
      <!-- 0 -->
      <g transform="translate(94.6375 366.973764)scale(0.1 -0.1)">
       <use xlink:href="#DejaVuSans-30"/>
      </g>
     </g>
    </g>
    <g id="ytick_2">
     <g id="line2d_51">
      <g>
       <use style="stroke:#000000;stroke-width:0.8;" x="108" xlink:href="#m51bcad2200" y="310.485739"/>
      </g>
     </g>
     <g id="text_8">
      <!-- 5000 -->
      <g transform="translate(75.55 314.284958)scale(0.1 -0.1)">
       <defs>
        <path d="M 691 4666 
L 3169 4666 
L 3169 4134 
L 1269 4134 
L 1269 2991 
Q 1406 3038 1543 3061 
Q 1681 3084 1819 3084 
Q 2600 3084 3056 2656 
Q 3513 2228 3513 1497 
Q 3513 744 3044 326 
Q 2575 -91 1722 -91 
Q 1428 -91 1123 -41 
Q 819 9 494 109 
L 494 744 
Q 775 591 1075 516 
Q 1375 441 1709 441 
Q 2250 441 2565 725 
Q 2881 1009 2881 1497 
Q 2881 1984 2565 2268 
Q 2250 2553 1709 2553 
Q 1456 2553 1204 2497 
Q 953 2441 691 2322 
L 691 4666 
z
" id="DejaVuSans-35" transform="scale(0.015625)"/>
       </defs>
       <use xlink:href="#DejaVuSans-35"/>
       <use x="63.623047" xlink:href="#DejaVuSans-30"/>
       <use x="127.246094" xlink:href="#DejaVuSans-30"/>
       <use x="190.869141" xlink:href="#DejaVuSans-30"/>
      </g>
     </g>
    </g>
    <g id="ytick_3">
     <g id="line2d_52">
      <g>
       <use style="stroke:#000000;stroke-width:0.8;" x="108" xlink:href="#m51bcad2200" y="257.796932"/>
      </g>
     </g>
     <g id="text_9">
      <!-- 10000 -->
      <g transform="translate(69.1875 261.596151)scale(0.1 -0.1)">
       <use xlink:href="#DejaVuSans-31"/>
       <use x="63.623047" xlink:href="#DejaVuSans-30"/>
       <use x="127.246094" xlink:href="#DejaVuSans-30"/>
       <use x="190.869141" xlink:href="#DejaVuSans-30"/>
       <use x="254.492188" xlink:href="#DejaVuSans-30"/>
      </g>
     </g>
    </g>
    <g id="ytick_4">
     <g id="line2d_53">
      <g>
       <use style="stroke:#000000;stroke-width:0.8;" x="108" xlink:href="#m51bcad2200" y="205.108126"/>
      </g>
     </g>
     <g id="text_10">
      <!-- 15000 -->
      <g transform="translate(69.1875 208.907345)scale(0.1 -0.1)">
       <use xlink:href="#DejaVuSans-31"/>
       <use x="63.623047" xlink:href="#DejaVuSans-35"/>
       <use x="127.246094" xlink:href="#DejaVuSans-30"/>
       <use x="190.869141" xlink:href="#DejaVuSans-30"/>
       <use x="254.492188" xlink:href="#DejaVuSans-30"/>
      </g>
     </g>
    </g>
    <g id="ytick_5">
     <g id="line2d_54">
      <g>
       <use style="stroke:#000000;stroke-width:0.8;" x="108" xlink:href="#m51bcad2200" y="152.419319"/>
      </g>
     </g>
     <g id="text_11">
      <!-- 20000 -->
      <g transform="translate(69.1875 156.218538)scale(0.1 -0.1)">
       <use xlink:href="#DejaVuSans-32"/>
       <use x="63.623047" xlink:href="#DejaVuSans-30"/>
       <use x="127.246094" xlink:href="#DejaVuSans-30"/>
       <use x="190.869141" xlink:href="#DejaVuSans-30"/>
       <use x="254.492188" xlink:href="#DejaVuSans-30"/>
      </g>
     </g>
    </g>
    <g id="ytick_6">
     <g id="line2d_55">
      <g>
       <use style="stroke:#000000;stroke-width:0.8;" x="108" xlink:href="#m51bcad2200" y="99.730513"/>
      </g>
     </g>
     <g id="text_12">
      <!-- 25000 -->
      <g transform="translate(69.1875 103.529731)scale(0.1 -0.1)">
       <use xlink:href="#DejaVuSans-32"/>
       <use x="63.623047" xlink:href="#DejaVuSans-35"/>
       <use x="127.246094" xlink:href="#DejaVuSans-30"/>
       <use x="190.869141" xlink:href="#DejaVuSans-30"/>
       <use x="254.492188" xlink:href="#DejaVuSans-30"/>
      </g>
     </g>
    </g>
    <g id="text_13">
     <!-- Light intensity (lumen/ft2) -->
     <g transform="translate(63.107812 280.32625)rotate(-90)scale(0.1 -0.1)">
      <defs>
       <path d="M 628 4666 
L 1259 4666 
L 1259 531 
L 3531 531 
L 3531 0 
L 628 0 
L 628 4666 
z
" id="DejaVuSans-4c" transform="scale(0.015625)"/>
       <path d="M 603 3500 
L 1178 3500 
L 1178 0 
L 603 0 
L 603 3500 
z
M 603 4863 
L 1178 4863 
L 1178 4134 
L 603 4134 
L 603 4863 
z
" id="DejaVuSans-69" transform="scale(0.015625)"/>
       <path d="M 2906 1791 
Q 2906 2416 2648 2759 
Q 2391 3103 1925 3103 
Q 1463 3103 1205 2759 
Q 947 2416 947 1791 
Q 947 1169 1205 825 
Q 1463 481 1925 481 
Q 2391 481 2648 825 
Q 2906 1169 2906 1791 
z
M 3481 434 
Q 3481 -459 3084 -895 
Q 2688 -1331 1869 -1331 
Q 1566 -1331 1297 -1286 
Q 1028 -1241 775 -1147 
L 775 -588 
Q 1028 -725 1275 -790 
Q 1522 -856 1778 -856 
Q 2344 -856 2625 -561 
Q 2906 -266 2906 331 
L 2906 616 
Q 2728 306 2450 153 
Q 2172 0 1784 0 
Q 1141 0 747 490 
Q 353 981 353 1791 
Q 353 2603 747 3093 
Q 1141 3584 1784 3584 
Q 2172 3584 2450 3431 
Q 2728 3278 2906 2969 
L 2906 3500 
L 3481 3500 
L 3481 434 
z
" id="DejaVuSans-67" transform="scale(0.015625)"/>
       <path d="M 3513 2113 
L 3513 0 
L 2938 0 
L 2938 2094 
Q 2938 2591 2744 2837 
Q 2550 3084 2163 3084 
Q 1697 3084 1428 2787 
Q 1159 2491 1159 1978 
L 1159 0 
L 581 0 
L 581 4863 
L 1159 4863 
L 1159 2956 
Q 1366 3272 1645 3428 
Q 1925 3584 2291 3584 
Q 2894 3584 3203 3211 
Q 3513 2838 3513 2113 
z
" id="DejaVuSans-68" transform="scale(0.015625)"/>
       <path id="DejaVuSans-20" transform="scale(0.015625)"/>
       <path d="M 3513 2113 
L 3513 0 
L 2938 0 
L 2938 2094 
Q 2938 2591 2744 2837 
Q 2550 3084 2163 3084 
Q 1697 3084 1428 2787 
Q 1159 2491 1159 1978 
L 1159 0 
L 581 0 
L 581 3500 
L 1159 3500 
L 1159 2956 
Q 1366 3272 1645 3428 
Q 1925 3584 2291 3584 
Q 2894 3584 3203 3211 
Q 3513 2838 3513 2113 
z
" id="DejaVuSans-6e" transform="scale(0.015625)"/>
       <path d="M 2834 3397 
L 2834 2853 
Q 2591 2978 2328 3040 
Q 2066 3103 1784 3103 
Q 1356 3103 1142 2972 
Q 928 2841 928 2578 
Q 928 2378 1081 2264 
Q 1234 2150 1697 2047 
L 1894 2003 
Q 2506 1872 2764 1633 
Q 3022 1394 3022 966 
Q 3022 478 2636 193 
Q 2250 -91 1575 -91 
Q 1294 -91 989 -36 
Q 684 19 347 128 
L 347 722 
Q 666 556 975 473 
Q 1284 391 1588 391 
Q 1994 391 2212 530 
Q 2431 669 2431 922 
Q 2431 1156 2273 1281 
Q 2116 1406 1581 1522 
L 1381 1569 
Q 847 1681 609 1914 
Q 372 2147 372 2553 
Q 372 3047 722 3315 
Q 1072 3584 1716 3584 
Q 2034 3584 2315 3537 
Q 2597 3491 2834 3397 
z
" id="DejaVuSans-73" transform="scale(0.015625)"/>
       <path d="M 2059 -325 
Q 1816 -950 1584 -1140 
Q 1353 -1331 966 -1331 
L 506 -1331 
L 506 -850 
L 844 -850 
Q 1081 -850 1212 -737 
Q 1344 -625 1503 -206 
L 1606 56 
L 191 3500 
L 800 3500 
L 1894 763 
L 2988 3500 
L 3597 3500 
L 2059 -325 
z
" id="DejaVuSans-79" transform="scale(0.015625)"/>
       <path d="M 1984 4856 
Q 1566 4138 1362 3434 
Q 1159 2731 1159 2009 
Q 1159 1288 1364 580 
Q 1569 -128 1984 -844 
L 1484 -844 
Q 1016 -109 783 600 
Q 550 1309 550 2009 
Q 550 2706 781 3412 
Q 1013 4119 1484 4856 
L 1984 4856 
z
" id="DejaVuSans-28" transform="scale(0.015625)"/>
       <path d="M 603 4863 
L 1178 4863 
L 1178 0 
L 603 0 
L 603 4863 
z
" id="DejaVuSans-6c" transform="scale(0.015625)"/>
       <path d="M 544 1381 
L 544 3500 
L 1119 3500 
L 1119 1403 
Q 1119 906 1312 657 
Q 1506 409 1894 409 
Q 2359 409 2629 706 
Q 2900 1003 2900 1516 
L 2900 3500 
L 3475 3500 
L 3475 0 
L 2900 0 
L 2900 538 
Q 2691 219 2414 64 
Q 2138 -91 1772 -91 
Q 1169 -91 856 284 
Q 544 659 544 1381 
z
M 1991 3584 
L 1991 3584 
z
" id="DejaVuSans-75" transform="scale(0.015625)"/>
       <path d="M 3328 2828 
Q 3544 3216 3844 3400 
Q 4144 3584 4550 3584 
Q 5097 3584 5394 3201 
Q 5691 2819 5691 2113 
L 5691 0 
L 5113 0 
L 5113 2094 
Q 5113 2597 4934 2840 
Q 4756 3084 4391 3084 
Q 3944 3084 3684 2787 
Q 3425 2491 3425 1978 
L 3425 0 
L 2847 0 
L 2847 2094 
Q 2847 2600 2669 2842 
Q 2491 3084 2119 3084 
Q 1678 3084 1418 2786 
Q 1159 2488 1159 1978 
L 1159 0 
L 581 0 
L 581 3500 
L 1159 3500 
L 1159 2956 
Q 1356 3278 1631 3431 
Q 1906 3584 2284 3584 
Q 2666 3584 2933 3390 
Q 3200 3197 3328 2828 
z
" id="DejaVuSans-6d" transform="scale(0.015625)"/>
       <path d="M 1625 4666 
L 2156 4666 
L 531 -594 
L 0 -594 
L 1625 4666 
z
" id="DejaVuSans-2f" transform="scale(0.015625)"/>
       <path d="M 2375 4863 
L 2375 4384 
L 1825 4384 
Q 1516 4384 1395 4259 
Q 1275 4134 1275 3809 
L 1275 3500 
L 2222 3500 
L 2222 3053 
L 1275 3053 
L 1275 0 
L 697 0 
L 697 3053 
L 147 3053 
L 147 3500 
L 697 3500 
L 697 3744 
Q 697 4328 969 4595 
Q 1241 4863 1831 4863 
L 2375 4863 
z
" id="DejaVuSans-66" transform="scale(0.015625)"/>
       <path d="M 513 4856 
L 1013 4856 
Q 1481 4119 1714 3412 
Q 1947 2706 1947 2009 
Q 1947 1309 1714 600 
Q 1481 -109 1013 -844 
L 513 -844 
Q 928 -128 1133 580 
Q 1338 1288 1338 2009 
Q 1338 2731 1133 3434 
Q 928 4138 513 4856 
z
" id="DejaVuSans-29" transform="scale(0.015625)"/>
      </defs>
      <use xlink:href="#DejaVuSans-4c"/>
      <use x="55.712891" xlink:href="#DejaVuSans-69"/>
      <use x="83.496094" xlink:href="#DejaVuSans-67"/>
      <use x="146.972656" xlink:href="#DejaVuSans-68"/>
      <use x="210.351562" xlink:href="#DejaVuSans-74"/>
      <use x="249.560547" xlink:href="#DejaVuSans-20"/>
      <use x="281.347656" xlink:href="#DejaVuSans-69"/>
      <use x="309.130859" xlink:href="#DejaVuSans-6e"/>
      <use x="372.509766" xlink:href="#DejaVuSans-74"/>
      <use x="411.71875" xlink:href="#DejaVuSans-65"/>
      <use x="473.242188" xlink:href="#DejaVuSans-6e"/>
      <use x="536.621094" xlink:href="#DejaVuSans-73"/>
      <use x="588.720703" xlink:href="#DejaVuSans-69"/>
      <use x="616.503906" xlink:href="#DejaVuSans-74"/>
      <use x="655.712891" xlink:href="#DejaVuSans-79"/>
      <use x="714.892578" xlink:href="#DejaVuSans-20"/>
      <use x="746.679688" xlink:href="#DejaVuSans-28"/>
      <use x="785.693359" xlink:href="#DejaVuSans-6c"/>
      <use x="813.476562" xlink:href="#DejaVuSans-75"/>
      <use x="876.855469" xlink:href="#DejaVuSans-6d"/>
      <use x="974.267578" xlink:href="#DejaVuSans-65"/>
      <use x="1035.791016" xlink:href="#DejaVuSans-6e"/>
      <use x="1099.169922" xlink:href="#DejaVuSans-2f"/>
      <use x="1132.861328" xlink:href="#DejaVuSans-66"/>
      <use x="1166.316406" xlink:href="#DejaVuSans-74"/>
      <use x="1205.525391" xlink:href="#DejaVuSans-32"/>
      <use x="1269.148438" xlink:href="#DejaVuSans-29"/>
     </g>
    </g>
   </g>
   <g id="line2d_56">
    <path clip-path="url(#padeb267ae8)" d="M 149.24846 350.539658 
L 149.706776 349.335771 
L 150.165092 344.465078 
L 150.623409 337.546059 
L 151.540041 333.211147 
L 151.998357 332.577918 
L 152.456674 328.163523 
L 152.91499 329.887905 
L 153.373306 333.877932 
L 153.831622 339.739696 
L 154.289938 341.612785 
L 154.748255 342.338423 
L 155.206571 344.9623 
L 155.664887 349.412736 
L 156.123203 347.815285 
L 157.039836 334.8715 
L 157.956468 328.623707 
L 158.414784 329.813243 
L 158.873101 327.313822 
L 159.331417 322.75896 
L 159.789733 320.848625 
L 160.248049 314.264316 
L 160.706366 311.158087 
L 161.164682 305.793922 
L 161.622998 306.894167 
L 162.081314 311.144189 
L 162.997947 325.894503 
L 163.456263 339.998624 
L 163.914579 350.070407 
L 164.372895 363.156147 
L 166.20616 363.090543 
L 166.664476 357.648059 
L 168.956057 357.547683 
L 169.414374 357.593539 
L 169.87269 362.994838 
L 171.247639 362.938686 
L 171.705955 360.815503 
L 172.164271 360.677994 
L 172.622587 353.545786 
L 173.080903 348.941749 
L 173.997536 335.120525 
L 174.455852 325.520009 
L 174.914168 327.389272 
L 175.372485 327.206976 
L 175.830801 333.994117 
L 176.289117 337.775685 
L 177.205749 349.8687 
L 177.664066 358.982869 
L 178.122382 358.39429 
L 179.039014 356.558673 
L 179.497331 356.731516 
L 179.955647 357.20391 
L 180.413963 358.121184 
L 180.872279 358.618165 
L 181.330595 359.462295 
L 182.247228 362.063273 
L 182.705544 362.754084 
L 183.16386 363.174545 
L 201.038193 363.174545 
L 201.496509 361.74819 
L 202.413142 361.177648 
L 202.871458 360.678424 
L 203.329774 359.846384 
L 203.78809 358.182303 
L 204.246407 353.190061 
M 232.203696 363.174545 
L 252.827926 363.174545 
M 269.785626 358.039833 
L 270.243943 356.344169 
L 271.160575 357.302331 
L 271.618891 356.445223 
L 272.535524 355.97458 
L 272.99384 355.830052 
L 273.452156 356.846351 
L 273.910472 357.422271 
L 274.368789 357.643558 
L 275.285421 359.525761 
L 275.743737 359.997367 
L 276.202053 359.714977 
L 278.493634 356.644307 
L 278.951951 356.35179 
L 279.410267 356.257604 
L 279.868583 356.46218 
L 280.326899 356.373226 
L 281.243532 358.750835 
L 281.701848 359.489133 
L 283.076797 362.387804 
L 283.535113 363.174039 
L 289.493224 363.174545 
L 289.95154 362.997346 
L 292.701437 362.997346 
L 293.159754 363.174545 
L 322.491992 363.174545 
L 322.950308 362.935578 
L 323.408624 362.379239 
L 325.700205 362.378901 
L 326.158522 362.617868 
L 326.616838 363.174208 
L 335.783162 363.174545 
M 372.44846 356.323466 
L 372.906776 332.404476 
L 373.365092 314.913728 
L 374.281725 304.775098 
L 375.656674 282.661436 
L 376.11499 279.192584 
L 376.573306 279.115446 
L 377.489938 271.480124 
L 377.948255 271.874929 
L 378.406571 274.01471 
L 378.864887 277.33772 
L 379.323203 278.813134 
L 379.78152 278.964372 
L 380.239836 282.268652 
L 381.156468 291.778244 
L 381.614784 294.334267 
L 382.073101 291.430536 
L 382.531417 289.309829 
L 382.989733 291.396103 
L 383.448049 285.159394 
L 383.906366 283.308586 
L 384.364682 287.795593 
L 384.822998 290.996402 
L 385.281314 293.131795 
L 385.73963 294.084965 
L 386.197947 292.982245 
L 386.656263 303.790525 
L 387.114579 306.096229 
L 387.572895 310.298652 
L 388.489528 324.169502 
L 389.40616 345.614739 
L 389.864476 351.933312 
L 390.322793 360.016103 
L 390.781109 360.188102 
L 391.239425 359.674636 
L 391.697741 358.753199 
L 392.156057 355.864274 
L 394.447639 281.544831 
L 395.364271 267.175919 
L 395.822587 264.671209 
L 396.280903 263.886325 
L 396.73922 264.562844 
L 397.197536 263.036118 
L 397.655852 260.904777 
L 398.114168 255.404678 
L 398.572485 251.379655 
L 399.030801 254.779808 
L 399.489117 256.461149 
L 399.947433 257.716458 
L 400.405749 257.862463 
L 400.864066 260.455282 
L 401.322382 264.130567 
L 401.780698 264.392364 
L 402.239014 265.484788 
L 402.697331 267.002063 
L 403.155647 265.127624 
L 403.613963 266.506151 
L 404.072279 268.314456 
L 404.530595 267.304403 
L 404.988912 263.147722 
L 405.447228 260.974183 
L 405.905544 253.825489 
L 406.36386 249.677248 
L 406.822177 248.5882 
L 407.280493 244.671172 
L 407.738809 235.423376 
L 408.197125 233.220974 
L 408.655441 230.158743 
L 409.113758 238.489152 
L 409.572074 239.245679 
L 410.03039 234.255839 
L 410.488706 238.019065 
L 410.947023 248.608591 
L 411.863655 276.888906 
L 412.321971 272.724461 
L 412.780287 276.032623 
L 413.238604 284.559 
L 413.69692 286.270217 
L 414.155236 285.789665 
L 414.613552 273.913266 
L 415.071869 264.92828 
L 415.530185 267.637397 
L 415.988501 271.040082 
L 416.446817 273.539222 
L 416.905133 274.028551 
L 417.36345 280.318767 
L 417.821766 288.622169 
L 418.738398 311.468214 
L 419.655031 325.923929 
L 420.571663 333.383201 
L 421.029979 340.721786 
L 421.488296 341.861304 
L 421.946612 340.568692 
L 422.404928 340.686846 
L 422.863244 342.533603 
L 423.321561 345.888352 
L 423.779877 342.027564 
L 424.696509 331.09809 
L 425.154825 332.304787 
L 426.071458 324.127472 
L 426.529774 326.473011 
L 426.98809 323.735874 
L 427.446407 322.120531 
L 427.904723 316.580523 
L 427.904723 316.580523 
" style="fill:none;stroke:#1f77b4;stroke-linecap:square;stroke-width:1.5;"/>
   </g>
   <g id="line2d_57">
    <path clip-path="url(#padeb267ae8)" d="M 140.998768 362.658446 
L 142.373717 354.698288 
L 142.832033 353.75491 
L 143.290349 353.077285 
L 143.748665 352.757503 
L 144.206982 352.031324 
L 144.665298 352.395691 
L 145.123614 353.340028 
L 145.58193 355.228927 
L 146.956879 358.56944 
L 147.873511 359.071991 
L 148.331828 359.220641 
L 148.790144 358.459781 
L 149.24846 358.451229 
L 149.706776 358.889358 
L 150.165092 359.036038 
L 151.081725 358.556499 
L 151.540041 358.587895 
L 151.998357 358.875742 
L 152.91499 359.076211 
L 153.373306 359.424711 
L 153.831622 359.626361 
L 154.289938 359.456331 
L 154.748255 359.422685 
L 155.206571 359.657588 
L 155.664887 360.146579 
L 156.123203 360.006932 
L 156.58152 359.360513 
L 157.956468 359.35033 
L 158.414784 359.46297 
L 158.873101 359.269647 
L 159.331417 358.828255 
L 159.789733 358.809406 
L 160.706366 357.885943 
L 161.622998 356.025795 
L 162.081314 355.118311 
L 162.53963 355.060472 
L 163.456263 353.9501 
L 163.914579 353.520692 
L 164.372895 353.328494 
L 164.831211 352.7555 
L 165.289528 352.501636 
L 165.747844 352.813564 
L 166.664476 352.668797 
L 167.122793 352.388433 
L 167.581109 352.339202 
L 168.039425 351.61075 
L 168.497741 351.356661 
L 168.956057 349.93211 
L 169.414374 350.32669 
L 170.789322 355.25312 
L 171.247639 357.35481 
L 171.705955 358.514582 
L 172.164271 360.23182 
L 172.622587 360.985984 
L 173.53922 360.67383 
L 174.455852 360.036077 
L 174.914168 360.386715 
L 175.372485 359.96614 
L 176.289117 358.528367 
L 176.747433 358.321203 
L 177.664066 358.65935 
L 179.039014 357.422721 
L 179.497331 358.226173 
L 179.955647 358.400816 
L 180.413963 358.343371 
L 180.872279 358.138963 
L 181.788912 358.284631 
L 182.247228 358.697835 
L 182.705544 358.43857 
L 183.622177 358.518352 
L 184.080493 358.785269 
L 184.538809 359.225254 
L 185.455441 360.577788 
L 185.913758 360.913797 
L 187.288706 360.781464 
L 187.747023 360.632983 
L 188.663655 360.069948 
L 189.580287 359.947967 
L 190.038604 359.874261 
L 190.49692 360.075912 
L 190.955236 360.137408 
L 191.871869 359.69973 
L 192.788501 359.768034 
L 193.246817 359.608301 
L 193.705133 359.60982 
L 194.621766 360.043278 
L 195.080082 359.847198 
L 195.538398 359.240502 
L 195.996715 358.997666 
L 196.455031 359.475292 
L 197.371663 358.857512 
L 197.829979 358.672741 
L 198.746612 359.235495 
L 199.204928 359.203818 
L 199.663244 358.702898 
L 200.121561 358.720228 
L 200.579877 358.557624 
L 201.038193 358.630149 
L 201.496509 357.037885 
L 202.413142 356.367828 
L 202.871458 355.869554 
L 203.329774 354.909258 
L 203.78809 353.242305 
L 204.246407 347.909824 
M 217.079261 260.200867 
L 217.537577 246.82494 
L 217.995893 246.294151 
L 218.454209 240.298257 
L 218.912526 238.835775 
L 220.745791 226.049155 
L 221.204107 224.756543 
L 221.662423 232.402668 
L 222.120739 234.178026 
L 222.579055 242.392306 
L 223.037372 245.647298 
L 223.495688 253.494117 
L 223.954004 268.046381 
L 224.41232 273.334814 
L 224.870637 271.209381 
L 225.328953 271.327536 
L 225.787269 267.247149 
L 226.245585 277.171802 
L 226.703901 272.884308 
L 227.162218 266.583289 
L 227.620534 266.567929 
L 228.07885 278.47201 
L 228.537166 282.543788 
L 228.995483 285.505587 
L 229.453799 280.813835 
L 229.912115 280.784127 
L 230.370431 281.66151 
L 230.828747 280.664454 
L 231.287064 275.677483 
L 232.203696 296.214449 
L 232.662012 299.098436 
L 233.578645 306.230588 
L 234.036961 308.373407 
L 234.495277 312.026917 
L 235.41191 295.183466 
L 235.870226 293.68037 
L 236.328542 294.598804 
L 237.245175 315.184382 
L 237.703491 318.582679 
L 239.536756 359.307513 
L 239.995072 359.062426 
L 241.370021 360.006482 
L 242.744969 361.236134 
L 243.203285 361.595493 
L 243.661602 361.712128 
L 244.119918 361.988948 
L 245.03655 362.061697 
L 246.869815 362.261548 
L 248.244764 362.161623 
L 249.161396 362.011566 
L 249.619713 362.046844 
L 250.078029 361.767078 
L 251.452977 343.651101 
L 253.286242 323.86078 
L 253.744559 325.471059 
L 255.119507 327.786553 
L 255.577823 328.794581 
L 256.03614 332.924255 
L 256.494456 335.526526 
L 256.952772 338.983394 
L 257.411088 340.153462 
L 257.869405 341.814042 
L 258.327721 345.623854 
L 258.786037 347.224681 
L 259.244353 348.396775 
L 259.702669 348.834116 
L 260.160986 349.839105 
L 260.619302 351.296796 
L 261.077618 351.34372 
L 261.535934 349.127983 
L 261.994251 348.224775 
L 262.452567 346.487902 
L 262.910883 346.580231 
L 263.369199 344.079741 
L 263.827515 344.568733 
L 264.285832 346.405194 
L 264.744148 346.638634 
L 265.202464 347.03462 
L 266.119097 348.28706 
L 267.035729 351.258649 
L 267.494045 351.186406 
L 267.952361 351.332918 
L 268.410678 352.025642 
L 268.868994 351.585431 
L 269.785626 349.174754 
L 270.243943 348.167232 
L 270.702259 348.425485 
L 271.160575 349.757594 
L 271.618891 350.102437 
L 272.535524 350.186311 
L 272.99384 350.665513 
L 273.452156 350.695727 
L 273.910472 351.4612 
L 274.368789 350.70923 
L 274.827105 350.906548 
L 275.743737 352.559532 
L 276.202053 352.28305 
L 276.66037 352.477668 
L 278.035318 350.038449 
L 278.493634 349.414593 
L 278.951951 348.602026 
L 279.410267 348.634603 
L 279.868583 349.381003 
L 280.326899 349.085954 
L 280.785216 351.142858 
L 281.243532 353.843366 
L 281.701848 353.010883 
L 282.160164 353.503081 
L 282.61848 355.097662 
L 283.076797 353.471686 
L 283.993429 351.581549 
L 284.451745 349.6428 
L 284.910062 350.440344 
L 285.826694 349.773108 
L 286.743326 351.524497 
L 287.201643 350.277797 
L 287.659959 350.382617 
L 288.118275 349.528527 
L 288.576591 349.214911 
L 289.034908 348.204183 
L 289.493224 346.584789 
L 289.95154 346.575505 
L 290.409856 349.196175 
L 290.868172 350.191881 
L 291.326489 351.98108 
L 291.784805 353.101018 
L 292.701437 356.566325 
L 293.159754 356.598733 
L 295.451335 345.930718 
L 295.909651 345.415395 
L 296.367967 345.932406 
L 297.742916 344.327191 
L 298.201232 344.570252 
L 298.659548 343.74874 
L 299.117864 342.547782 
L 299.576181 339.689621 
L 300.034497 339.811489 
L 300.492813 340.157057 
L 301.409446 337.900809 
L 301.867762 336.992875 
L 302.326078 337.842576 
L 302.784394 341.289653 
L 303.24271 340.927594 
L 303.701027 341.377713 
L 304.159343 341.112034 
L 304.617659 340.662034 
L 305.075975 341.078276 
L 305.534292 342.214417 
L 305.992608 340.677732 
L 306.450924 340.979532 
L 306.90924 339.489265 
L 307.367556 341.09161 
L 307.825873 340.984934 
L 308.742505 342.97989 
L 309.200821 344.534637 
L 309.659138 343.466181 
L 310.117454 343.528972 
L 311.034086 347.805664 
L 311.492402 348.281321 
L 312.409035 338.454399 
L 312.867351 337.692301 
L 313.325667 340.339472 
L 313.783984 340.096242 
L 314.2423 338.986432 
L 314.700616 336.585192 
L 315.158932 338.607831 
L 316.075565 340.059783 
L 316.533881 338.88887 
L 316.992197 336.663005 
L 317.90883 334.772362 
L 318.367146 332.041471 
L 318.825462 331.559231 
L 319.283778 333.920298 
L 319.742094 330.520145 
L 320.200411 329.013505 
L 320.658727 329.153265 
L 321.117043 330.064912 
L 321.575359 332.990928 
L 322.033676 333.88367 
L 322.491992 331.696965 
L 322.950308 334.041642 
L 323.408624 338.01417 
L 324.325257 337.788326 
L 324.783573 335.214073 
L 325.241889 334.564223 
L 325.700205 331.515495 
L 326.158522 327.362715 
L 326.616838 321.45262 
L 327.075154 322.782704 
L 327.53347 320.704532 
L 327.991786 317.979211 
L 328.450103 312.839146 
L 328.908419 312.213264 
L 329.366735 307.066785 
L 330.283368 293.969173 
L 330.741684 296.831385 
L 331.2 290.447996 
L 331.658316 289.578209 
L 332.116632 281.273288 
L 332.574949 277.887144 
L 333.033265 284.80027 
L 333.491581 275.160201 
L 333.949897 254.309619 
L 334.86653 234.777811 
L 335.324846 235.277943 
L 335.783162 235.546998 
L 336.241478 229.763262 
L 336.699795 235.320413 
L 337.158111 242.377959 
L 338.074743 251.885863 
L 338.53306 260.53951 
L 338.991376 265.523779 
L 339.449692 272.023973 
L 339.908008 270.263637 
L 340.824641 293.316285 
L 341.282957 295.592956 
L 341.741273 285.110782 
L 342.199589 281.731559 
L 342.657906 272.114277 
L 343.116222 273.066603 
L 343.574538 263.76817 
L 344.032854 260.145717 
L 344.49117 259.400668 
L 344.949487 263.316482 
L 346.324435 288.080515 
L 347.241068 307.619411 
L 347.699384 319.352505 
L 348.1577 328.229127 
L 348.616016 326.753037 
L 349.532649 319.484163 
L 350.449281 311.922772 
L 350.907598 304.023796 
L 351.365914 300.628707 
L 352.740862 311.583668 
L 353.199179 310.348615 
L 354.574127 279.894085 
L 355.49076 252.997023 
L 355.949076 245.399848 
L 356.407392 241.896057 
L 356.865708 240.842455 
L 357.782341 265.712996 
L 358.240657 278.869009 
L 358.698973 284.994361 
L 359.15729 278.376351 
L 359.615606 269.56674 
L 360.073922 266.434967 
L 361.448871 222.176936 
L 361.907187 214.547306 
L 362.365503 217.416608 
L 362.823819 222.546207 
L 363.282136 225.097166 
L 364.198768 234.768631 
L 365.1154 241.433397 
L 365.573717 242.872014 
L 366.032033 243.67209 
L 366.490349 243.851516 
L 366.948665 243.493339 
L 367.406982 244.552173 
L 367.865298 245.055681 
L 368.323614 257.882212 
L 368.78193 259.608451 
L 369.240246 257.392714 
L 370.156879 261.797857 
L 370.615195 262.575483 
L 371.073511 264.118752 
L 371.531828 254.701151 
L 371.990144 255.066587 
L 372.44846 258.966805 
L 374.281725 246.414561 
L 374.740041 244.6019 
L 375.656674 239.240953 
L 377.031622 244.27164 
L 377.489938 244.374435 
L 377.948255 244.07044 
L 378.406571 245.6316 
L 378.864887 248.761517 
L 379.323203 251.029411 
L 379.78152 253.902426 
L 380.239836 255.992919 
L 380.698152 260.848737 
L 381.156468 262.231991 
L 382.531417 276.064693 
L 382.989733 280.570943 
L 383.448049 282.730978 
L 383.906366 284.096509 
L 384.364682 287.61566 
L 384.822998 288.148031 
L 385.281314 288.160691 
L 385.73963 290.168476 
L 386.197947 289.604034 
L 386.656263 297.026847 
L 387.572895 296.809611 
L 388.031211 295.752465 
L 388.489528 291.815214 
L 388.947844 284.523722 
L 389.40616 282.861624 
L 389.864476 273.766248 
L 390.322793 274.908634 
L 391.239425 271.741921 
L 391.697741 272.800418 
L 392.156057 279.637807 
L 392.614374 278.278016 
L 393.07269 278.90221 
L 393.531006 273.568541 
L 394.447639 268.434215 
L 394.905955 272.785682 
L 395.364271 272.790965 
L 395.822587 269.942932 
L 396.280903 267.913541 
L 396.73922 269.476559 
L 397.197536 269.645013 
L 397.655852 268.450132 
L 398.114168 261.548213 
L 398.572485 256.751978 
L 399.030801 257.190163 
L 399.489117 257.234556 
L 399.947433 255.298338 
L 400.405749 255.175458 
L 400.864066 256.45541 
L 401.322382 260.521449 
L 401.780698 261.149019 
L 402.239014 262.880153 
L 403.155647 267.913204 
L 403.613963 269.991375 
L 404.072279 270.819937 
L 404.530595 265.588217 
L 404.988912 264.292905 
L 405.447228 261.057999 
L 405.905544 255.682976 
L 406.36386 252.762193 
L 406.822177 253.399722 
L 407.280493 251.695803 
L 407.738809 252.524405 
L 408.197125 252.158801 
L 408.655441 255.738718 
L 409.113758 264.078917 
L 409.572074 267.131695 
L 410.03039 265.921623 
L 410.488706 268.801558 
L 410.947023 275.173638 
L 411.405339 286.219072 
L 411.863655 290.146195 
L 412.321971 287.431002 
L 412.780287 286.813897 
L 413.238604 286.518172 
L 413.69692 285.782575 
L 414.155236 281.834185 
L 414.613552 273.015797 
L 415.071869 270.086912 
L 415.530185 270.653379 
L 416.905133 278.366683 
L 418.738398 316.76745 
L 419.655031 332.156081 
L 420.113347 336.669082 
L 420.571663 336.360867 
L 421.029979 334.687628 
L 421.488296 334.641717 
L 421.946612 332.908726 
L 422.404928 332.381418 
L 422.863244 333.372061 
L 423.321561 335.093743 
L 423.779877 334.237628 
L 424.238193 334.754977 
L 424.696509 333.087815 
L 425.154825 336.260267 
L 425.613142 336.438343 
L 426.071458 334.758859 
L 426.529774 335.876264 
L 426.98809 336.321707 
L 427.904723 338.177091 
L 428.363039 333.373429 
L 430.65462 318.510081 
L 431.112936 314.919174 
L 431.571253 315.422007 
L 432.029569 316.253815 
L 432.487885 317.418989 
L 432.946201 320.585702 
L 433.404517 322.092512 
L 433.862834 322.893263 
L 434.32115 324.872015 
L 435.237782 332.185282 
L 435.696099 333.212046 
L 436.154415 336.061598 
L 436.612731 336.017037 
L 437.071047 336.118819 
L 437.529363 337.78885 
L 437.98768 334.905202 
L 438.445996 336.185998 
L 438.904312 335.325495 
L 439.362628 330.179185 
L 439.820945 329.170313 
L 440.279261 332.962739 
L 440.737577 330.172939 
L 441.195893 333.329019 
L 441.654209 329.354128 
L 442.112526 330.989726 
L 443.029158 335.832041 
L 443.487474 331.866095 
L 443.945791 335.073319 
L 444.404107 332.541434 
L 444.862423 332.549704 
L 445.320739 330.064912 
L 445.779055 326.656488 
L 446.237372 324.361419 
L 447.61232 320.736603 
L 448.070637 320.858808 
L 448.528953 321.905827 
L 448.987269 321.79358 
L 449.445585 321.192511 
L 449.903901 320.779814 
L 450.362218 317.790501 
L 450.820534 317.844008 
L 451.27885 317.229773 
L 451.737166 315.706928 
L 452.195483 317.279398 
L 452.653799 320.067003 
L 453.112115 326.085801 
L 453.570431 328.500376 
L 454.028747 328.467968 
L 454.487064 330.97656 
L 454.94538 335.470994 
L 455.862012 341.024431 
L 456.320329 335.795919 
L 456.778645 332.653512 
L 457.236961 333.616641 
L 457.695277 330.100696 
L 458.153593 329.143137 
L 458.61191 327.033705 
L 459.070226 326.651897 
L 459.528542 325.411611 
L 459.986858 325.160785 
L 460.445175 321.903937 
L 460.903491 323.671699 
L 461.361807 320.422953 
L 461.820123 321.208546 
L 462.278439 315.577296 
L 462.736756 321.534147 
L 463.195072 323.712243 
L 463.653388 329.769694 
L 464.111704 330.466976 
L 464.570021 330.407054 
L 465.028337 326.357388 
L 465.486653 328.207859 
L 465.944969 321.959503 
L 466.403285 318.574204 
L 466.861602 312.953081 
L 467.319918 312.842184 
L 467.778234 312.227274 
L 468.23655 312.820072 
L 468.694867 314.426976 
L 469.153183 317.672853 
L 469.611499 318.141589 
L 470.069815 316.483711 
L 470.528131 312.335976 
L 470.986448 310.572096 
L 471.444764 309.35831 
L 471.90308 303.309636 
L 472.819713 301.411566 
L 473.278029 303.854835 
L 473.736345 308.846532 
L 474.194661 308.580515 
L 474.652977 312.106587 
L 475.111294 311.577929 
L 475.56961 314.217167 
L 476.027926 312.926412 
L 476.486242 309.560017 
L 476.944559 304.565789 
L 477.402875 302.535723 
L 477.861191 296.050046 
L 478.319507 294.865967 
L 479.23614 297.89444 
L 479.694456 301.094068 
L 480.152772 298.1348 
L 480.611088 299.717903 
L 481.069405 306.807689 
L 481.527721 307.3274 
L 481.986037 294.909009 
L 482.444353 289.474739 
L 482.902669 289.498033 
L 483.360986 287.174775 
L 483.819302 281.71468 
L 484.277618 271.113507 
L 484.735934 266.362846 
L 485.194251 266.649962 
L 485.652567 266.743304 
L 486.110883 262.323814 
L 486.569199 263.718545 
L 487.027515 263.558361 
L 487.485832 262.249039 
L 487.944148 262.160254 
L 488.402464 259.376024 
L 488.86078 257.592733 
L 489.319097 252.697586 
L 489.777413 253.108595 
L 490.235729 262.479272 
L 490.694045 267.379482 
L 491.152361 268.632259 
L 491.610678 267.188241 
L 492.068994 264.408737 
L 492.52731 270.707224 
L 492.985626 266.119954 
L 493.443943 265.224004 
L 494.360575 254.246593 
L 495.277207 273.581589 
L 495.735524 279.71027 
L 496.19384 279.221279 
L 496.652156 266.058345 
L 497.110472 263.699134 
L 497.568789 264.634919 
L 498.027105 262.985817 
L 498.485421 250.931005 
L 498.943737 233.604976 
L 499.402053 227.649138 
L 500.777002 217.668784 
L 501.235318 205.69094 
L 501.693634 209.867538 
L 502.151951 208.056903 
L 502.610267 209.681698 
L 503.068583 209.303603 
L 503.526899 209.138524 
L 503.985216 210.081567 
L 504.901848 215.947608 
L 505.360164 222.430753 
L 505.81848 221.446525 
L 506.276797 222.209973 
L 506.735113 222.070044 
L 507.193429 228.375958 
L 507.651745 226.467254 
L 508.110062 226.115153 
L 508.568378 217.032099 
L 509.026694 224.969728 
L 509.943326 220.587541 
L 510.401643 210.205967 
L 510.859959 205.879819 
L 511.318275 192.532564 
L 511.776591 191.633407 
L 512.234908 182.532123 
L 512.693224 183.158343 
L 513.15154 187.240586 
L 513.609856 193.023581 
L 514.068172 191.716453 
L 514.526489 188.736086 
L 514.984805 187.34338 
L 515.443121 178.064358 
L 515.901437 183.362581 
L 516.359754 182.673402 
L 516.81807 168.99717 
L 517.276386 173.218836 
L 517.734702 181.878728 
L 518.193018 187.58796 
L 518.651335 200.297518 
L 519.109651 189.866319 
L 519.567967 190.070558 
L 520.026283 207.544112 
L 520.4846 204.711438 
L 521.401232 193.993799 
L 521.859548 196.336299 
L 522.317864 201.810235 
L 522.776181 210.910169 
L 523.234497 205.941935 
L 523.692813 205.357407 
L 524.609446 209.090756 
L 525.067762 201.347407 
L 525.526078 202.367925 
L 525.984394 191.767934 
L 526.44271 189.489744 
L 527.359343 200.395587 
L 527.817659 199.619648 
L 528.275975 207.698219 
L 528.734292 203.596058 
L 529.192608 203.085799 
L 529.650924 202.386661 
L 530.10924 203.615132 
L 530.567556 204.382124 
L 531.025873 212.308276 
L 531.484189 207.33464 
L 531.942505 207.348144 
L 532.400821 205.262377 
L 532.859138 206.221624 
L 533.317454 196.406854 
L 533.77577 179.547199 
L 534.234086 172.516828 
L 534.692402 149.81662 
L 535.150719 156.549578 
L 535.609035 142.92449 
L 536.067351 118.447742 
L 536.525667 102.829892 
L 536.983984 100.508153 
L 537.4423 86.136159 
L 537.900616 105.592782 
L 538.358932 81.048685 
L 538.817248 72.0161 
L 539.275565 82.491353 
L 539.733881 83.251594 
L 540.192197 86.350453 
L 540.650513 101.705662 
L 541.10883 87.027147 
L 542.025462 101.581774 
L 542.483778 117.280307 
L 542.942094 119.024945 
L 543.400411 118.803152 
L 543.858727 125.525497 
L 544.317043 123.175805 
L 544.775359 113.599708 
L 545.233676 106.704203 
L 545.691992 80.720645 
L 546.150308 81.698291 
L 546.608624 86.166056 
L 547.06694 66.665455 
L 547.525257 91.778044 
L 547.983573 102.79498 
L 548.441889 117.614921 
L 549.358522 159.225837 
L 549.816838 167.628011 
L 550.275154 235.921989 
M 567.232854 334.307002 
L 567.69117 296.806489 
L 568.149487 281.701795 
L 568.607803 274.204686 
L 569.066119 270.031582 
L 569.524435 267.655767 
L 569.982752 272.090646 
L 570.441068 264.297165 
L 570.899384 270.622321 
L 571.816016 295.698957 
L 572.274333 298.949561 
L 572.732649 308.521438 
L 573.649281 320.171317 
L 574.107598 324.692083 
L 575.02423 311.138563 
L 575.940862 317.735306 
L 576.399179 318.873979 
L 576.857495 319.121429 
L 577.315811 316.415012 
L 577.774127 321.043805 
L 578.69076 336.97122 
L 579.149076 339.104924 
L 579.607392 339.113195 
L 580.524025 347.762453 
L 580.982341 349.837418 
L 581.898973 348.610466 
L 582.35729 347.112265 
L 582.815606 346.397767 
L 583.273922 345.949454 
L 583.732238 346.701087 
L 585.107187 350.179728 
L 585.565503 350.817257 
L 586.023819 352.852893 
L 586.940452 355.276414 
L 587.398768 356.470451 
L 587.857084 356.263342 
L 588.773717 356.577296 
L 589.232033 356.370863 
L 589.690349 356.822383 
L 590.148665 356.677221 
L 591.065298 358.34489 
L 591.98193 359.34566 
L 592.440246 359.470904 
L 593.356879 360.012389 
L 593.815195 359.861827 
L 595.190144 360.146917 
L 595.64846 360.349974 
L 596.106776 360.359595 
L 599.31499 361.444593 
L 599.773306 361.735928 
L 600.231622 361.691367 
L 600.689938 361.399356 
L 601.148255 360.82715 
L 601.606571 360.618185 
L 602.523203 360.716591 
L 602.98152 360.281951 
L 603.898152 360.469479 
L 604.356468 360.674899 
L 605.731417 359.310382 
L 606.189733 359.379418 
L 606.648049 359.325742 
L 607.106366 359.084538 
L 608.481314 360.94733 
L 609.397947 361.173512 
L 609.856263 361.109371 
L 610.314579 361.294874 
L 611.231211 360.124636 
L 612.60616 360.193672 
L 613.981109 359.972892 
L 614.439425 359.980657 
L 615.356057 359.518841 
L 616.27269 359.345997 
L 616.731006 359.560364 
L 617.647639 359.743503 
L 618.564271 359.785195 
L 619.022587 359.695229 
L 620.397536 360.246336 
L 620.855852 360.338496 
L 621.772485 360.833564 
L 622.230801 361.102451 
L 622.689117 361.230901 
L 624.522382 360.808414 
L 625.439014 360.348117 
L 626.355647 359.671766 
L 627.272279 359.084875 
L 628.647228 358.089001 
L 630.022177 357.315088 
L 630.480493 357.433917 
L 632.313758 359.326249 
L 632.772074 359.571166 
L 633.23039 360.114509 
L 633.688706 360.454794 
L 634.147023 360.286677 
L 634.605339 360.271992 
L 635.521971 360.468129 
L 636.438604 360.333433 
L 638.271869 358.415445 
L 639.188501 358.586094 
L 639.646817 358.792865 
L 641.021766 360.001756 
L 641.480082 360.572105 
L 642.396715 360.460871 
L 642.855031 360.530582 
L 643.313347 360.150799 
L 644.229979 359.744516 
L 644.688296 359.274936 
L 645.146612 358.971278 
L 646.063244 359.19189 
L 646.521561 359.310888 
L 648.354825 358.462538 
L 648.813142 358.040895 
L 649.271458 357.264619 
L 650.18809 358.303536 
L 650.646407 358.266401 
L 651.104723 358.633187 
L 652.479671 358.740201 
L 653.396304 358.425235 
L 653.85462 358.451735 
L 654.312936 357.897084 
L 654.771253 357.690651 
L 655.229569 358.249522 
L 655.687885 358.520434 
L 656.604517 358.574785 
L 657.979466 359.759876 
L 658.437782 359.684426 
L 658.896099 359.433432 
L 659.812731 358.577823 
L 660.271047 358.142845 
L 660.729363 358.27501 
L 661.18768 358.937182 
L 661.645996 358.881818 
L 662.562628 359.392922 
L 663.020945 359.542303 
L 663.937577 358.157361 
L 664.854209 355.809629 
L 665.312526 355.779584 
L 665.770842 354.619643 
L 666.229158 354.212853 
L 666.687474 354.161878 
L 667.145791 353.549161 
L 667.604107 353.209551 
L 668.062423 353.336652 
L 668.520739 352.890702 
L 668.979055 353.328719 
L 669.437372 352.538602 
L 670.354004 353.180519 
L 670.81232 353.21816 
L 671.270637 352.507037 
L 671.728953 351.379336 
L 672.187269 350.598165 
L 672.645585 350.810674 
L 673.103901 350.073896 
L 674.020534 350.557654 
L 675.395483 351.618852 
L 675.853799 350.642726 
L 676.312115 350.109342 
L 676.770431 348.462097 
L 677.228747 347.586909 
L 677.687064 347.917911 
L 678.603696 348.12485 
L 679.062012 347.471793 
L 679.978645 345.953168 
L 681.353593 341.381933 
L 681.81191 338.756031 
L 682.270226 337.369064 
L 682.728542 337.296146 
L 683.186858 336.555316 
L 683.645175 334.843761 
L 684.103491 332.297529 
L 684.561807 330.946852 
L 685.020123 331.030236 
L 685.478439 329.912324 
L 685.936756 328.344749 
L 686.395072 327.306339 
L 686.853388 329.161704 
L 687.311704 331.688695 
L 687.770021 332.643384 
L 688.228337 330.282823 
L 690.061602 309.237455 
L 690.978234 293.204544 
L 691.43655 288.54233 
L 692.353183 289.510523 
L 692.811499 285.202774 
L 693.269815 278.346428 
L 694.644764 264.976892 
L 695.561396 251.950173 
L 696.019713 249.108723 
L 696.478029 250.277947 
L 696.936345 250.004673 
L 697.394661 249.354147 
L 697.852977 249.72971 
L 698.311294 257.858894 
L 698.76961 254.331641 
L 699.227926 248.358585 
L 699.686242 249.12811 
L 700.144559 242.765144 
L 700.602875 242.484611 
L 701.061191 237.791171 
L 701.519507 236.982342 
L 701.977823 246.458345 
L 702.43614 258.993203 
L 702.894456 266.91581 
L 703.352772 279.8767 
L 703.811088 286.141934 
L 704.269405 295.008428 
L 704.727721 294.455464 
L 705.186037 295.475814 
L 705.644353 296.024558 
L 706.102669 293.803757 
L 706.560986 292.779187 
L 707.019302 293.138209 
L 707.477618 298.135138 
L 707.935934 291.809585 
L 708.394251 282.51284 
L 708.852567 277.957472 
L 709.310883 277.527051 
L 709.769199 281.143765 
L 710.227515 275.875587 
L 710.685832 267.791277 
L 711.144148 269.469976 
L 712.06078 282.436605 
L 712.519097 282.613499 
L 712.977413 280.944818 
L 713.435729 283.040206 
L 713.894045 282.978934 
L 714.352361 283.136755 
L 714.810678 281.629102 
L 715.268994 277.763082 
L 715.72731 281.055714 
L 716.185626 280.902957 
L 716.643943 281.135215 
L 717.102259 283.831167 
L 717.560575 285.452418 
L 718.018891 292.773955 
L 718.477207 292.714709 
L 718.935524 287.768924 
L 719.39384 285.643322 
L 719.852156 285.924361 
L 720.310472 285.51082 
L 720.768789 286.253844 
L 721.227105 282.808117 
L 721.685421 286.899474 
L 722.143737 292.059963 
L 722.602053 291.17009 
L 723.06037 291.41889 
L 723.977002 293.869755 
L 724.435318 294.006139 
L 724.893634 293.731176 
L 725.351951 292.515702 
L 726.268583 300.471224 
L 726.726899 305.642853 
L 728.101848 324.540676 
L 729.476797 338.409331 
L 729.935113 339.908207 
L 730.393429 338.675517 
L 730.851745 337.779398 
L 731.310062 340.864247 
L 731.310062 340.864247 
" style="fill:none;stroke:#ff7f0e;stroke-linecap:square;stroke-width:1.5;"/>
   </g>
   <g id="line2d_58">
    <path clip-path="url(#padeb267ae8)" d="M 140.998768 362.0672 
L 141.457084 356.079044 
L 141.9154 344.852357 
L 142.373717 339.055086 
L 143.290349 333.755574 
L 143.748665 332.059441 
L 144.206982 329.328865 
L 144.665298 328.536497 
L 145.123614 329.810711 
L 145.58193 334.881908 
L 146.040246 334.53791 
L 146.498563 335.366286 
L 146.956879 336.547158 
L 147.415195 335.496088 
L 147.873511 335.563717 
L 148.331828 333.945448 
L 148.790144 328.096625 
L 149.24846 327.602963 
L 149.706776 330.390963 
L 150.165092 331.111819 
L 150.623409 328.839592 
L 151.081725 327.245742 
L 151.540041 327.889516 
L 151.998357 329.888074 
L 152.456674 329.912662 
L 152.91499 330.971271 
L 153.373306 333.558351 
L 153.831622 335.47904 
L 154.289938 334.478945 
L 154.748255 334.185246 
L 155.206571 336.507266 
L 155.664887 340.809783 
L 156.123203 339.952881 
L 156.58152 334.797175 
L 157.039836 332.249873 
L 157.498152 330.587887 
L 157.956468 330.048989 
L 158.414784 330.391638 
L 158.873101 327.417404 
L 159.331417 322.437917 
L 159.789733 320.204063 
L 160.248049 314.465348 
L 160.706366 310.365438 
L 161.164682 300.907552 
L 162.081314 288.889367 
L 162.53963 290.114069 
L 162.997947 285.546604 
L 163.456263 282.637074 
L 163.914579 278.515727 
L 164.372895 278.137294 
L 165.289528 266.039159 
L 165.747844 266.523987 
L 166.20616 264.599697 
L 166.664476 264.773441 
L 167.122793 263.912319 
L 167.581109 262.681766 
L 168.039425 258.189639 
L 168.497741 256.776228 
L 168.956057 246.585671 
L 169.414374 251.718421 
L 172.164271 326.419222 
L 172.622587 329.76525 
L 173.997536 321.495887 
L 174.455852 318.857606 
L 174.914168 325.266652 
L 175.830801 322.205828 
L 176.747433 300.574187 
L 177.205749 296.942226 
L 177.664066 291.674216 
L 178.122382 279.999468 
L 178.580698 265.299398 
L 179.039014 256.135098 
L 179.955647 273.355857 
L 180.413963 276.381291 
L 180.872279 277.189469 
L 181.330595 276.781048 
L 181.788912 275.361954 
L 182.247228 275.972364 
L 183.16386 263.179141 
L 183.622177 254.454264 
L 184.080493 252.778269 
L 184.538809 255.69697 
L 184.997125 266.278788 
L 185.913758 279.587221 
L 186.372074 283.218226 
L 186.83039 288.132784 
L 187.288706 290.227835 
L 187.747023 290.755536 
L 188.205339 289.982861 
L 188.663655 286.137489 
L 189.121971 285.143471 
L 189.580287 285.371904 
L 190.038604 287.71491 
L 190.49692 292.732319 
L 190.955236 294.289598 
L 191.413552 290.39477 
L 191.871869 289.957598 
L 192.330185 292.141715 
L 192.788501 291.619753 
L 193.246817 286.443004 
L 193.705133 283.464325 
L 194.621766 287.459134 
L 195.080082 284.696172 
L 195.538398 274.300194 
L 195.996715 269.309342 
L 196.455031 279.289246 
L 196.913347 272.425755 
L 197.371663 267.331545 
L 197.829979 264.571284 
L 199.204928 271.719246 
L 199.663244 262.50656 
L 200.121561 263.102228 
L 200.579877 261.05337 
L 201.038193 260.93319 
L 201.496509 265.953783 
L 201.954825 266.383937 
L 202.871458 265.368548 
L 203.329774 266.609322 
L 203.78809 274.380063 
L 204.246407 294.001136 
M 217.079261 310.638262 
L 217.995893 311.689708 
L 218.454209 311.263104 
L 218.912526 311.688342 
L 219.370842 310.865776 
L 219.829158 310.764294 
L 220.287474 312.22913 
L 220.745791 311.64404 
L 221.204107 312.324329 
L 221.662423 315.998995 
L 222.120739 316.956385 
L 222.579055 320.704138 
L 223.037372 321.255921 
L 223.495688 323.724227 
L 223.954004 328.736123 
L 224.41232 330.374759 
L 224.870637 328.620443 
L 225.328953 328.798857 
L 225.787269 327.222449 
L 226.245585 331.530367 
L 226.703901 330.191113 
L 227.162218 328.056958 
L 227.620534 328.445406 
L 228.07885 333.196235 
L 228.537166 334.141416 
L 228.995483 334.664448 
L 229.453799 332.329656 
L 229.912115 331.614426 
L 230.370431 331.734831 
L 230.828747 330.582992 
L 231.287064 328.478095 
L 232.203696 336.746614 
L 232.662012 337.804886 
L 233.120329 339.436376 
L 234.036961 341.236434 
L 234.495277 343.055172 
L 235.41191 335.668425 
L 236.328542 333.383377 
L 236.786858 335.442081 
L 237.245175 336.14015 
L 237.703491 332.423961 
L 238.161807 332.110289 
L 238.620123 332.022686 
L 239.078439 332.39898 
L 239.536756 332.984851 
L 239.995072 330.48875 
L 240.453388 333.044941 
L 240.911704 334.072043 
L 241.370021 338.011656 
L 242.286653 342.784935 
L 242.744969 343.738443 
L 243.203285 345.016201 
L 243.661602 343.414868 
L 244.119918 344.002603 
L 244.578234 341.918018 
L 245.03655 343.474958 
L 245.494867 344.351328 
L 245.953183 346.926593 
L 246.411499 346.815866 
L 247.328131 347.149906 
L 247.786448 347.352625 
L 248.70308 344.227097 
L 249.161396 342.595888 
L 249.619713 343.283717 
L 250.078029 344.208935 
L 250.536345 344.203871 
L 250.994661 344.01263 
L 251.452977 343.94545 
L 251.911294 344.546857 
L 252.36961 344.769326 
L 252.827926 344.580616 
L 253.286242 344.596077 
L 253.744559 345.479199 
L 254.661191 346.272185 
L 255.119507 346.517609 
L 255.577823 347.07935 
L 256.03614 349.278715 
L 256.952772 352.442221 
L 257.411088 353.053925 
L 257.869405 354.071405 
L 258.327721 355.868537 
L 258.786037 356.730897 
L 259.244353 357.162668 
L 259.702669 357.34547 
L 260.160986 357.725928 
L 260.619302 358.566852 
L 261.077618 358.636394 
L 261.535934 357.716982 
L 261.994251 357.202334 
L 262.452567 356.515012 
L 262.910883 356.515518 
L 263.369199 355.397438 
L 263.827515 355.601339 
L 264.285832 356.429941 
L 264.744148 356.524127 
L 266.119097 357.271539 
L 267.035729 358.662557 
L 267.952361 358.668971 
L 268.410678 358.968071 
L 268.868994 358.779361 
L 270.243943 357.494176 
L 270.702259 357.623302 
L 271.160575 358.233149 
L 271.618891 358.465914 
L 272.077207 358.509969 
L 272.535524 358.435362 
L 272.99384 358.677411 
L 273.452156 358.660363 
L 273.910472 358.937351 
L 274.368789 358.574279 
L 274.827105 358.617658 
L 275.743737 359.365746 
L 276.202053 359.180243 
L 276.66037 359.214508 
L 278.951951 357.451134 
L 279.410267 357.448602 
L 279.868583 357.787875 
L 280.326899 357.67259 
L 280.785216 358.566852 
L 281.243532 359.755656 
L 281.701848 359.380431 
L 282.160164 359.624167 
L 282.61848 360.352 
L 283.076797 359.609313 
L 283.993429 358.768896 
L 284.451745 358.011694 
L 284.910062 358.398228 
L 285.826694 358.057605 
L 286.743326 358.923172 
L 287.201643 358.279567 
L 287.659959 358.356368 
L 288.118275 357.936075 
L 288.576591 357.736225 
L 289.034908 357.361168 
L 289.493224 356.564974 
L 289.95154 356.566494 
L 290.409856 357.710399 
L 290.868172 358.141664 
L 291.326489 358.929587 
L 292.243121 360.051887 
L 292.701437 360.892473 
L 293.159754 360.928257 
L 294.534702 358.577992 
L 295.451335 356.372382 
L 295.909651 356.213211 
L 296.367967 356.414412 
L 297.742916 355.62497 
L 298.201232 355.799501 
L 298.659548 355.416174 
L 299.117864 354.799575 
L 299.576181 353.364165 
L 300.492813 353.834337 
L 301.409446 353.238331 
L 301.867762 353.06937 
L 302.326078 353.513632 
L 302.784394 355.128131 
L 303.24271 354.638295 
L 303.701027 354.440554 
L 304.617659 352.734738 
L 305.075975 352.297735 
L 305.534292 352.746723 
L 305.992608 351.966058 
L 306.450924 352.052648 
L 306.90924 351.16632 
L 307.367556 351.648222 
L 307.825873 351.51437 
L 308.742505 352.376392 
L 309.200821 353.115871 
L 309.659138 352.605781 
L 310.117454 352.855425 
L 311.034086 355.490273 
L 311.492402 355.604377 
L 312.409035 350.217032 
L 312.867351 349.475695 
L 313.325667 350.766619 
L 313.783984 350.704504 
L 314.2423 350.213487 
L 314.700616 349.32277 
L 315.158932 350.722733 
L 316.075565 351.791864 
L 316.533881 351.160243 
L 316.992197 350.07187 
L 317.450513 349.691412 
L 317.90883 349.070425 
L 318.367146 347.655608 
L 318.825462 347.054538 
L 319.283778 348.274738 
L 319.742094 346.332444 
L 320.200411 345.215545 
L 320.658727 345.171997 
L 321.117043 345.004555 
L 321.575359 346.094278 
L 322.033676 346.778225 
L 322.491992 345.27631 
L 322.950308 346.82835 
L 323.408624 349.286135 
L 323.86694 349.929403 
L 324.325257 351.189944 
L 324.783573 350.962412 
L 325.241889 351.384056 
L 325.700205 351.031448 
L 326.158522 349.772601 
L 326.616838 347.588597 
L 327.075154 348.070837 
L 327.53347 347.067873 
L 327.991786 345.724623 
L 328.450103 343.84377 
L 328.908419 343.126233 
L 329.366735 341.058527 
L 330.283368 336.122026 
L 330.741684 337.546465 
L 331.2 335.976527 
L 331.658316 335.409722 
L 332.116632 332.914971 
L 332.574949 331.861538 
L 333.033265 333.694198 
L 333.491581 330.026846 
L 333.949897 323.28241 
L 334.86653 317.757836 
L 335.324846 318.309112 
L 335.783162 318.479424 
L 336.241478 317.558411 
L 337.158111 321.909878 
L 337.616427 323.952603 
L 338.074743 325.485069 
L 338.53306 328.314198 
L 339.449692 332.299385 
L 339.908008 331.703548 
L 340.824641 338.449166 
L 341.282957 338.267039 
L 341.741273 333.444473 
L 342.199589 331.587419 
L 342.657906 326.484995 
L 343.116222 324.218958 
L 343.574538 320.756858 
L 344.032854 318.830431 
L 344.49117 318.607118 
L 344.949487 319.684858 
L 345.407803 321.937729 
L 346.324435 330.122639 
L 346.782752 331.952855 
L 348.1577 343.171301 
L 349.074333 341.285384 
L 349.532649 339.93302 
L 349.990965 339.577205 
L 350.449281 337.902616 
L 350.907598 335.368874 
L 351.365914 334.876676 
L 351.82423 337.149465 
L 352.282546 338.425704 
L 352.740862 340.392472 
L 353.199179 339.768616 
L 354.574127 333.632339 
L 355.032444 330.20214 
L 355.49076 328.46628 
L 355.949076 327.253338 
L 356.407392 327.843605 
L 356.865708 327.813897 
L 358.240657 337.658036 
L 358.698973 338.973799 
L 360.073922 320.31431 
L 360.990554 302.209305 
L 361.907187 288.611873 
L 362.365503 289.602346 
L 362.823819 291.812176 
L 363.282136 291.608444 
L 363.740452 293.084026 
L 364.198768 295.044718 
L 364.657084 296.145076 
L 365.1154 297.834181 
L 365.573717 298.802711 
L 366.032033 299.024842 
L 366.948665 300.226475 
L 367.406982 300.761378 
L 367.865298 300.396786 
L 368.323614 306.894448 
L 368.78193 307.84745 
L 369.240246 310.187756 
L 371.073511 324.707274 
L 371.531828 321.681671 
L 371.990144 324.084599 
L 372.44846 328.910337 
L 374.281725 333.083053 
L 375.198357 334.988887 
L 375.656674 331.97311 
L 377.031622 329.680234 
L 377.489938 329.162211 
L 378.406571 332.417371 
L 380.698152 346.984827 
L 381.156468 346.408907 
L 381.614784 346.814346 
L 382.073101 346.988203 
L 382.531417 346.944485 
L 382.989733 347.31836 
L 383.448049 347.0277 
L 383.906366 347.396849 
L 384.364682 348.893868 
L 384.822998 349.435185 
L 385.281314 349.712511 
L 385.73963 350.195426 
L 386.197947 350.287418 
L 386.656263 352.173166 
L 387.572895 350.642388 
L 388.031211 349.674364 
L 388.947844 348.424794 
L 389.40616 348.524044 
L 389.864476 347.248312 
L 390.322793 347.989479 
L 391.239425 347.535259 
L 391.697741 347.058758 
L 392.156057 347.081115 
L 393.989322 321.15039 
L 394.447639 316.129492 
L 394.905955 315.473565 
L 395.364271 313.641585 
L 395.822587 313.308389 
L 396.280903 313.246273 
L 396.73922 314.352707 
L 397.197536 314.743461 
L 397.655852 313.74995 
L 398.114168 309.123857 
L 398.572485 306.689872 
L 399.030801 306.777981 
L 399.489117 306.457445 
L 399.947433 304.591614 
L 400.405749 303.426103 
L 400.864066 303.602828 
L 401.322382 306.514328 
L 401.780698 305.943134 
L 402.239014 307.36386 
L 403.613963 313.453719 
L 404.072279 317.771765 
L 404.530595 313.695092 
L 404.988912 311.455049 
L 405.447228 310.060824 
L 405.905544 306.801612 
L 406.36386 305.173779 
L 406.822177 305.799154 
L 407.280493 302.063104 
L 407.738809 303.119069 
L 408.655441 306.518379 
L 409.113758 311.85458 
L 409.572074 313.585546 
L 410.03039 311.876354 
L 410.488706 314.102219 
L 410.947023 318.340089 
L 411.405339 324.649547 
L 411.863655 327.054501 
L 412.321971 325.545666 
L 412.780287 325.018865 
L 413.238604 325.584319 
L 413.69692 323.819257 
L 414.155236 320.614735 
L 414.613552 315.084422 
L 415.071869 312.460038 
L 415.530185 311.796853 
L 416.905133 315.063492 
L 418.738398 338.445621 
L 420.113347 352.709757 
L 420.571663 352.4591 
L 421.029979 352.688658 
L 421.488296 352.60865 
L 421.946612 351.854824 
L 422.404928 351.58982 
L 423.321561 352.454881 
L 424.238193 352.264145 
L 424.696509 351.656662 
L 425.154825 352.559532 
L 425.613142 352.739296 
L 426.071458 352.081512 
L 426.529774 352.36137 
L 427.446407 352.550586 
L 427.904723 352.796212 
L 428.363039 351.470517 
L 430.65462 347.407854 
L 431.112936 346.364852 
L 432.487885 346.603187 
L 432.946201 347.394655 
L 434.32115 348.911591 
L 435.237782 351.272659 
L 435.696099 351.589145 
L 436.154415 352.815759 
L 436.612731 352.845128 
L 437.071047 352.721235 
L 437.529363 353.270148 
L 437.98768 352.375211 
L 438.445996 353.077218 
L 438.904312 353.21664 
L 439.362628 351.507955 
L 439.820945 351.17189 
L 440.279261 352.533369 
L 440.737577 351.68063 
L 441.195893 352.779975 
L 441.654209 351.289538 
L 442.112526 351.323128 
L 443.029158 352.667053 
L 443.487474 351.15096 
L 443.945791 352.219922 
L 444.404107 350.980986 
L 444.862423 351.103867 
L 445.320739 350.337887 
L 445.779055 349.05996 
L 446.237372 348.178526 
L 447.154004 347.483777 
L 448.070637 347.034452 
L 448.528953 347.436684 
L 448.987269 347.37845 
L 449.903901 346.983139 
L 450.362218 345.691708 
L 450.820534 345.949117 
L 451.27885 345.79906 
L 451.737166 345.204743 
L 452.195483 345.647485 
L 452.653799 346.702606 
L 453.112115 348.94248 
L 453.570431 349.773614 
L 454.028747 349.290361 
L 454.487064 350.117613 
L 454.94538 351.988676 
L 455.862012 354.277669 
L 456.320329 352.429055 
L 456.778645 351.357899 
L 457.236961 351.923185 
L 457.695277 350.343626 
L 458.61191 349.509699 
L 459.070226 349.46767 
L 459.528542 348.871158 
L 459.986858 348.704054 
L 460.445175 347.181547 
L 460.903491 348.147545 
L 461.361807 346.506546 
L 461.820123 346.537527 
L 462.278439 344.233849 
L 462.736756 346.615509 
L 463.195072 347.808702 
L 463.653388 350.637493 
L 464.111704 351.220671 
L 464.570021 352.055855 
L 465.028337 350.68965 
L 465.486653 351.71557 
L 465.944969 349.539668 
L 466.403285 348.359303 
L 466.861602 346.379537 
L 467.319918 346.531282 
L 467.778234 346.091578 
L 468.23655 346.344091 
L 468.694867 347.030569 
L 469.153183 348.453658 
L 469.611499 348.826014 
L 470.069815 348.270687 
L 470.528131 346.61821 
L 470.986448 346.163989 
L 471.444764 345.978655 
L 471.90308 343.736249 
L 472.819713 343.161511 
L 473.278029 344.135105 
L 473.736345 345.99064 
L 474.194661 345.931225 
L 474.652977 347.037659 
L 475.111294 347.08779 
L 475.56961 347.842629 
L 476.027926 347.429426 
L 476.486242 346.198086 
L 476.944559 344.612788 
L 477.402875 343.856092 
L 477.861191 341.62415 
L 478.319507 341.032702 
L 478.777823 341.475275 
L 479.23614 342.305227 
L 479.694456 343.624171 
L 480.152772 342.63471 
L 480.611088 343.502134 
L 481.069405 346.070647 
L 481.527721 346.712733 
L 481.986037 342.545588 
L 482.444353 340.345717 
L 482.902669 340.507082 
L 483.360986 339.595773 
L 483.819302 337.394045 
L 484.277618 333.54136 
L 484.735934 331.27988 
L 485.194251 331.240045 
L 485.652567 330.810468 
L 486.110883 328.771456 
L 486.569199 329.423164 
L 487.485832 328.590173 
L 487.944148 328.796269 
L 488.402464 327.627551 
L 488.86078 327.519355 
L 489.319097 326.029256 
L 489.777413 325.623648 
L 490.235729 329.362905 
L 490.694045 331.291864 
L 491.152361 332.113376 
L 491.610678 331.856305 
L 492.068994 330.682186 
L 492.52731 332.94029 
L 492.985626 331.814276 
L 493.443943 331.404111 
L 493.902259 329.010466 
L 494.360575 327.440529 
L 495.735524 336.379941 
L 496.19384 336.13401 
L 496.652156 331.793515 
L 497.568789 330.297002 
L 498.027105 329.728847 
L 498.485421 325.47511 
L 498.943737 320.01012 
L 499.402053 318.000141 
L 500.318686 315.305709 
L 500.777002 314.432546 
L 501.235318 310.760468 
L 501.693634 312.111313 
L 502.151951 311.14599 
L 502.610267 311.523578 
L 503.068583 311.081511 
L 503.526899 310.9139 
L 503.985216 311.016526 
L 504.901848 313.271592 
L 505.360164 315.440236 
L 505.81848 315.395675 
L 506.276797 316.14967 
L 506.735113 317.48735 
L 507.193429 320.289472 
L 507.651745 319.472517 
L 508.110062 319.490409 
L 508.568378 316.835643 
L 509.026694 319.599786 
L 509.48501 319.446692 
L 509.943326 317.984443 
L 510.401643 314.25025 
L 510.859959 313.209476 
L 511.318275 309.179728 
L 511.776591 308.663392 
L 512.234908 305.221378 
L 512.693224 303.869351 
L 513.609856 303.123627 
L 514.068172 302.245907 
L 514.526489 301.938704 
L 514.984805 302.542137 
L 515.443121 301.776664 
L 516.359754 308.339479 
L 516.81807 308.251032 
L 517.276386 309.707541 
L 517.734702 310.644508 
L 518.193018 310.62189 
L 518.651335 312.660732 
L 519.109651 311.340607 
L 519.567967 311.072228 
L 520.026283 313.953176 
L 520.4846 314.555427 
L 521.401232 316.359479 
L 521.859548 316.825346 
L 522.317864 317.48735 
L 522.776181 320.258245 
L 523.234497 320.731033 
L 523.692813 319.832382 
L 524.609446 318.823341 
L 525.067762 317.382361 
L 525.526078 317.474015 
L 525.984394 313.711127 
L 526.44271 312.074179 
L 526.901027 313.65897 
L 527.359343 314.71156 
L 527.817659 315.323094 
L 528.275975 318.580449 
L 528.734292 317.656142 
L 529.650924 317.794046 
L 530.567556 319.438421 
L 531.025873 321.011565 
L 531.484189 319.087333 
L 532.400821 321.169555 
L 532.859138 322.671976 
L 533.317454 320.636171 
L 533.77577 319.407532 
L 534.234086 320.289134 
L 534.692402 320.573212 
L 535.150719 319.755075 
L 535.609035 320.675669 
L 536.067351 320.157645 
L 536.525667 322.308566 
L 536.983984 325.033043 
L 537.4423 324.645665 
L 537.900616 326.893348 
L 538.358932 326.093948 
L 538.817248 321.787886 
L 539.275565 321.179389 
L 539.733881 317.566052 
L 540.192197 315.368713 
L 540.650513 315.353859 
L 541.10883 313.894214 
L 542.025462 316.556744 
L 542.483778 318.941274 
L 542.942094 319.609016 
L 543.400411 318.836116 
L 543.858727 319.729093 
L 544.317043 316.338952 
L 544.775359 315.429836 
L 545.233676 315.778561 
L 545.691992 315.321302 
L 546.608624 316.906769 
L 547.06694 311.666377 
L 547.525257 318.672025 
L 547.983573 319.901102 
L 548.441889 321.84205 
L 548.900205 319.815198 
L 549.358522 321.903339 
L 549.816838 323.435911 
L 550.275154 350.505459 
M 567.232854 353.416362 
L 567.69117 347.984688 
L 568.149487 345.49671 
L 568.607803 344.282555 
L 569.066119 343.651895 
L 569.524435 343.240316 
L 569.982752 343.598375 
L 570.441068 342.547613 
L 570.899384 343.319501 
L 571.816016 347.697468 
L 572.274333 348.081977 
L 573.190965 351.000903 
L 573.649281 351.250885 
L 574.107598 352.064464 
L 575.02423 348.959022 
L 575.482546 349.276858 
L 575.940862 350.111367 
L 576.857495 350.794133 
L 577.315811 350.282523 
L 577.774127 351.24042 
L 578.69076 354.98204 
L 579.149076 355.774857 
L 579.607392 355.845581 
L 580.524025 357.886787 
L 580.982341 358.270115 
L 581.898973 357.652335 
L 582.35729 357.072027 
L 583.273922 356.514168 
L 583.732238 356.647851 
L 584.190554 356.923827 
L 584.648871 357.370958 
L 585.107187 357.622459 
L 585.565503 357.567601 
L 586.023819 358.24007 
L 586.482136 358.470978 
L 586.940452 358.935832 
L 587.398768 359.174335 
L 587.857084 358.883337 
L 588.773717 358.958788 
L 589.232033 358.683487 
L 589.690349 358.692602 
L 590.148665 358.327335 
L 590.606982 358.804343 
L 591.523614 359.158975 
L 592.898563 359.326755 
L 593.356879 359.422123 
L 593.815195 359.136357 
L 595.190144 359.084538 
L 595.64846 359.234257 
L 596.106776 359.202186 
L 597.023409 359.468878 
L 597.940041 359.864527 
L 598.398357 360.329044 
L 598.856674 360.379175 
L 599.31499 360.54341 
L 600.231622 361.343824 
L 601.148255 361.740317 
L 601.606571 361.780489 
L 602.523203 362.418187 
L 603.439836 362.364005 
L 604.356468 362.342737 
L 605.731417 361.656596 
L 607.106366 361.550763 
L 608.481314 362.401814 
L 609.856263 362.608922 
L 610.314579 362.658378 
L 611.231211 362.238254 
L 613.064476 362.077395 
L 613.522793 361.927508 
L 614.439425 361.910628 
L 616.27269 361.495062 
L 617.189322 361.467886 
L 618.564271 361.381971 
L 619.022587 361.31074 
L 620.397536 361.429739 
L 620.855852 361.418599 
L 621.314168 361.626044 
L 622.689117 361.892399 
L 624.522382 361.403576 
L 626.355647 360.435383 
L 627.272279 360.109951 
L 628.647228 359.57623 
L 630.022177 359.142602 
L 630.480493 359.23105 
L 633.23039 361.363066 
L 633.688706 361.587897 
L 634.605339 361.442061 
L 635.521971 361.525107 
L 636.438604 361.32475 
L 638.271869 360.345079 
L 639.188501 360.539359 
L 640.105133 360.915766 
L 641.480082 361.693561 
L 642.396715 361.683096 
L 642.855031 361.761922 
L 643.771663 361.665711 
L 644.229979 361.62942 
L 645.146612 361.40442 
L 646.521561 361.628407 
L 648.354825 361.322725 
L 648.813142 361.13891 
L 649.271458 360.81044 
L 650.18809 361.236809 
L 650.646407 361.172499 
L 651.104723 361.281539 
L 652.479671 360.268954 
L 653.85462 359.634801 
L 654.312936 359.083188 
L 654.771253 358.984444 
L 655.229569 359.483057 
L 655.687885 359.751605 
L 656.604517 359.881744 
L 657.979466 360.999994 
L 658.896099 360.941085 
L 660.271047 360.364153 
L 660.729363 360.489734 
L 661.18768 360.896524 
L 661.645996 360.923699 
L 662.562628 361.258415 
L 663.020945 360.67338 
L 664.854209 356.136579 
L 665.312526 355.844569 
L 665.770842 354.631627 
L 666.687474 354.824556 
L 667.145791 354.308727 
L 668.062423 354.24965 
L 668.520739 353.776693 
L 668.979055 354.003382 
L 669.437372 353.232845 
L 670.354004 353.565365 
L 670.81232 353.388977 
L 671.270637 352.804618 
L 672.187269 350.437643 
L 672.645585 350.498071 
L 673.103901 349.342012 
L 673.562218 349.038523 
L 674.47885 348.006696 
L 674.937166 347.955383 
L 675.395483 347.477363 
L 676.312115 343.257554 
L 676.770431 340.207307 
L 677.228747 338.898154 
L 678.603696 340.357026 
L 679.062012 340.112446 
L 679.520329 340.71014 
L 679.978645 341.073043 
L 680.436961 339.962221 
L 680.895277 338.557024 
L 682.270226 330.875116 
L 682.728542 330.202984 
L 683.645175 326.994073 
L 684.103491 324.23263 
L 684.561807 323.058004 
L 685.020123 323.503616 
L 685.478439 322.404946 
L 685.936756 320.726982 
L 686.395072 319.860908 
L 686.853388 321.629345 
L 687.311704 324.00763 
L 687.770021 324.48987 
L 688.228337 321.666817 
L 689.603285 309.037267 
L 690.978234 286.682576 
L 691.43655 282.709711 
L 691.894867 282.843225 
L 692.353183 283.406485 
L 692.811499 281.476007 
L 693.269815 285.946642 
L 694.644764 269.785111 
L 696.019713 247.951989 
L 696.478029 236.527278 
L 696.936345 235.170019 
L 697.394661 235.252727 
L 697.852977 237.370058 
L 698.311294 253.112545 
L 699.227926 261.533758 
L 699.686242 268.984141 
L 700.144559 281.335673 
L 700.602875 300.746001 
L 701.061191 346.205647 
M 707.935934 320.912991 
L 708.394251 316.674783 
L 709.310883 323.227936 
L 709.769199 327.578567 
L 710.227515 326.123414 
L 710.685832 325.265133 
L 711.144148 325.299229 
L 712.06078 329.996889 
L 712.519097 330.007692 
L 712.977413 329.680741 
L 714.352361 334.750926 
L 714.810678 335.023019 
L 715.268994 334.689148 
L 715.72731 336.563755 
L 717.102259 337.377166 
L 717.560575 337.312687 
L 718.018891 339.757644 
L 718.477207 339.680506 
L 718.935524 338.3857 
L 719.39384 337.795264 
L 719.852156 338.352786 
L 720.310472 338.655093 
L 720.768789 339.619741 
L 721.227105 337.189806 
L 721.685421 335.992393 
L 722.143737 333.855989 
L 722.602053 333.236183 
L 723.06037 333.21846 
L 723.518686 333.68247 
L 723.977002 334.844774 
L 724.435318 337.330748 
L 724.893634 340.914716 
L 725.351951 345.762432 
L 726.726899 354.645974 
L 727.643532 358.232474 
L 728.560164 359.583319 
L 729.476797 360.500368 
L 729.935113 360.837109 
L 730.851745 361.03544 
L 731.310062 361.403628 
L 731.310062 361.403628 
" style="fill:none;stroke:#2ca02c;stroke-linecap:square;stroke-width:1.5;"/>
   </g>
   <g id="patch_3">
    <path d="M 108 378 
L 108 51.84 
" style="fill:none;stroke:#000000;stroke-linecap:square;stroke-linejoin:miter;stroke-width:0.8;"/>
   </g>
   <g id="patch_4">
    <path d="M 777.6 378 
L 777.6 51.84 
" style="fill:none;stroke:#000000;stroke-linecap:square;stroke-linejoin:miter;stroke-width:0.8;"/>
   </g>
   <g id="patch_5">
    <path d="M 108 378 
L 777.6 378 
" style="fill:none;stroke:#000000;stroke-linecap:square;stroke-linejoin:miter;stroke-width:0.8;"/>
   </g>
   <g id="patch_6">
    <path d="M 108 51.84 
L 777.6 51.84 
" style="fill:none;stroke:#000000;stroke-linecap:square;stroke-linejoin:miter;stroke-width:0.8;"/>
   </g>
   <g id="legend_1">
    <g id="patch_7">
     <path d="M 631.05625 103.874375 
L 770.6 103.874375 
Q 772.6 103.874375 772.6 101.874375 
L 772.6 58.84 
Q 772.6 56.84 770.6 56.84 
L 631.05625 56.84 
Q 629.05625 56.84 629.05625 58.84 
L 629.05625 101.874375 
Q 629.05625 103.874375 631.05625 103.874375 
z
" style="fill:#ffffff;opacity:0.8;stroke:#cccccc;stroke-linejoin:miter;"/>
    </g>
    <g id="line2d_59">
     <path d="M 633.05625 64.938437 
L 653.05625 64.938437 
" style="fill:none;stroke:#1f77b4;stroke-linecap:square;stroke-width:1.5;"/>
    </g>
    <g id="line2d_60"/>
    <g id="text_14">
     <!-- Site A Button A (top) -->
     <g transform="translate(661.05625 68.438437)scale(0.1 -0.1)">
      <defs>
       <path d="M 3425 4513 
L 3425 3897 
Q 3066 4069 2747 4153 
Q 2428 4238 2131 4238 
Q 1616 4238 1336 4038 
Q 1056 3838 1056 3469 
Q 1056 3159 1242 3001 
Q 1428 2844 1947 2747 
L 2328 2669 
Q 3034 2534 3370 2195 
Q 3706 1856 3706 1288 
Q 3706 609 3251 259 
Q 2797 -91 1919 -91 
Q 1588 -91 1214 -16 
Q 841 59 441 206 
L 441 856 
Q 825 641 1194 531 
Q 1563 422 1919 422 
Q 2459 422 2753 634 
Q 3047 847 3047 1241 
Q 3047 1584 2836 1778 
Q 2625 1972 2144 2069 
L 1759 2144 
Q 1053 2284 737 2584 
Q 422 2884 422 3419 
Q 422 4038 858 4394 
Q 1294 4750 2059 4750 
Q 2388 4750 2728 4690 
Q 3069 4631 3425 4513 
z
" id="DejaVuSans-53" transform="scale(0.015625)"/>
       <path d="M 2188 4044 
L 1331 1722 
L 3047 1722 
L 2188 4044 
z
M 1831 4666 
L 2547 4666 
L 4325 0 
L 3669 0 
L 3244 1197 
L 1141 1197 
L 716 0 
L 50 0 
L 1831 4666 
z
" id="DejaVuSans-41" transform="scale(0.015625)"/>
       <path d="M 1259 2228 
L 1259 519 
L 2272 519 
Q 2781 519 3026 730 
Q 3272 941 3272 1375 
Q 3272 1813 3026 2020 
Q 2781 2228 2272 2228 
L 1259 2228 
z
M 1259 4147 
L 1259 2741 
L 2194 2741 
Q 2656 2741 2882 2914 
Q 3109 3088 3109 3444 
Q 3109 3797 2882 3972 
Q 2656 4147 2194 4147 
L 1259 4147 
z
M 628 4666 
L 2241 4666 
Q 2963 4666 3353 4366 
Q 3744 4066 3744 3513 
Q 3744 3084 3544 2831 
Q 3344 2578 2956 2516 
Q 3422 2416 3680 2098 
Q 3938 1781 3938 1306 
Q 3938 681 3513 340 
Q 3088 0 2303 0 
L 628 0 
L 628 4666 
z
" id="DejaVuSans-42" transform="scale(0.015625)"/>
       <path d="M 1959 3097 
Q 1497 3097 1228 2736 
Q 959 2375 959 1747 
Q 959 1119 1226 758 
Q 1494 397 1959 397 
Q 2419 397 2687 759 
Q 2956 1122 2956 1747 
Q 2956 2369 2687 2733 
Q 2419 3097 1959 3097 
z
M 1959 3584 
Q 2709 3584 3137 3096 
Q 3566 2609 3566 1747 
Q 3566 888 3137 398 
Q 2709 -91 1959 -91 
Q 1206 -91 779 398 
Q 353 888 353 1747 
Q 353 2609 779 3096 
Q 1206 3584 1959 3584 
z
" id="DejaVuSans-6f" transform="scale(0.015625)"/>
       <path d="M 1159 525 
L 1159 -1331 
L 581 -1331 
L 581 3500 
L 1159 3500 
L 1159 2969 
Q 1341 3281 1617 3432 
Q 1894 3584 2278 3584 
Q 2916 3584 3314 3078 
Q 3713 2572 3713 1747 
Q 3713 922 3314 415 
Q 2916 -91 2278 -91 
Q 1894 -91 1617 61 
Q 1341 213 1159 525 
z
M 3116 1747 
Q 3116 2381 2855 2742 
Q 2594 3103 2138 3103 
Q 1681 3103 1420 2742 
Q 1159 2381 1159 1747 
Q 1159 1113 1420 752 
Q 1681 391 2138 391 
Q 2594 391 2855 752 
Q 3116 1113 3116 1747 
z
" id="DejaVuSans-70" transform="scale(0.015625)"/>
      </defs>
      <use xlink:href="#DejaVuSans-53"/>
      <use x="63.476562" xlink:href="#DejaVuSans-69"/>
      <use x="91.259766" xlink:href="#DejaVuSans-74"/>
      <use x="130.46875" xlink:href="#DejaVuSans-65"/>
      <use x="191.992188" xlink:href="#DejaVuSans-20"/>
      <use x="223.779297" xlink:href="#DejaVuSans-41"/>
      <use x="292.1875" xlink:href="#DejaVuSans-20"/>
      <use x="323.974609" xlink:href="#DejaVuSans-42"/>
      <use x="392.578125" xlink:href="#DejaVuSans-75"/>
      <use x="455.957031" xlink:href="#DejaVuSans-74"/>
      <use x="495.166016" xlink:href="#DejaVuSans-74"/>
      <use x="534.375" xlink:href="#DejaVuSans-6f"/>
      <use x="595.556641" xlink:href="#DejaVuSans-6e"/>
      <use x="658.935547" xlink:href="#DejaVuSans-20"/>
      <use x="690.722656" xlink:href="#DejaVuSans-41"/>
      <use x="759.130859" xlink:href="#DejaVuSans-20"/>
      <use x="790.917969" xlink:href="#DejaVuSans-28"/>
      <use x="829.931641" xlink:href="#DejaVuSans-74"/>
      <use x="869.140625" xlink:href="#DejaVuSans-6f"/>
      <use x="930.322266" xlink:href="#DejaVuSans-70"/>
      <use x="993.798828" xlink:href="#DejaVuSans-29"/>
     </g>
    </g>
    <g id="line2d_61">
     <path d="M 633.05625 79.616562 
L 653.05625 79.616562 
" style="fill:none;stroke:#ff7f0e;stroke-linecap:square;stroke-width:1.5;"/>
    </g>
    <g id="line2d_62"/>
    <g id="text_15">
     <!-- Site B Button B (top) -->
     <g transform="translate(661.05625 83.116562)scale(0.1 -0.1)">
      <use xlink:href="#DejaVuSans-53"/>
      <use x="63.476562" xlink:href="#DejaVuSans-69"/>
      <use x="91.259766" xlink:href="#DejaVuSans-74"/>
      <use x="130.46875" xlink:href="#DejaVuSans-65"/>
      <use x="191.992188" xlink:href="#DejaVuSans-20"/>
      <use x="223.779297" xlink:href="#DejaVuSans-42"/>
      <use x="292.382812" xlink:href="#DejaVuSans-20"/>
      <use x="324.169922" xlink:href="#DejaVuSans-42"/>
      <use x="392.773438" xlink:href="#DejaVuSans-75"/>
      <use x="456.152344" xlink:href="#DejaVuSans-74"/>
      <use x="495.361328" xlink:href="#DejaVuSans-74"/>
      <use x="534.570312" xlink:href="#DejaVuSans-6f"/>
      <use x="595.751953" xlink:href="#DejaVuSans-6e"/>
      <use x="659.130859" xlink:href="#DejaVuSans-20"/>
      <use x="690.917969" xlink:href="#DejaVuSans-42"/>
      <use x="759.521484" xlink:href="#DejaVuSans-20"/>
      <use x="791.308594" xlink:href="#DejaVuSans-28"/>
      <use x="830.322266" xlink:href="#DejaVuSans-74"/>
      <use x="869.53125" xlink:href="#DejaVuSans-6f"/>
      <use x="930.712891" xlink:href="#DejaVuSans-70"/>
      <use x="994.189453" xlink:href="#DejaVuSans-29"/>
     </g>
    </g>
    <g id="line2d_63">
     <path d="M 633.05625 94.294687 
L 653.05625 94.294687 
" style="fill:none;stroke:#2ca02c;stroke-linecap:square;stroke-width:1.5;"/>
    </g>
    <g id="line2d_64"/>
    <g id="text_16">
     <!-- Site B Button C (side) -->
     <g transform="translate(661.05625 97.794687)scale(0.1 -0.1)">
      <defs>
       <path d="M 4122 4306 
L 4122 3641 
Q 3803 3938 3442 4084 
Q 3081 4231 2675 4231 
Q 1875 4231 1450 3742 
Q 1025 3253 1025 2328 
Q 1025 1406 1450 917 
Q 1875 428 2675 428 
Q 3081 428 3442 575 
Q 3803 722 4122 1019 
L 4122 359 
Q 3791 134 3420 21 
Q 3050 -91 2638 -91 
Q 1578 -91 968 557 
Q 359 1206 359 2328 
Q 359 3453 968 4101 
Q 1578 4750 2638 4750 
Q 3056 4750 3426 4639 
Q 3797 4528 4122 4306 
z
" id="DejaVuSans-43" transform="scale(0.015625)"/>
       <path d="M 2906 2969 
L 2906 4863 
L 3481 4863 
L 3481 0 
L 2906 0 
L 2906 525 
Q 2725 213 2448 61 
Q 2172 -91 1784 -91 
Q 1150 -91 751 415 
Q 353 922 353 1747 
Q 353 2572 751 3078 
Q 1150 3584 1784 3584 
Q 2172 3584 2448 3432 
Q 2725 3281 2906 2969 
z
M 947 1747 
Q 947 1113 1208 752 
Q 1469 391 1925 391 
Q 2381 391 2643 752 
Q 2906 1113 2906 1747 
Q 2906 2381 2643 2742 
Q 2381 3103 1925 3103 
Q 1469 3103 1208 2742 
Q 947 2381 947 1747 
z
" id="DejaVuSans-64" transform="scale(0.015625)"/>
      </defs>
      <use xlink:href="#DejaVuSans-53"/>
      <use x="63.476562" xlink:href="#DejaVuSans-69"/>
      <use x="91.259766" xlink:href="#DejaVuSans-74"/>
      <use x="130.46875" xlink:href="#DejaVuSans-65"/>
      <use x="191.992188" xlink:href="#DejaVuSans-20"/>
      <use x="223.779297" xlink:href="#DejaVuSans-42"/>
      <use x="292.382812" xlink:href="#DejaVuSans-20"/>
      <use x="324.169922" xlink:href="#DejaVuSans-42"/>
      <use x="392.773438" xlink:href="#DejaVuSans-75"/>
      <use x="456.152344" xlink:href="#DejaVuSans-74"/>
      <use x="495.361328" xlink:href="#DejaVuSans-74"/>
      <use x="534.570312" xlink:href="#DejaVuSans-6f"/>
      <use x="595.751953" xlink:href="#DejaVuSans-6e"/>
      <use x="659.130859" xlink:href="#DejaVuSans-20"/>
      <use x="690.917969" xlink:href="#DejaVuSans-43"/>
      <use x="760.742188" xlink:href="#DejaVuSans-20"/>
      <use x="792.529297" xlink:href="#DejaVuSans-28"/>
      <use x="831.542969" xlink:href="#DejaVuSans-73"/>
      <use x="883.642578" xlink:href="#DejaVuSans-69"/>
      <use x="911.425781" xlink:href="#DejaVuSans-64"/>
      <use x="974.902344" xlink:href="#DejaVuSans-65"/>
      <use x="1036.425781" xlink:href="#DejaVuSans-29"/>
     </g>
    </g>
   </g>
  </g>
 </g>
 <defs>
  <clipPath id="padeb267ae8">
   <rect height="326.16" width="669.6" x="108" y="51.84"/>
  </clipPath>
 </defs>
</svg>
