<?xml version="1.0" encoding="utf-8" standalone="no"?>
<!DOCTYPE svg PUBLIC "-//W3C//DTD SVG 1.1//EN"
  "http://www.w3.org/Graphics/SVG/1.1/DTD/svg11.dtd">
<svg height="432pt" version="1.1" viewBox="0 0 864 432" width="864pt" xmlns="http://www.w3.org/2000/svg" xmlns:xlink="http://www.w3.org/1999/xlink">
 <metadata>
  <rdf:RDF xmlns:cc="http://creativecommons.org/ns#" xmlns:dc="http://purl.org/dc/elements/1.1/" xmlns:rdf="http://www.w3.org/1999/02/22-rdf-syntax-ns#">
   <cc:Work>
    <dc:type rdf:resource="http://purl.org/dc/dcmitype/StillImage"/>
    <dc:date>2022-11-06T19:47:46.702827</dc:date>
    <dc:format>image/svg+xml</dc:format>
    <dc:creator>
     <cc:Agent>
      <dc:title>Matplotlib v3.4.3, https://matplotlib.org/</dc:title>
     </cc:Agent>
    </dc:creator>
   </cc:Work>
  </rdf:RDF>
 </metadata>
 <defs>
  <style type="text/css">*{stroke-linecap:butt;stroke-linejoin:round;}</style>
 </defs>
 <g id="figure_1">
  <g id="patch_1">
   <path d="M 0 432 
L 864 432 
L 864 0 
L 0 0 
z
" style="fill:#ffffff;"/>
  </g>
  <g id="axes_1">
   <g id="patch_2">
    <path d="M 108 378 
L 777.6 378 
L 777.6 51.84 
L 108 51.84 
z
" style="fill:#ffffff;"/>
   </g>
   <g id="matplotlib.axis_1">
    <g id="xtick_1">
     <g id="line2d_1">
      <defs>
       <path d="M 0 0 
L 0 3.5 
" id="m4e4ba0cb1c" style="stroke:#000000;stroke-width:0.8;"/>
      </defs>
      <g>
       <use style="stroke:#000000;stroke-width:0.8;" x="108" xlink:href="#m4e4ba0cb1c" y="378"/>
      </g>
     </g>
     <g id="text_1">
      <!-- 2019 -->
      <g transform="translate(95.275 392.598437)scale(0.1 -0.1)">
       <defs>
        <path d="M 1228 531 
L 3431 531 
L 3431 0 
L 469 0 
L 469 531 
Q 828 903 1448 1529 
Q 2069 2156 2228 2338 
Q 2531 2678 2651 2914 
Q 2772 3150 2772 3378 
Q 2772 3750 2511 3984 
Q 2250 4219 1831 4219 
Q 1534 4219 1204 4116 
Q 875 4013 500 3803 
L 500 4441 
Q 881 4594 1212 4672 
Q 1544 4750 1819 4750 
Q 2544 4750 2975 4387 
Q 3406 4025 3406 3419 
Q 3406 3131 3298 2873 
Q 3191 2616 2906 2266 
Q 2828 2175 2409 1742 
Q 1991 1309 1228 531 
z
" id="DejaVuSans-32" transform="scale(0.015625)"/>
        <path d="M 2034 4250 
Q 1547 4250 1301 3770 
Q 1056 3291 1056 2328 
Q 1056 1369 1301 889 
Q 1547 409 2034 409 
Q 2525 409 2770 889 
Q 3016 1369 3016 2328 
Q 3016 3291 2770 3770 
Q 2525 4250 2034 4250 
z
M 2034 4750 
Q 2819 4750 3233 4129 
Q 3647 3509 3647 2328 
Q 3647 1150 3233 529 
Q 2819 -91 2034 -91 
Q 1250 -91 836 529 
Q 422 1150 422 2328 
Q 422 3509 836 4129 
Q 1250 4750 2034 4750 
z
" id="DejaVuSans-30" transform="scale(0.015625)"/>
        <path d="M 794 531 
L 1825 531 
L 1825 4091 
L 703 3866 
L 703 4441 
L 1819 4666 
L 2450 4666 
L 2450 531 
L 3481 531 
L 3481 0 
L 794 0 
L 794 531 
z
" id="DejaVuSans-31" transform="scale(0.015625)"/>
        <path d="M 703 97 
L 703 672 
Q 941 559 1184 500 
Q 1428 441 1663 441 
Q 2288 441 2617 861 
Q 2947 1281 2994 2138 
Q 2813 1869 2534 1725 
Q 2256 1581 1919 1581 
Q 1219 1581 811 2004 
Q 403 2428 403 3163 
Q 403 3881 828 4315 
Q 1253 4750 1959 4750 
Q 2769 4750 3195 4129 
Q 3622 3509 3622 2328 
Q 3622 1225 3098 567 
Q 2575 -91 1691 -91 
Q 1453 -91 1209 -44 
Q 966 3 703 97 
z
M 1959 2075 
Q 2384 2075 2632 2365 
Q 2881 2656 2881 3163 
Q 2881 3666 2632 3958 
Q 2384 4250 1959 4250 
Q 1534 4250 1286 3958 
Q 1038 3666 1038 3163 
Q 1038 2656 1286 2365 
Q 1534 2075 1959 2075 
z
" id="DejaVuSans-39" transform="scale(0.015625)"/>
       </defs>
       <use xlink:href="#DejaVuSans-32"/>
       <use x="63.623047" xlink:href="#DejaVuSans-30"/>
       <use x="127.246094" xlink:href="#DejaVuSans-31"/>
       <use x="190.869141" xlink:href="#DejaVuSans-39"/>
      </g>
     </g>
    </g>
    <g id="xtick_2">
     <g id="line2d_2">
      <g>
       <use style="stroke:#000000;stroke-width:0.8;" x="275.285421" xlink:href="#m4e4ba0cb1c" y="378"/>
      </g>
     </g>
     <g id="text_2">
      <!-- 2020 -->
      <g transform="translate(262.560421 392.598437)scale(0.1 -0.1)">
       <use xlink:href="#DejaVuSans-32"/>
       <use x="63.623047" xlink:href="#DejaVuSans-30"/>
       <use x="127.246094" xlink:href="#DejaVuSans-32"/>
       <use x="190.869141" xlink:href="#DejaVuSans-30"/>
      </g>
     </g>
    </g>
    <g id="xtick_3">
     <g id="line2d_3">
      <g>
       <use style="stroke:#000000;stroke-width:0.8;" x="443.029158" xlink:href="#m4e4ba0cb1c" y="378"/>
      </g>
     </g>
     <g id="text_3">
      <!-- 2021 -->
      <g transform="translate(430.304158 392.598437)scale(0.1 -0.1)">
       <use xlink:href="#DejaVuSans-32"/>
       <use x="63.623047" xlink:href="#DejaVuSans-30"/>
       <use x="127.246094" xlink:href="#DejaVuSans-32"/>
       <use x="190.869141" xlink:href="#DejaVuSans-31"/>
      </g>
     </g>
    </g>
    <g id="xtick_4">
     <g id="line2d_4">
      <g>
       <use style="stroke:#000000;stroke-width:0.8;" x="610.314579" xlink:href="#m4e4ba0cb1c" y="378"/>
      </g>
     </g>
     <g id="text_4">
      <!-- 2022 -->
      <g transform="translate(597.589579 392.598437)scale(0.1 -0.1)">
       <use xlink:href="#DejaVuSans-32"/>
       <use x="63.623047" xlink:href="#DejaVuSans-30"/>
       <use x="127.246094" xlink:href="#DejaVuSans-32"/>
       <use x="190.869141" xlink:href="#DejaVuSans-32"/>
      </g>
     </g>
    </g>
    <g id="xtick_5">
     <g id="line2d_5">
      <g>
       <use style="stroke:#000000;stroke-width:0.8;" x="777.6" xlink:href="#m4e4ba0cb1c" y="378"/>
      </g>
     </g>
     <g id="text_5">
      <!-- 2023 -->
      <g transform="translate(764.875 392.598437)scale(0.1 -0.1)">
       <defs>
        <path d="M 2597 2516 
Q 3050 2419 3304 2112 
Q 3559 1806 3559 1356 
Q 3559 666 3084 287 
Q 2609 -91 1734 -91 
Q 1441 -91 1130 -33 
Q 819 25 488 141 
L 488 750 
Q 750 597 1062 519 
Q 1375 441 1716 441 
Q 2309 441 2620 675 
Q 2931 909 2931 1356 
Q 2931 1769 2642 2001 
Q 2353 2234 1838 2234 
L 1294 2234 
L 1294 2753 
L 1863 2753 
Q 2328 2753 2575 2939 
Q 2822 3125 2822 3475 
Q 2822 3834 2567 4026 
Q 2313 4219 1838 4219 
Q 1578 4219 1281 4162 
Q 984 4106 628 3988 
L 628 4550 
Q 988 4650 1302 4700 
Q 1616 4750 1894 4750 
Q 2613 4750 3031 4423 
Q 3450 4097 3450 3541 
Q 3450 3153 3228 2886 
Q 3006 2619 2597 2516 
z
" id="DejaVuSans-33" transform="scale(0.015625)"/>
       </defs>
       <use xlink:href="#DejaVuSans-32"/>
       <use x="63.623047" xlink:href="#DejaVuSans-30"/>
       <use x="127.246094" xlink:href="#DejaVuSans-32"/>
       <use x="190.869141" xlink:href="#DejaVuSans-33"/>
      </g>
     </g>
    </g>
    <g id="xtick_6">
     <g id="line2d_6">
      <defs>
       <path d="M 0 0 
L 0 2 
" id="mea46044a49" style="stroke:#000000;stroke-width:0.6;"/>
      </defs>
      <g>
       <use style="stroke:#000000;stroke-width:0.6;" x="122.207803" xlink:href="#mea46044a49" y="378"/>
      </g>
     </g>
    </g>
    <g id="xtick_7">
     <g id="line2d_7">
      <g>
       <use style="stroke:#000000;stroke-width:0.6;" x="135.040657" xlink:href="#mea46044a49" y="378"/>
      </g>
     </g>
    </g>
    <g id="xtick_8">
     <g id="line2d_8">
      <g>
       <use style="stroke:#000000;stroke-width:0.6;" x="149.24846" xlink:href="#mea46044a49" y="378"/>
      </g>
     </g>
    </g>
    <g id="xtick_9">
     <g id="line2d_9">
      <g>
       <use style="stroke:#000000;stroke-width:0.6;" x="162.997947" xlink:href="#mea46044a49" y="378"/>
      </g>
     </g>
    </g>
    <g id="xtick_10">
     <g id="line2d_10">
      <g>
       <use style="stroke:#000000;stroke-width:0.6;" x="177.205749" xlink:href="#mea46044a49" y="378"/>
      </g>
     </g>
    </g>
    <g id="xtick_11">
     <g id="line2d_11">
      <g>
       <use style="stroke:#000000;stroke-width:0.6;" x="190.955236" xlink:href="#mea46044a49" y="378"/>
      </g>
     </g>
    </g>
    <g id="xtick_12">
     <g id="line2d_12">
      <g>
       <use style="stroke:#000000;stroke-width:0.6;" x="205.163039" xlink:href="#mea46044a49" y="378"/>
      </g>
     </g>
    </g>
    <g id="xtick_13">
     <g id="line2d_13">
      <g>
       <use style="stroke:#000000;stroke-width:0.6;" x="219.370842" xlink:href="#mea46044a49" y="378"/>
      </g>
     </g>
    </g>
    <g id="xtick_14">
     <g id="line2d_14">
      <g>
       <use style="stroke:#000000;stroke-width:0.6;" x="233.120329" xlink:href="#mea46044a49" y="378"/>
      </g>
     </g>
    </g>
    <g id="xtick_15">
     <g id="line2d_15">
      <g>
       <use style="stroke:#000000;stroke-width:0.6;" x="247.328131" xlink:href="#mea46044a49" y="378"/>
      </g>
     </g>
    </g>
    <g id="xtick_16">
     <g id="line2d_16">
      <g>
       <use style="stroke:#000000;stroke-width:0.6;" x="261.077618" xlink:href="#mea46044a49" y="378"/>
      </g>
     </g>
    </g>
    <g id="xtick_17">
     <g id="line2d_17">
      <g>
       <use style="stroke:#000000;stroke-width:0.6;" x="289.493224" xlink:href="#mea46044a49" y="378"/>
      </g>
     </g>
    </g>
    <g id="xtick_18">
     <g id="line2d_18">
      <g>
       <use style="stroke:#000000;stroke-width:0.6;" x="302.784394" xlink:href="#mea46044a49" y="378"/>
      </g>
     </g>
    </g>
    <g id="xtick_19">
     <g id="line2d_19">
      <g>
       <use style="stroke:#000000;stroke-width:0.6;" x="316.992197" xlink:href="#mea46044a49" y="378"/>
      </g>
     </g>
    </g>
    <g id="xtick_20">
     <g id="line2d_20">
      <g>
       <use style="stroke:#000000;stroke-width:0.6;" x="330.741684" xlink:href="#mea46044a49" y="378"/>
      </g>
     </g>
    </g>
    <g id="xtick_21">
     <g id="line2d_21">
      <g>
       <use style="stroke:#000000;stroke-width:0.6;" x="344.949487" xlink:href="#mea46044a49" y="378"/>
      </g>
     </g>
    </g>
    <g id="xtick_22">
     <g id="line2d_22">
      <g>
       <use style="stroke:#000000;stroke-width:0.6;" x="358.698973" xlink:href="#mea46044a49" y="378"/>
      </g>
     </g>
    </g>
    <g id="xtick_23">
     <g id="line2d_23">
      <g>
       <use style="stroke:#000000;stroke-width:0.6;" x="372.906776" xlink:href="#mea46044a49" y="378"/>
      </g>
     </g>
    </g>
    <g id="xtick_24">
     <g id="line2d_24">
      <g>
       <use style="stroke:#000000;stroke-width:0.6;" x="387.114579" xlink:href="#mea46044a49" y="378"/>
      </g>
     </g>
    </g>
    <g id="xtick_25">
     <g id="line2d_25">
      <g>
       <use style="stroke:#000000;stroke-width:0.6;" x="400.864066" xlink:href="#mea46044a49" y="378"/>
      </g>
     </g>
    </g>
    <g id="xtick_26">
     <g id="line2d_26">
      <g>
       <use style="stroke:#000000;stroke-width:0.6;" x="415.071869" xlink:href="#mea46044a49" y="378"/>
      </g>
     </g>
    </g>
    <g id="xtick_27">
     <g id="line2d_27">
      <g>
       <use style="stroke:#000000;stroke-width:0.6;" x="428.821355" xlink:href="#mea46044a49" y="378"/>
      </g>
     </g>
    </g>
    <g id="xtick_28">
     <g id="line2d_28">
      <g>
       <use style="stroke:#000000;stroke-width:0.6;" x="457.236961" xlink:href="#mea46044a49" y="378"/>
      </g>
     </g>
    </g>
    <g id="xtick_29">
     <g id="line2d_29">
      <g>
       <use style="stroke:#000000;stroke-width:0.6;" x="470.069815" xlink:href="#mea46044a49" y="378"/>
      </g>
     </g>
    </g>
    <g id="xtick_30">
     <g id="line2d_30">
      <g>
       <use style="stroke:#000000;stroke-width:0.6;" x="484.277618" xlink:href="#mea46044a49" y="378"/>
      </g>
     </g>
    </g>
    <g id="xtick_31">
     <g id="line2d_31">
      <g>
       <use style="stroke:#000000;stroke-width:0.6;" x="498.027105" xlink:href="#mea46044a49" y="378"/>
      </g>
     </g>
    </g>
    <g id="xtick_32">
     <g id="line2d_32">
      <g>
       <use style="stroke:#000000;stroke-width:0.6;" x="512.234908" xlink:href="#mea46044a49" y="378"/>
      </g>
     </g>
    </g>
    <g id="xtick_33">
     <g id="line2d_33">
      <g>
       <use style="stroke:#000000;stroke-width:0.6;" x="525.984394" xlink:href="#mea46044a49" y="378"/>
      </g>
     </g>
    </g>
    <g id="xtick_34">
     <g id="line2d_34">
      <g>
       <use style="stroke:#000000;stroke-width:0.6;" x="540.192197" xlink:href="#mea46044a49" y="378"/>
      </g>
     </g>
    </g>
    <g id="xtick_35">
     <g id="line2d_35">
      <g>
       <use style="stroke:#000000;stroke-width:0.6;" x="554.4" xlink:href="#mea46044a49" y="378"/>
      </g>
     </g>
    </g>
    <g id="xtick_36">
     <g id="line2d_36">
      <g>
       <use style="stroke:#000000;stroke-width:0.6;" x="568.149487" xlink:href="#mea46044a49" y="378"/>
      </g>
     </g>
    </g>
    <g id="xtick_37">
     <g id="line2d_37">
      <g>
       <use style="stroke:#000000;stroke-width:0.6;" x="582.35729" xlink:href="#mea46044a49" y="378"/>
      </g>
     </g>
    </g>
    <g id="xtick_38">
     <g id="line2d_38">
      <g>
       <use style="stroke:#000000;stroke-width:0.6;" x="596.106776" xlink:href="#mea46044a49" y="378"/>
      </g>
     </g>
    </g>
    <g id="xtick_39">
     <g id="line2d_39">
      <g>
       <use style="stroke:#000000;stroke-width:0.6;" x="624.522382" xlink:href="#mea46044a49" y="378"/>
      </g>
     </g>
    </g>
    <g id="xtick_40">
     <g id="line2d_40">
      <g>
       <use style="stroke:#000000;stroke-width:0.6;" x="637.355236" xlink:href="#mea46044a49" y="378"/>
      </g>
     </g>
    </g>
    <g id="xtick_41">
     <g id="line2d_41">
      <g>
       <use style="stroke:#000000;stroke-width:0.6;" x="651.563039" xlink:href="#mea46044a49" y="378"/>
      </g>
     </g>
    </g>
    <g id="xtick_42">
     <g id="line2d_42">
      <g>
       <use style="stroke:#000000;stroke-width:0.6;" x="665.312526" xlink:href="#mea46044a49" y="378"/>
      </g>
     </g>
    </g>
    <g id="xtick_43">
     <g id="line2d_43">
      <g>
       <use style="stroke:#000000;stroke-width:0.6;" x="679.520329" xlink:href="#mea46044a49" y="378"/>
      </g>
     </g>
    </g>
    <g id="xtick_44">
     <g id="line2d_44">
      <g>
       <use style="stroke:#000000;stroke-width:0.6;" x="693.269815" xlink:href="#mea46044a49" y="378"/>
      </g>
     </g>
    </g>
    <g id="xtick_45">
     <g id="line2d_45">
      <g>
       <use style="stroke:#000000;stroke-width:0.6;" x="707.477618" xlink:href="#mea46044a49" y="378"/>
      </g>
     </g>
    </g>
    <g id="xtick_46">
     <g id="line2d_46">
      <g>
       <use style="stroke:#000000;stroke-width:0.6;" x="721.685421" xlink:href="#mea46044a49" y="378"/>
      </g>
     </g>
    </g>
    <g id="xtick_47">
     <g id="line2d_47">
      <g>
       <use style="stroke:#000000;stroke-width:0.6;" x="735.434908" xlink:href="#mea46044a49" y="378"/>
      </g>
     </g>
    </g>
    <g id="xtick_48">
     <g id="line2d_48">
      <g>
       <use style="stroke:#000000;stroke-width:0.6;" x="749.64271" xlink:href="#mea46044a49" y="378"/>
      </g>
     </g>
    </g>
    <g id="xtick_49">
     <g id="line2d_49">
      <g>
       <use style="stroke:#000000;stroke-width:0.6;" x="763.392197" xlink:href="#mea46044a49" y="378"/>
      </g>
     </g>
    </g>
    <g id="text_6">
     <!-- Date -->
     <g transform="translate(430.849219 406.276563)scale(0.1 -0.1)">
      <defs>
       <path d="M 1259 4147 
L 1259 519 
L 2022 519 
Q 2988 519 3436 956 
Q 3884 1394 3884 2338 
Q 3884 3275 3436 3711 
Q 2988 4147 2022 4147 
L 1259 4147 
z
M 628 4666 
L 1925 4666 
Q 3281 4666 3915 4102 
Q 4550 3538 4550 2338 
Q 4550 1131 3912 565 
Q 3275 0 1925 0 
L 628 0 
L 628 4666 
z
" id="DejaVuSans-44" transform="scale(0.015625)"/>
       <path d="M 2194 1759 
Q 1497 1759 1228 1600 
Q 959 1441 959 1056 
Q 959 750 1161 570 
Q 1363 391 1709 391 
Q 2188 391 2477 730 
Q 2766 1069 2766 1631 
L 2766 1759 
L 2194 1759 
z
M 3341 1997 
L 3341 0 
L 2766 0 
L 2766 531 
Q 2569 213 2275 61 
Q 1981 -91 1556 -91 
Q 1019 -91 701 211 
Q 384 513 384 1019 
Q 384 1609 779 1909 
Q 1175 2209 1959 2209 
L 2766 2209 
L 2766 2266 
Q 2766 2663 2505 2880 
Q 2244 3097 1772 3097 
Q 1472 3097 1187 3025 
Q 903 2953 641 2809 
L 641 3341 
Q 956 3463 1253 3523 
Q 1550 3584 1831 3584 
Q 2591 3584 2966 3190 
Q 3341 2797 3341 1997 
z
" id="DejaVuSans-61" transform="scale(0.015625)"/>
       <path d="M 1172 4494 
L 1172 3500 
L 2356 3500 
L 2356 3053 
L 1172 3053 
L 1172 1153 
Q 1172 725 1289 603 
Q 1406 481 1766 481 
L 2356 481 
L 2356 0 
L 1766 0 
Q 1100 0 847 248 
Q 594 497 594 1153 
L 594 3053 
L 172 3053 
L 172 3500 
L 594 3500 
L 594 4494 
L 1172 4494 
z
" id="DejaVuSans-74" transform="scale(0.015625)"/>
       <path d="M 3597 1894 
L 3597 1613 
L 953 1613 
Q 991 1019 1311 708 
Q 1631 397 2203 397 
Q 2534 397 2845 478 
Q 3156 559 3463 722 
L 3463 178 
Q 3153 47 2828 -22 
Q 2503 -91 2169 -91 
Q 1331 -91 842 396 
Q 353 884 353 1716 
Q 353 2575 817 3079 
Q 1281 3584 2069 3584 
Q 2775 3584 3186 3129 
Q 3597 2675 3597 1894 
z
M 3022 2063 
Q 3016 2534 2758 2815 
Q 2500 3097 2075 3097 
Q 1594 3097 1305 2825 
Q 1016 2553 972 2059 
L 3022 2063 
z
" id="DejaVuSans-65" transform="scale(0.015625)"/>
      </defs>
      <use xlink:href="#DejaVuSans-44"/>
      <use x="77.001953" xlink:href="#DejaVuSans-61"/>
      <use x="138.28125" xlink:href="#DejaVuSans-74"/>
      <use x="177.490234" xlink:href="#DejaVuSans-65"/>
     </g>
    </g>
   </g>
   <g id="matplotlib.axis_2">
    <g id="ytick_1">
     <g id="line2d_50">
      <defs>
       <path d="M 0 0 
L -3.5 0 
" id="m9447da0e48" style="stroke:#000000;stroke-width:0.8;"/>
      </defs>
      <g>
       <use style="stroke:#000000;stroke-width:0.8;" x="108" xlink:href="#m9447da0e48" y="376.441376"/>
      </g>
     </g>
     <g id="text_7">
      <!-- 86 -->
      <g transform="translate(88.275 380.240595)scale(0.1 -0.1)">
       <defs>
        <path d="M 2034 2216 
Q 1584 2216 1326 1975 
Q 1069 1734 1069 1313 
Q 1069 891 1326 650 
Q 1584 409 2034 409 
Q 2484 409 2743 651 
Q 3003 894 3003 1313 
Q 3003 1734 2745 1975 
Q 2488 2216 2034 2216 
z
M 1403 2484 
Q 997 2584 770 2862 
Q 544 3141 544 3541 
Q 544 4100 942 4425 
Q 1341 4750 2034 4750 
Q 2731 4750 3128 4425 
Q 3525 4100 3525 3541 
Q 3525 3141 3298 2862 
Q 3072 2584 2669 2484 
Q 3125 2378 3379 2068 
Q 3634 1759 3634 1313 
Q 3634 634 3220 271 
Q 2806 -91 2034 -91 
Q 1263 -91 848 271 
Q 434 634 434 1313 
Q 434 1759 690 2068 
Q 947 2378 1403 2484 
z
M 1172 3481 
Q 1172 3119 1398 2916 
Q 1625 2713 2034 2713 
Q 2441 2713 2670 2916 
Q 2900 3119 2900 3481 
Q 2900 3844 2670 4047 
Q 2441 4250 2034 4250 
Q 1625 4250 1398 4047 
Q 1172 3844 1172 3481 
z
" id="DejaVuSans-38" transform="scale(0.015625)"/>
        <path d="M 2113 2584 
Q 1688 2584 1439 2293 
Q 1191 2003 1191 1497 
Q 1191 994 1439 701 
Q 1688 409 2113 409 
Q 2538 409 2786 701 
Q 3034 994 3034 1497 
Q 3034 2003 2786 2293 
Q 2538 2584 2113 2584 
z
M 3366 4563 
L 3366 3988 
Q 3128 4100 2886 4159 
Q 2644 4219 2406 4219 
Q 1781 4219 1451 3797 
Q 1122 3375 1075 2522 
Q 1259 2794 1537 2939 
Q 1816 3084 2150 3084 
Q 2853 3084 3261 2657 
Q 3669 2231 3669 1497 
Q 3669 778 3244 343 
Q 2819 -91 2113 -91 
Q 1303 -91 875 529 
Q 447 1150 447 2328 
Q 447 3434 972 4092 
Q 1497 4750 2381 4750 
Q 2619 4750 2861 4703 
Q 3103 4656 3366 4563 
z
" id="DejaVuSans-36" transform="scale(0.015625)"/>
       </defs>
       <use xlink:href="#DejaVuSans-38"/>
       <use x="63.623047" xlink:href="#DejaVuSans-36"/>
      </g>
     </g>
    </g>
    <g id="ytick_2">
     <g id="line2d_51">
      <g>
       <use style="stroke:#000000;stroke-width:0.8;" x="108" xlink:href="#m9447da0e48" y="333.086616"/>
      </g>
     </g>
     <g id="text_8">
      <!-- 88 -->
      <g transform="translate(88.275 336.885835)scale(0.1 -0.1)">
       <use xlink:href="#DejaVuSans-38"/>
       <use x="63.623047" xlink:href="#DejaVuSans-38"/>
      </g>
     </g>
    </g>
    <g id="ytick_3">
     <g id="line2d_52">
      <g>
       <use style="stroke:#000000;stroke-width:0.8;" x="108" xlink:href="#m9447da0e48" y="289.731856"/>
      </g>
     </g>
     <g id="text_9">
      <!-- 90 -->
      <g transform="translate(88.275 293.531075)scale(0.1 -0.1)">
       <use xlink:href="#DejaVuSans-39"/>
       <use x="63.623047" xlink:href="#DejaVuSans-30"/>
      </g>
     </g>
    </g>
    <g id="ytick_4">
     <g id="line2d_53">
      <g>
       <use style="stroke:#000000;stroke-width:0.8;" x="108" xlink:href="#m9447da0e48" y="246.377096"/>
      </g>
     </g>
     <g id="text_10">
      <!-- 92 -->
      <g transform="translate(88.275 250.176315)scale(0.1 -0.1)">
       <use xlink:href="#DejaVuSans-39"/>
       <use x="63.623047" xlink:href="#DejaVuSans-32"/>
      </g>
     </g>
    </g>
    <g id="ytick_5">
     <g id="line2d_54">
      <g>
       <use style="stroke:#000000;stroke-width:0.8;" x="108" xlink:href="#m9447da0e48" y="203.022336"/>
      </g>
     </g>
     <g id="text_11">
      <!-- 94 -->
      <g transform="translate(88.275 206.821555)scale(0.1 -0.1)">
       <defs>
        <path d="M 2419 4116 
L 825 1625 
L 2419 1625 
L 2419 4116 
z
M 2253 4666 
L 3047 4666 
L 3047 1625 
L 3713 1625 
L 3713 1100 
L 3047 1100 
L 3047 0 
L 2419 0 
L 2419 1100 
L 313 1100 
L 313 1709 
L 2253 4666 
z
" id="DejaVuSans-34" transform="scale(0.015625)"/>
       </defs>
       <use xlink:href="#DejaVuSans-39"/>
       <use x="63.623047" xlink:href="#DejaVuSans-34"/>
      </g>
     </g>
    </g>
    <g id="ytick_6">
     <g id="line2d_55">
      <g>
       <use style="stroke:#000000;stroke-width:0.8;" x="108" xlink:href="#m9447da0e48" y="159.667576"/>
      </g>
     </g>
     <g id="text_12">
      <!-- 96 -->
      <g transform="translate(88.275 163.466795)scale(0.1 -0.1)">
       <use xlink:href="#DejaVuSans-39"/>
       <use x="63.623047" xlink:href="#DejaVuSans-36"/>
      </g>
     </g>
    </g>
    <g id="ytick_7">
     <g id="line2d_56">
      <g>
       <use style="stroke:#000000;stroke-width:0.8;" x="108" xlink:href="#m9447da0e48" y="116.312816"/>
      </g>
     </g>
     <g id="text_13">
      <!-- 98 -->
      <g transform="translate(88.275 120.112035)scale(0.1 -0.1)">
       <use xlink:href="#DejaVuSans-39"/>
       <use x="63.623047" xlink:href="#DejaVuSans-38"/>
      </g>
     </g>
    </g>
    <g id="ytick_8">
     <g id="line2d_57">
      <g>
       <use style="stroke:#000000;stroke-width:0.8;" x="108" xlink:href="#m9447da0e48" y="72.958056"/>
      </g>
     </g>
     <g id="text_14">
      <!-- 100 -->
      <g transform="translate(81.9125 76.757275)scale(0.1 -0.1)">
       <use xlink:href="#DejaVuSans-31"/>
       <use x="63.623047" xlink:href="#DejaVuSans-30"/>
       <use x="127.246094" xlink:href="#DejaVuSans-30"/>
      </g>
     </g>
    </g>
    <g id="text_15">
     <!-- Absolute pressure (in Hg) -->
     <g transform="translate(75.832812 278.525469)rotate(-90)scale(0.1 -0.1)">
      <defs>
       <path d="M 2188 4044 
L 1331 1722 
L 3047 1722 
L 2188 4044 
z
M 1831 4666 
L 2547 4666 
L 4325 0 
L 3669 0 
L 3244 1197 
L 1141 1197 
L 716 0 
L 50 0 
L 1831 4666 
z
" id="DejaVuSans-41" transform="scale(0.015625)"/>
       <path d="M 3116 1747 
Q 3116 2381 2855 2742 
Q 2594 3103 2138 3103 
Q 1681 3103 1420 2742 
Q 1159 2381 1159 1747 
Q 1159 1113 1420 752 
Q 1681 391 2138 391 
Q 2594 391 2855 752 
Q 3116 1113 3116 1747 
z
M 1159 2969 
Q 1341 3281 1617 3432 
Q 1894 3584 2278 3584 
Q 2916 3584 3314 3078 
Q 3713 2572 3713 1747 
Q 3713 922 3314 415 
Q 2916 -91 2278 -91 
Q 1894 -91 1617 61 
Q 1341 213 1159 525 
L 1159 0 
L 581 0 
L 581 4863 
L 1159 4863 
L 1159 2969 
z
" id="DejaVuSans-62" transform="scale(0.015625)"/>
       <path d="M 2834 3397 
L 2834 2853 
Q 2591 2978 2328 3040 
Q 2066 3103 1784 3103 
Q 1356 3103 1142 2972 
Q 928 2841 928 2578 
Q 928 2378 1081 2264 
Q 1234 2150 1697 2047 
L 1894 2003 
Q 2506 1872 2764 1633 
Q 3022 1394 3022 966 
Q 3022 478 2636 193 
Q 2250 -91 1575 -91 
Q 1294 -91 989 -36 
Q 684 19 347 128 
L 347 722 
Q 666 556 975 473 
Q 1284 391 1588 391 
Q 1994 391 2212 530 
Q 2431 669 2431 922 
Q 2431 1156 2273 1281 
Q 2116 1406 1581 1522 
L 1381 1569 
Q 847 1681 609 1914 
Q 372 2147 372 2553 
Q 372 3047 722 3315 
Q 1072 3584 1716 3584 
Q 2034 3584 2315 3537 
Q 2597 3491 2834 3397 
z
" id="DejaVuSans-73" transform="scale(0.015625)"/>
       <path d="M 1959 3097 
Q 1497 3097 1228 2736 
Q 959 2375 959 1747 
Q 959 1119 1226 758 
Q 1494 397 1959 397 
Q 2419 397 2687 759 
Q 2956 1122 2956 1747 
Q 2956 2369 2687 2733 
Q 2419 3097 1959 3097 
z
M 1959 3584 
Q 2709 3584 3137 3096 
Q 3566 2609 3566 1747 
Q 3566 888 3137 398 
Q 2709 -91 1959 -91 
Q 1206 -91 779 398 
Q 353 888 353 1747 
Q 353 2609 779 3096 
Q 1206 3584 1959 3584 
z
" id="DejaVuSans-6f" transform="scale(0.015625)"/>
       <path d="M 603 4863 
L 1178 4863 
L 1178 0 
L 603 0 
L 603 4863 
z
" id="DejaVuSans-6c" transform="scale(0.015625)"/>
       <path d="M 544 1381 
L 544 3500 
L 1119 3500 
L 1119 1403 
Q 1119 906 1312 657 
Q 1506 409 1894 409 
Q 2359 409 2629 706 
Q 2900 1003 2900 1516 
L 2900 3500 
L 3475 3500 
L 3475 0 
L 2900 0 
L 2900 538 
Q 2691 219 2414 64 
Q 2138 -91 1772 -91 
Q 1169 -91 856 284 
Q 544 659 544 1381 
z
M 1991 3584 
L 1991 3584 
z
" id="DejaVuSans-75" transform="scale(0.015625)"/>
       <path id="DejaVuSans-20" transform="scale(0.015625)"/>
       <path d="M 1159 525 
L 1159 -1331 
L 581 -1331 
L 581 3500 
L 1159 3500 
L 1159 2969 
Q 1341 3281 1617 3432 
Q 1894 3584 2278 3584 
Q 2916 3584 3314 3078 
Q 3713 2572 3713 1747 
Q 3713 922 3314 415 
Q 2916 -91 2278 -91 
Q 1894 -91 1617 61 
Q 1341 213 1159 525 
z
M 3116 1747 
Q 3116 2381 2855 2742 
Q 2594 3103 2138 3103 
Q 1681 3103 1420 2742 
Q 1159 2381 1159 1747 
Q 1159 1113 1420 752 
Q 1681 391 2138 391 
Q 2594 391 2855 752 
Q 3116 1113 3116 1747 
z
" id="DejaVuSans-70" transform="scale(0.015625)"/>
       <path d="M 2631 2963 
Q 2534 3019 2420 3045 
Q 2306 3072 2169 3072 
Q 1681 3072 1420 2755 
Q 1159 2438 1159 1844 
L 1159 0 
L 581 0 
L 581 3500 
L 1159 3500 
L 1159 2956 
Q 1341 3275 1631 3429 
Q 1922 3584 2338 3584 
Q 2397 3584 2469 3576 
Q 2541 3569 2628 3553 
L 2631 2963 
z
" id="DejaVuSans-72" transform="scale(0.015625)"/>
       <path d="M 1984 4856 
Q 1566 4138 1362 3434 
Q 1159 2731 1159 2009 
Q 1159 1288 1364 580 
Q 1569 -128 1984 -844 
L 1484 -844 
Q 1016 -109 783 600 
Q 550 1309 550 2009 
Q 550 2706 781 3412 
Q 1013 4119 1484 4856 
L 1984 4856 
z
" id="DejaVuSans-28" transform="scale(0.015625)"/>
       <path d="M 603 3500 
L 1178 3500 
L 1178 0 
L 603 0 
L 603 3500 
z
M 603 4863 
L 1178 4863 
L 1178 4134 
L 603 4134 
L 603 4863 
z
" id="DejaVuSans-69" transform="scale(0.015625)"/>
       <path d="M 3513 2113 
L 3513 0 
L 2938 0 
L 2938 2094 
Q 2938 2591 2744 2837 
Q 2550 3084 2163 3084 
Q 1697 3084 1428 2787 
Q 1159 2491 1159 1978 
L 1159 0 
L 581 0 
L 581 3500 
L 1159 3500 
L 1159 2956 
Q 1366 3272 1645 3428 
Q 1925 3584 2291 3584 
Q 2894 3584 3203 3211 
Q 3513 2838 3513 2113 
z
" id="DejaVuSans-6e" transform="scale(0.015625)"/>
       <path d="M 628 4666 
L 1259 4666 
L 1259 2753 
L 3553 2753 
L 3553 4666 
L 4184 4666 
L 4184 0 
L 3553 0 
L 3553 2222 
L 1259 2222 
L 1259 0 
L 628 0 
L 628 4666 
z
" id="DejaVuSans-48" transform="scale(0.015625)"/>
       <path d="M 2906 1791 
Q 2906 2416 2648 2759 
Q 2391 3103 1925 3103 
Q 1463 3103 1205 2759 
Q 947 2416 947 1791 
Q 947 1169 1205 825 
Q 1463 481 1925 481 
Q 2391 481 2648 825 
Q 2906 1169 2906 1791 
z
M 3481 434 
Q 3481 -459 3084 -895 
Q 2688 -1331 1869 -1331 
Q 1566 -1331 1297 -1286 
Q 1028 -1241 775 -1147 
L 775 -588 
Q 1028 -725 1275 -790 
Q 1522 -856 1778 -856 
Q 2344 -856 2625 -561 
Q 2906 -266 2906 331 
L 2906 616 
Q 2728 306 2450 153 
Q 2172 0 1784 0 
Q 1141 0 747 490 
Q 353 981 353 1791 
Q 353 2603 747 3093 
Q 1141 3584 1784 3584 
Q 2172 3584 2450 3431 
Q 2728 3278 2906 2969 
L 2906 3500 
L 3481 3500 
L 3481 434 
z
" id="DejaVuSans-67" transform="scale(0.015625)"/>
       <path d="M 513 4856 
L 1013 4856 
Q 1481 4119 1714 3412 
Q 1947 2706 1947 2009 
Q 1947 1309 1714 600 
Q 1481 -109 1013 -844 
L 513 -844 
Q 928 -128 1133 580 
Q 1338 1288 1338 2009 
Q 1338 2731 1133 3434 
Q 928 4138 513 4856 
z
" id="DejaVuSans-29" transform="scale(0.015625)"/>
      </defs>
      <use xlink:href="#DejaVuSans-41"/>
      <use x="68.408203" xlink:href="#DejaVuSans-62"/>
      <use x="131.884766" xlink:href="#DejaVuSans-73"/>
      <use x="183.984375" xlink:href="#DejaVuSans-6f"/>
      <use x="245.166016" xlink:href="#DejaVuSans-6c"/>
      <use x="272.949219" xlink:href="#DejaVuSans-75"/>
      <use x="336.328125" xlink:href="#DejaVuSans-74"/>
      <use x="375.537109" xlink:href="#DejaVuSans-65"/>
      <use x="437.060547" xlink:href="#DejaVuSans-20"/>
      <use x="468.847656" xlink:href="#DejaVuSans-70"/>
      <use x="532.324219" xlink:href="#DejaVuSans-72"/>
      <use x="571.1875" xlink:href="#DejaVuSans-65"/>
      <use x="632.710938" xlink:href="#DejaVuSans-73"/>
      <use x="684.810547" xlink:href="#DejaVuSans-73"/>
      <use x="736.910156" xlink:href="#DejaVuSans-75"/>
      <use x="800.289062" xlink:href="#DejaVuSans-72"/>
      <use x="839.152344" xlink:href="#DejaVuSans-65"/>
      <use x="900.675781" xlink:href="#DejaVuSans-20"/>
      <use x="932.462891" xlink:href="#DejaVuSans-28"/>
      <use x="971.476562" xlink:href="#DejaVuSans-69"/>
      <use x="999.259766" xlink:href="#DejaVuSans-6e"/>
      <use x="1062.638672" xlink:href="#DejaVuSans-20"/>
      <use x="1094.425781" xlink:href="#DejaVuSans-48"/>
      <use x="1169.621094" xlink:href="#DejaVuSans-67"/>
      <use x="1233.097656" xlink:href="#DejaVuSans-29"/>
     </g>
    </g>
   </g>
   <g id="line2d_58">
    <path clip-path="url(#pdc24e13ab1)" d="M 140.998768 363.174545 
L 141.457084 340.00559 
L 141.9154 272.517792 
L 142.373717 239.781722 
L 142.832033 221.069573 
L 143.290349 208.403562 
L 143.748665 200.090722 
L 144.665298 147.687899 
L 145.123614 149.292004 
L 145.58193 148.320382 
L 146.040246 145.896805 
L 146.956879 145.55258 
L 147.873511 138.29069 
L 148.331828 133.875903 
L 148.790144 131.965476 
L 149.24846 131.882433 
L 149.706776 132.013089 
L 150.165092 130.242178 
L 150.623409 129.691652 
L 151.081725 131.517358 
L 151.540041 132.796195 
L 151.998357 132.195938 
L 152.91499 129.582502 
L 154.748255 125.136434 
L 155.664887 128.973116 
L 156.123203 126.725937 
L 157.498152 112.18792 
L 157.956468 111.99691 
L 158.414784 108.966055 
L 159.331417 98.148322 
L 159.789733 96.736056 
L 160.248049 96.385841 
L 160.706366 95.410155 
L 161.164682 91.876764 
L 161.622998 89.875627 
L 162.081314 91.096969 
L 162.53963 93.013998 
L 162.997947 91.700355 
L 163.456263 91.060141 
L 163.914579 89.41622 
L 164.372895 88.498727 
L 164.831211 87.998158 
L 165.289528 86.781762 
L 165.747844 85.158152 
L 166.664476 86.969848 
L 167.122793 87.089407 
L 168.039425 84.023165 
L 168.956057 81.230525 
L 169.414374 81.131665 
L 169.87269 82.723845 
L 170.789322 84.598196 
L 172.164271 92.422322 
L 172.622587 93.852244 
L 173.080903 93.152557 
L 173.53922 91.550495 
L 173.997536 91.222819 
L 174.455852 89.597198 
L 174.914168 87.338105 
L 175.372485 83.88024 
L 176.289117 80.103839 
L 176.747433 81.044358 
L 177.205749 80.925195 
L 178.122382 74.267956 
M 217.079261 177.19199 
L 217.995893 178.712303 
L 218.454209 179.884627 
L 220.287474 181.823923 
L 220.745791 182.416535 
L 221.204107 182.550373 
L 221.662423 181.909729 
L 222.120739 182.719631 
L 223.037372 188.158621 
L 223.495688 192.321194 
L 223.954004 193.430805 
L 224.41232 192.74129 
L 224.870637 193.320741 
L 225.328953 193.601095 
L 225.787269 193.382547 
L 226.245585 194.578093 
L 226.703901 193.116612 
L 227.162218 196.170736 
L 227.620534 201.592855 
L 228.07885 204.720075 
L 228.537166 206.051266 
L 228.995483 206.124556 
L 229.453799 205.491235 
L 229.912115 205.104461 
L 230.370431 203.798754 
L 230.828747 203.407013 
L 231.287064 205.867976 
L 231.74538 211.237547 
L 232.203696 213.698865 
L 232.662012 214.540573 
L 233.120329 216.0347 
L 234.036961 213.545833 
L 234.495277 209.694163 
L 235.41191 196.685348 
L 235.870226 193.682514 
L 236.328542 193.072078 
L 236.786858 192.263886 
L 237.703491 182.258614 
L 238.161807 180.788681 
L 238.620123 181.52197 
L 239.078439 180.483133 
L 239.536756 175.652386 
L 239.995072 174.02326 
L 240.453388 178.447929 
L 240.911704 181.513601 
L 241.370021 182.487535 
L 242.286653 178.440994 
L 242.744969 177.493512 
L 243.203285 176.241643 
L 243.661602 170.560976 
L 244.119918 167.377465 
L 244.578234 168.298012 
L 245.494867 172.184779 
L 245.953183 174.98629 
L 246.411499 173.2321 
L 246.869815 173.713099 
L 247.328131 173.617648 
L 247.786448 169.698913 
L 248.70308 166.999047 
L 249.161396 164.836018 
L 249.619713 167.087692 
L 250.078029 168.561698 
L 250.536345 171.67808 
L 251.452977 178.793776 
L 251.911294 180.396257 
L 253.744559 191.658421 
L 254.202875 191.434809 
L 254.661191 189.658619 
L 255.119507 191.506357 
L 256.03614 200.769373 
L 256.494456 203.196271 
L 257.411088 200.884534 
L 257.869405 201.943435 
L 258.327721 204.496721 
L 258.786037 202.94982 
L 259.244353 203.303949 
L 259.702669 204.688978 
L 260.160986 209.587679 
L 260.619302 210.594484 
L 261.077618 209.104648 
L 262.910883 187.095946 
L 263.369199 179.84454 
L 263.827515 178.994251 
L 264.285832 180.193732 
L 264.744148 179.910927 
L 265.202464 178.578639 
L 265.66078 175.84916 
L 266.119097 174.530549 
L 266.577413 174.89 
L 267.035729 175.422967 
L 267.494045 173.875712 
L 268.410678 167.140401 
L 268.868994 166.281596 
L 269.32731 164.892809 
L 270.243943 157.448113 
L 270.702259 156.682211 
L 271.160575 160.544849 
L 271.618891 166.492677 
L 272.077207 168.574705 
L 272.535524 168.841785 
L 272.99384 171.621716 
L 273.452156 172.123166 
L 273.910472 169.450429 
L 274.368789 165.349405 
L 274.827105 159.815673 
L 275.285421 158.329901 
L 275.743737 157.63116 
L 276.202053 153.596619 
L 277.577002 145.739343 
L 278.035318 145.405408 
L 278.493634 145.380667 
L 278.951951 146.149826 
L 279.410267 146.57989 
L 280.326899 152.157751 
L 280.785216 157.073871 
L 281.243532 159.673673 
L 281.701848 157.046162 
L 282.160164 157.19171 
L 282.61848 157.722644 
L 283.993429 145.147473 
L 284.451745 143.911153 
L 284.910062 143.276348 
L 285.368378 139.252 
L 285.826694 138.903356 
L 286.28501 140.348934 
L 286.743326 143.060671 
L 287.201643 142.167253 
L 288.118275 137.564261 
L 288.576591 135.38104 
L 289.034908 130.679338 
L 289.493224 127.181345 
L 289.95154 128.514278 
L 290.409856 130.617048 
L 291.326489 128.662665 
L 291.784805 130.405694 
L 292.701437 135.989684 
L 293.61807 127.533699 
L 294.076386 125.844992 
L 294.534702 125.221993 
L 294.993018 122.875159 
L 295.451335 122.047096 
L 295.909651 119.166843 
L 296.367967 118.241845 
L 296.826283 117.766781 
L 297.2846 116.57059 
L 297.742916 113.958272 
L 298.659548 107.293929 
L 299.117864 106.921607 
L 299.576181 106.230963 
L 300.951129 99.200317 
L 301.867762 98.514189 
L 304.159343 106.30535 
L 304.617659 106.563931 
L 305.075975 107.342542 
L 305.534292 106.765543 
L 305.992608 105.026966 
L 306.450924 104.371031 
L 306.90924 103.250872 
L 307.367556 103.969548 
L 307.825873 105.8299 
L 308.284189 108.494153 
L 309.200821 107.573542 
L 309.659138 107.877412 
L 310.117454 110.881374 
L 310.57577 112.700145 
L 311.034086 113.155499 
L 311.950719 103.987129 
L 312.409035 101.474908 
L 312.867351 100.912973 
L 313.783984 97.573011 
L 314.2423 96.952819 
L 314.700616 98.512719 
L 315.617248 97.628044 
L 316.075565 95.186919 
L 316.533881 93.86447 
L 316.992197 94.038244 
L 317.450513 91.772409 
L 317.90883 90.901282 
L 319.283778 99.566911 
L 319.742094 98.277623 
L 320.200411 95.219758 
L 320.658727 94.737694 
L 321.117043 93.537245 
L 321.575359 91.99228 
L 322.491992 86.262677 
L 322.950308 83.984134 
L 323.408624 82.62033 
L 324.325257 78.262434 
L 325.241889 73.92612 
L 325.700205 72.654283 
L 326.158522 73.333959 
L 326.616838 72.251477 
L 327.53347 70.807608 
L 327.991786 68.575548 
L 328.450103 68.155355 
L 328.908419 68.410838 
L 329.366735 66.667745 
L 329.825051 66.665455 
L 331.2 72.37238 
L 331.658316 72.906605 
L 332.116632 71.31364 
L 332.574949 72.057219 
L 333.033265 73.213619 
L 333.491581 70.954494 
L 333.949897 70.398333 
L 334.408214 70.464462 
L 334.86653 71.825105 
L 336.241478 86.712063 
L 336.699795 90.995959 
L 338.074743 98.376139 
L 338.991376 99.903717 
L 339.449692 99.359395 
L 339.908008 99.801588 
L 340.366324 101.977874 
L 340.824641 101.8461 
L 341.741273 96.804755 
L 342.199589 94.00405 
L 342.657906 93.060665 
L 343.116222 91.595216 
L 343.574538 89.751284 
L 344.032854 91.402765 
L 344.949487 95.726466 
L 345.407803 95.531338 
L 345.866119 96.204949 
L 346.324435 98.456687 
L 347.241068 103.875484 
L 347.699384 105.045611 
L 348.1577 104.179193 
L 348.616016 103.91829 
L 349.074333 103.102195 
L 349.990965 100.594651 
L 350.449281 99.981072 
L 350.907598 99.841717 
L 351.365914 102.620518 
L 351.82423 107.487155 
L 352.282546 109.304055 
L 352.740862 110.308246 
L 353.199179 110.324666 
L 353.657495 109.140442 
L 354.115811 109.401571 
L 354.574127 107.902767 
L 355.032444 105.612545 
L 355.949076 109.553183 
L 356.407392 110.516246 
L 356.865708 113.025983 
L 357.324025 117.80162 
L 357.782341 120.711002 
L 358.240657 122.093644 
L 358.698973 124.328327 
L 359.615606 126.823613 
L 360.073922 125.953517 
L 360.532238 122.292331 
L 360.990554 122.580878 
L 361.448871 124.629778 
L 361.907187 124.397059 
L 362.365503 125.209187 
L 363.282136 125.583864 
L 364.198768 128.468568 
L 365.573717 129.669631 
L 366.490349 134.034332 
L 366.948665 134.971685 
L 367.406982 135.122459 
L 368.323614 138.493389 
L 368.78193 140.309837 
L 370.156879 146.896309 
L 370.615195 148.618661 
L 371.073511 149.566562 
L 371.531828 150.074658 
L 371.990144 150.086368 
L 372.44846 149.638478 
L 372.906776 149.02953 
L 373.365092 149.169826 
L 374.281725 148.623884 
L 374.740041 148.918576 
L 375.198357 150.130071 
M 392.156057 212.801764 
L 393.07269 210.026461 
L 393.531006 209.114695 
L 393.989322 208.843028 
L 394.447639 209.380582 
L 394.905955 210.745192 
L 395.364271 211.744159 
L 395.822587 212.416964 
L 396.280903 213.808059 
L 396.73922 215.575862 
L 397.197536 216.242441 
L 397.655852 217.847922 
L 398.114168 218.485211 
L 398.572485 218.744437 
L 399.030801 217.91089 
L 399.947433 214.342961 
L 400.405749 213.816252 
L 400.864066 211.706449 
L 401.322382 210.515129 
L 401.780698 210.026259 
L 402.239014 211.468966 
L 402.697331 213.326737 
L 403.155647 214.701573 
L 403.613963 217.220923 
L 404.988912 228.686412 
L 406.36386 234.112983 
L 406.822177 234.467434 
L 407.738809 229.422417 
L 408.197125 228.505774 
L 408.655441 229.776901 
L 409.572074 233.056733 
L 410.947023 242.465329 
L 411.863655 247.292159 
L 412.321971 247.117611 
L 412.780287 246.208387 
L 413.238604 243.973197 
L 413.69692 242.629361 
L 414.155236 243.143134 
L 414.613552 239.968947 
L 415.071869 235.594729 
L 415.530185 234.169473 
L 415.988501 234.71944 
L 416.446817 234.242086 
L 416.905133 234.172312 
L 417.36345 238.170014 
L 418.280082 251.415506 
L 418.738398 254.946565 
L 419.196715 254.865597 
L 419.655031 256.462433 
L 420.113347 256.841561 
L 420.571663 254.106985 
L 421.029979 246.199709 
L 421.488296 241.534718 
L 421.946612 238.018886 
L 422.404928 238.673013 
L 422.863244 239.635399 
L 423.321561 239.321141 
L 423.779877 235.225729 
L 424.238193 234.371021 
L 424.696509 234.081538 
L 425.154825 237.466758 
L 425.613142 236.920113 
L 426.071458 236.066405 
L 426.529774 235.796825 
L 426.98809 235.794019 
L 427.446407 236.338695 
L 427.904723 235.823391 
L 428.363039 236.925035 
L 428.821355 238.937999 
L 429.279671 239.41232 
L 429.737988 241.39622 
L 431.112936 251.793506 
L 431.571253 249.813413 
L 432.029569 248.790124 
L 432.487885 250.895765 
L 433.862834 263.162582 
L 434.32115 264.353451 
L 434.779466 268.153444 
L 435.237782 269.895666 
L 435.696099 269.781602 
L 436.154415 270.549536 
L 437.071047 264.178096 
L 437.98768 261.629359 
L 438.445996 262.781712 
L 438.904312 260.011942 
L 439.362628 254.158147 
L 439.820945 254.150663 
L 440.279261 256.803819 
L 440.737577 258.29172 
L 441.195893 260.4422 
L 441.654209 259.950297 
L 442.112526 261.803713 
L 442.570842 265.011321 
L 443.029158 264.580095 
L 443.487474 262.869099 
L 443.945791 262.388358 
L 444.404107 260.440813 
L 444.862423 259.036073 
L 445.320739 258.597074 
L 445.779055 256.950496 
L 446.237372 257.061174 
L 446.695688 256.303014 
L 447.154004 254.282985 
L 447.61232 251.175442 
L 448.070637 250.063993 
L 448.528953 249.302962 
L 449.445585 244.950067 
L 449.903901 243.842423 
L 450.362218 244.424939 
L 450.820534 246.491806 
L 451.737166 247.833448 
L 452.195483 251.755764 
L 453.112115 262.0151 
L 453.570431 265.369191 
L 454.487064 273.611789 
L 454.94538 274.846722 
L 455.403696 275.046431 
L 455.862012 274.495723 
L 456.778645 265.155933 
L 457.236961 259.189267 
L 457.695277 255.898079 
L 458.153593 255.87566 
L 459.070226 250.290044 
L 459.528542 251.749751 
L 460.445175 259.276415 
L 460.903491 260.122316 
L 461.361807 259.852511 
L 461.820123 261.997907 
L 462.278439 263.505033 
L 462.736756 265.493739 
L 463.653388 262.953163 
L 464.111704 262.191906 
L 464.570021 260.138942 
L 465.486653 250.236605 
L 465.944969 245.631711 
L 466.861602 232.87083 
L 467.319918 228.949773 
L 467.778234 226.804487 
L 468.23655 226.922873 
L 468.694867 227.629453 
L 469.153183 226.799261 
L 469.611499 227.198357 
L 470.528131 227.561163 
L 470.986448 229.451708 
L 471.444764 230.250545 
L 471.90308 227.151776 
L 472.361396 227.644517 
L 472.819713 229.543095 
L 473.278029 233.510378 
L 473.736345 234.821891 
L 474.194661 235.001085 
L 474.652977 236.210437 
L 475.111294 238.420175 
L 475.56961 237.629048 
L 476.027926 238.521723 
L 476.944559 240.98359 
L 477.402875 238.976465 
L 477.861191 237.511919 
L 478.777823 237.327919 
L 479.23614 235.257987 
L 479.694456 232.157219 
L 480.152772 230.803834 
L 480.611088 231.80909 
L 481.069405 235.574438 
L 481.527721 235.697567 
L 481.986037 232.495154 
L 482.444353 231.649897 
L 482.902669 231.594865 
L 483.360986 228.825451 
L 484.277618 219.68937 
L 484.735934 218.952307 
L 486.110883 225.493941 
L 486.569199 226.686584 
L 487.027515 230.166448 
L 487.485832 232.222703 
L 487.944148 232.126606 
L 488.402464 234.308505 
L 488.86078 235.114149 
L 489.319097 234.11528 
L 490.235729 241.472525 
L 491.152361 242.771038 
L 492.068994 238.521659 
L 492.52731 238.425143 
L 492.985626 236.057212 
L 493.443943 235.934696 
L 493.902259 237.804983 
L 494.360575 240.330301 
L 494.818891 244.45139 
L 495.277207 249.640155 
L 495.735524 252.566117 
L 496.19384 253.18789 
L 496.652156 249.270026 
L 497.110472 243.69294 
L 497.568789 240.410591 
L 498.027105 239.755141 
L 498.485421 238.137402 
L 498.943737 236.045825 
L 499.402053 235.369503 
L 499.86037 235.779148 
L 500.777002 241.986749 
L 501.235318 239.858044 
L 501.693634 238.643046 
L 502.151951 238.652691 
L 502.610267 238.858884 
L 503.526899 241.231396 
L 503.985216 241.788524 
L 504.443532 245.39284 
L 505.81848 252.201279 
L 506.276797 256.943174 
L 507.193429 263.194679 
L 507.651745 263.228388 
L 508.568378 261.928584 
L 509.026694 262.267325 
L 509.48501 260.126168 
L 510.401643 257.137851 
L 510.859959 257.441463 
L 511.776591 259.986943 
L 512.234908 259.90962 
L 514.068172 266.283899 
L 514.526489 269.160313 
L 515.443121 276.515816 
L 515.901437 278.306103 
L 516.359754 278.056652 
L 516.81807 279.126424 
L 517.276386 279.750584 
L 517.734702 280.09568 
L 518.193018 279.746229 
L 519.109651 280.008616 
L 520.026283 284.486124 
L 520.4846 286.457701 
L 521.401232 288.919664 
L 522.317864 293.912139 
L 522.776181 294.315719 
L 523.234497 295.134137 
L 523.692813 295.018202 
L 524.151129 295.224846 
L 524.609446 296.027103 
L 525.067762 296.34207 
L 525.526078 297.251133 
L 525.984394 299.747935 
L 526.44271 301.020223 
L 527.359343 304.755216 
L 527.817659 305.962988 
L 528.275975 306.704729 
L 529.192608 310.801979 
L 529.650924 311.493043 
L 530.10924 311.647881 
L 530.567556 312.971363 
L 531.484189 317.230387 
L 532.400821 318.077708 
L 533.317454 322.333926 
L 533.77577 323.050473 
L 534.234086 322.654797 
L 534.692402 322.910054 
L 535.609035 325.726049 
L 536.067351 326.068629 
L 536.525667 327.153272 
L 536.983984 329.183559 
L 537.4423 331.974393 
L 537.900616 333.073146 
L 538.817248 333.69017 
L 539.275565 335.034952 
L 539.733881 335.976665 
L 540.192197 335.911385 
L 540.650513 333.407132 
M 543.858727 254.771662 
L 544.775359 292.477583 
L 545.233676 301.714593 
L 545.691992 306.911361 
L 546.608624 312.690718 
L 547.06694 324.814696 
L 547.525257 332.67742 
L 548.441889 334.398364 
L 548.900205 336.073347 
L 549.358522 339.55821 
L 550.275154 350.375658 
M 566.774538 267.481574 
L 567.232854 214.124187 
L 567.69117 195.957155 
L 568.149487 187.402195 
L 568.607803 181.86182 
L 569.066119 178.531596 
L 569.524435 176.849605 
L 569.982752 163.14386 
L 570.899384 166.572241 
L 571.3577 168.979043 
L 572.274333 171.343007 
L 573.190965 179.842088 
L 573.649281 180.786957 
L 574.107598 180.123442 
L 574.565914 176.669223 
L 575.02423 175.63045 
L 575.482546 177.072254 
L 575.940862 176.629126 
L 576.399179 173.187648 
L 576.857495 171.184394 
L 577.315811 170.323912 
L 578.232444 177.24077 
L 578.69076 178.186317 
L 579.149076 177.289383 
L 580.065708 173.605261 
L 580.524025 171.29991 
L 582.35729 159.688899 
L 582.815606 157.629935 
L 583.273922 156.821646 
L 583.732238 158.591385 
L 584.648871 158.589739 
L 585.565503 156.492485 
L 586.023819 157.757386 
L 586.482136 157.882225 
L 587.398768 152.68746 
L 588.3154 146.656729 
L 588.773717 146.101181 
L 589.232033 145.889827 
L 589.690349 145.540118 
L 590.148665 146.508471 
L 590.606982 149.056628 
L 591.065298 149.609078 
L 591.98193 146.121052 
L 592.440246 146.842309 
L 592.898563 146.521084 
L 593.815195 141.549093 
L 594.273511 141.136384 
L 594.731828 142.156285 
L 595.190144 142.590672 
L 595.64846 139.08242 
L 596.106776 138.462873 
L 596.565092 141.128997 
L 597.481725 143.255574 
L 598.398357 146.679342 
L 598.856674 149.565562 
L 599.773306 158.789836 
L 600.231622 158.913223 
L 600.689938 158.719126 
L 602.064887 165.387114 
L 602.523203 163.599601 
L 602.98152 160.831284 
L 603.898152 157.571677 
L 604.814784 151.827687 
L 605.273101 147.025051 
L 605.731417 146.921599 
L 606.189733 148.3945 
L 607.106366 159.165222 
L 607.564682 161.358863 
L 608.93963 171.617329 
L 609.397947 171.764006 
L 609.856263 170.964298 
L 610.314579 167.575078 
L 610.772895 162.957054 
L 612.147844 154.120006 
L 612.60616 151.66272 
L 613.064476 150.824624 
L 613.522793 150.828108 
L 613.981109 149.079563 
L 616.731006 119.498197 
L 617.189322 121.067324 
L 618.105955 128.300956 
L 618.564271 130.016953 
L 619.022587 128.700729 
L 619.480903 129.827146 
L 619.93922 130.592274 
L 620.397536 129.435083 
L 620.855852 129.209244 
L 621.314168 128.209795 
L 621.772485 127.662247 
L 622.230801 126.628088 
L 622.689117 123.311997 
L 623.147433 122.743062 
L 623.605749 123.751674 
L 624.064066 123.891931 
L 624.522382 124.549285 
L 624.980698 126.702281 
L 625.439014 128.161407 
L 625.897331 128.771213 
L 626.355647 128.888729 
L 626.813963 126.9557 
L 628.188912 117.43504 
L 628.647228 116.984105 
L 629.105544 119.434198 
L 629.56386 119.03565 
L 630.022177 119.872745 
L 630.480493 123.562255 
L 630.938809 129.588534 
L 631.397125 133.212366 
L 631.855441 133.327076 
L 632.313758 131.823949 
L 632.772074 133.106431 
L 633.23039 137.382326 
L 633.688706 140.283869 
L 634.147023 140.19487 
L 635.063655 143.513122 
L 635.521971 143.870347 
L 635.980287 141.64377 
L 637.813552 119.008069 
L 638.271869 120.421776 
L 639.646817 135.409781 
L 640.105133 136.276328 
L 640.56345 137.47281 
L 641.021766 139.377161 
L 641.480082 137.592745 
L 642.396715 125.78138 
L 642.855031 125.752057 
L 643.771663 123.434835 
L 644.688296 119.195811 
L 645.146612 120.685163 
L 645.604928 122.985804 
L 646.063244 123.139933 
L 646.521561 123.556255 
L 647.438193 119.79981 
L 648.354825 120.085809 
L 648.813142 119.932939 
L 649.271458 121.067582 
L 650.646407 134.653912 
L 651.104723 137.330262 
L 651.563039 138.30355 
L 652.021355 138.005293 
L 652.479671 136.075135 
L 652.937988 134.978718 
L 653.85462 127.340603 
L 654.312936 122.381418 
L 654.771253 121.028291 
L 655.229569 121.853322 
L 655.687885 122.276773 
L 656.146201 125.648896 
L 656.604517 127.301506 
L 657.062834 131.293821 
L 657.52115 137.206972 
L 657.979466 140.194128 
L 658.437782 141.618577 
L 658.896099 140.740772 
L 659.354415 136.937263 
L 659.812731 139.458193 
L 660.729363 142.289704 
L 661.18768 143.296735 
L 661.645996 140.69174 
L 662.104312 140.115547 
L 662.562628 137.853035 
L 663.020945 136.247909 
L 663.479261 136.46978 
L 663.937577 136.354006 
L 664.395893 132.604496 
L 664.854209 133.931494 
L 665.770842 140.580546 
L 666.229158 139.939999 
L 667.145791 135.7852 
L 667.604107 139.095517 
L 668.520739 143.53496 
L 668.979055 143.802702 
L 669.437372 146.070052 
L 669.895688 148.994563 
L 670.354004 148.609344 
L 670.81232 149.156312 
L 671.270637 148.329728 
L 671.728953 145.238525 
L 672.187269 144.967015 
L 672.645585 142.643742 
L 673.103901 135.368632 
L 673.103901 135.368632 
" style="fill:none;stroke:#1f77b4;stroke-linecap:square;stroke-width:1.5;"/>
   </g>
   <g id="line2d_59">
    <path clip-path="url(#pdc24e13ab1)" d="M 140.998768 363.174545 
L 141.457084 340.00559 
L 141.9154 272.517792 
L 142.373717 239.781722 
L 142.832033 221.069573 
L 143.290349 208.403562 
L 143.748665 200.090722 
L 144.665298 147.687899 
L 145.123614 149.292004 
L 145.58193 148.320382 
L 146.040246 145.896805 
L 146.956879 145.55258 
L 147.873511 138.29069 
L 148.331828 133.875903 
L 148.790144 131.965476 
L 149.24846 131.882433 
L 149.706776 132.013089 
L 150.165092 130.242178 
L 150.623409 129.691652 
L 151.081725 131.517358 
L 151.540041 132.796195 
L 151.998357 132.195938 
L 152.91499 129.582502 
L 154.748255 125.136434 
L 155.664887 128.973116 
L 156.123203 126.725937 
L 157.498152 112.18792 
L 157.956468 111.99691 
L 158.414784 108.966055 
L 159.331417 98.148322 
L 159.789733 96.736056 
L 160.248049 96.385841 
L 160.706366 95.410155 
L 161.164682 91.876764 
L 161.622998 89.875627 
L 162.081314 91.096969 
L 162.53963 93.013998 
L 162.997947 91.700355 
L 163.456263 91.060141 
L 163.914579 89.41622 
L 164.372895 88.498727 
L 164.831211 87.998158 
L 165.289528 86.781762 
L 165.747844 85.158152 
L 166.664476 86.969848 
L 167.122793 87.089407 
L 168.039425 84.023165 
L 168.956057 81.230525 
L 169.414374 81.131665 
L 169.87269 82.723845 
L 170.789322 84.598196 
L 172.164271 92.422322 
L 172.622587 93.852244 
L 173.080903 93.152557 
L 173.53922 91.550495 
L 173.997536 91.222819 
L 174.455852 89.597198 
L 174.914168 87.338105 
L 175.372485 83.88024 
L 176.289117 80.103839 
L 176.747433 81.044358 
L 177.205749 80.925195 
L 178.122382 74.267956 
M 217.079261 177.19199 
L 217.995893 178.712303 
L 218.454209 179.884627 
L 220.287474 181.823923 
L 220.745791 182.416535 
L 221.204107 182.550373 
L 221.662423 181.909729 
L 222.120739 182.719631 
L 223.037372 188.158621 
L 223.495688 192.321194 
L 223.954004 193.430805 
L 224.41232 192.74129 
L 224.870637 193.320741 
L 225.328953 193.601095 
L 225.787269 193.382547 
L 226.245585 194.578093 
L 226.703901 193.116612 
L 227.162218 196.170736 
L 227.620534 201.592855 
L 228.07885 204.720075 
L 228.537166 206.051266 
L 228.995483 206.124556 
L 229.453799 205.491235 
L 229.912115 205.104461 
L 230.370431 203.798754 
L 230.828747 203.407013 
L 231.287064 205.867976 
L 231.74538 211.237547 
L 232.203696 213.698865 
L 232.662012 214.540573 
L 233.120329 216.0347 
L 234.036961 213.545833 
L 234.495277 209.694163 
L 235.41191 196.685348 
L 235.870226 193.682514 
L 236.328542 193.072078 
L 236.786858 192.263886 
L 237.703491 182.258614 
L 238.161807 180.788681 
L 238.620123 181.52197 
L 239.078439 180.483133 
L 239.536756 175.652386 
L 239.995072 174.02326 
L 240.453388 178.447929 
L 240.911704 181.513601 
L 241.370021 182.487535 
L 242.286653 178.440994 
L 242.744969 177.493512 
L 243.203285 176.241643 
L 243.661602 170.560976 
L 244.119918 167.377465 
L 244.578234 168.298012 
L 245.494867 172.184779 
L 245.953183 174.98629 
L 246.411499 173.2321 
L 246.869815 173.713099 
L 247.328131 173.617648 
L 247.786448 169.698913 
L 248.70308 166.999047 
L 249.161396 164.836018 
L 249.619713 167.087692 
L 250.078029 168.561698 
L 250.536345 171.67808 
L 251.452977 178.793776 
L 251.911294 180.396257 
L 253.744559 191.658421 
L 254.202875 191.434809 
L 254.661191 189.658619 
L 255.119507 191.506357 
L 256.03614 200.769373 
L 256.494456 203.196271 
L 257.411088 200.884534 
L 257.869405 201.943435 
L 258.327721 204.496721 
L 258.786037 202.94982 
L 259.244353 203.303949 
L 259.702669 204.688978 
L 260.160986 209.587679 
L 260.619302 210.594484 
L 261.077618 209.104648 
L 262.910883 187.095946 
L 263.369199 179.84454 
L 263.827515 178.994251 
L 264.285832 180.193732 
L 264.744148 179.910927 
L 265.202464 178.578639 
L 265.66078 175.84916 
L 266.119097 174.530549 
L 266.577413 174.89 
L 267.035729 175.422967 
L 267.494045 173.875712 
L 268.410678 167.140401 
L 268.868994 166.281596 
L 269.32731 164.892809 
L 270.243943 157.448113 
L 270.702259 156.682211 
L 271.160575 160.544849 
L 271.618891 166.492677 
L 272.077207 168.574705 
L 272.535524 168.841785 
L 272.99384 171.621716 
L 273.452156 172.123166 
L 273.910472 169.450429 
L 274.368789 165.349405 
L 274.827105 159.815673 
L 275.285421 158.329901 
L 275.743737 157.63116 
L 276.202053 153.596619 
L 277.577002 145.739343 
L 278.035318 145.405408 
L 278.493634 145.380667 
L 278.951951 146.149826 
L 279.410267 146.57989 
L 280.326899 152.157751 
L 280.785216 157.073871 
L 281.243532 159.673673 
L 281.701848 157.046162 
L 282.160164 157.19171 
L 282.61848 157.722644 
L 283.993429 145.147473 
L 284.451745 143.911153 
L 284.910062 143.276348 
L 285.368378 139.252 
L 285.826694 138.903356 
L 286.28501 140.348934 
L 286.743326 143.060671 
L 287.201643 142.167253 
L 288.118275 137.564261 
L 288.576591 135.38104 
L 289.034908 130.679338 
L 289.493224 127.181345 
L 289.95154 128.514278 
L 290.409856 130.617048 
L 291.326489 128.662665 
L 291.784805 130.405694 
L 292.701437 135.989684 
L 293.61807 127.533699 
L 294.076386 125.844992 
L 294.534702 125.221993 
L 294.993018 122.875159 
L 295.451335 122.047096 
L 295.909651 119.166843 
L 296.367967 118.241845 
L 296.826283 117.766781 
L 297.2846 116.57059 
L 297.742916 113.958272 
L 298.659548 107.293929 
L 299.117864 106.921607 
L 299.576181 106.230963 
L 300.951129 99.200317 
L 301.867762 98.514189 
L 304.159343 106.30535 
L 304.617659 106.563931 
L 305.075975 107.342542 
L 305.534292 106.765543 
L 305.992608 105.026966 
L 306.450924 104.371031 
L 306.90924 103.250872 
L 307.367556 103.969548 
L 307.825873 105.8299 
L 308.284189 108.494153 
L 309.200821 107.573542 
L 309.659138 107.877412 
L 310.117454 110.881374 
L 310.57577 112.700145 
L 311.034086 113.155499 
L 311.950719 103.987129 
L 312.409035 101.474908 
L 312.867351 100.912973 
L 313.783984 97.573011 
L 314.2423 96.952819 
L 314.700616 98.512719 
L 315.617248 97.628044 
L 316.075565 95.186919 
L 316.533881 93.86447 
L 316.992197 94.038244 
L 317.450513 91.772409 
L 317.90883 90.901282 
L 319.283778 99.566911 
L 319.742094 98.277623 
L 320.200411 95.219758 
L 320.658727 94.737694 
L 321.117043 93.537245 
L 321.575359 91.99228 
L 322.491992 86.262677 
L 322.950308 83.984134 
L 323.408624 82.62033 
L 324.325257 78.262434 
L 325.241889 73.92612 
L 325.700205 72.654283 
L 326.158522 73.333959 
L 326.616838 72.251477 
L 327.53347 70.807608 
L 327.991786 68.575548 
L 328.450103 68.155355 
L 328.908419 68.410838 
L 329.366735 66.667745 
L 329.825051 66.665455 
L 331.2 72.37238 
L 331.658316 72.906605 
L 332.116632 71.31364 
L 332.574949 72.057219 
L 333.033265 73.213619 
L 333.491581 70.954494 
L 333.949897 70.398333 
L 334.408214 70.464462 
L 334.86653 71.825105 
L 336.241478 86.712063 
L 336.699795 90.995959 
L 338.074743 98.376139 
L 338.991376 99.903717 
L 339.449692 99.359395 
L 339.908008 99.801588 
L 340.366324 101.977874 
L 340.824641 101.8461 
L 341.741273 96.804755 
L 342.199589 94.00405 
L 342.657906 93.060665 
L 343.116222 91.595216 
L 343.574538 89.751284 
L 344.032854 91.402765 
L 344.949487 95.726466 
L 345.407803 95.531338 
L 345.866119 96.204949 
L 346.324435 98.456687 
L 347.241068 103.875484 
L 347.699384 105.045611 
L 348.1577 104.179193 
L 348.616016 103.91829 
L 349.074333 103.102195 
L 349.990965 100.594651 
L 350.449281 99.981072 
L 350.907598 99.841717 
L 351.365914 102.620518 
L 351.82423 107.487155 
L 352.282546 109.304055 
L 352.740862 110.308246 
L 353.199179 110.324666 
L 353.657495 109.140442 
L 354.115811 109.401571 
L 354.574127 107.902767 
L 355.032444 105.612545 
L 355.949076 109.553183 
L 356.407392 110.516246 
L 356.865708 113.025983 
L 357.324025 117.80162 
L 357.782341 120.711002 
L 358.240657 122.093644 
L 358.698973 124.328327 
L 359.615606 126.823613 
L 360.073922 125.953517 
L 360.532238 122.292331 
L 360.990554 122.580878 
L 361.448871 124.629778 
L 361.907187 124.397059 
L 362.365503 125.209187 
L 363.282136 125.583864 
L 364.198768 128.468568 
L 365.573717 129.669631 
L 366.490349 134.034332 
L 366.948665 134.971685 
L 367.406982 135.122459 
L 368.323614 138.493389 
L 368.78193 140.309837 
L 370.156879 146.896309 
L 370.615195 148.618661 
L 371.073511 149.566562 
L 371.531828 150.074658 
L 371.990144 150.086368 
L 372.44846 149.638478 
L 372.906776 149.02953 
L 373.365092 149.169826 
L 374.281725 148.623884 
L 374.740041 148.918576 
L 375.198357 150.130071 
M 392.156057 212.801764 
L 393.07269 210.026461 
L 393.531006 209.114695 
L 393.989322 208.843028 
L 394.447639 209.380582 
L 394.905955 210.745192 
L 395.364271 211.744159 
L 395.822587 212.416964 
L 396.280903 213.808059 
L 396.73922 215.575862 
L 397.197536 216.242441 
L 397.655852 217.847922 
L 398.114168 218.485211 
L 398.572485 218.744437 
L 399.030801 217.91089 
L 399.947433 214.342961 
L 400.405749 213.816252 
L 400.864066 211.706449 
L 401.322382 210.515129 
L 401.780698 210.026259 
L 402.239014 211.468966 
L 402.697331 213.326737 
L 403.155647 214.701573 
L 403.613963 217.220923 
L 404.988912 228.686412 
L 406.36386 234.112983 
L 406.822177 234.467434 
L 407.738809 229.422417 
L 408.197125 228.505774 
L 408.655441 229.776901 
L 409.572074 233.056733 
L 410.947023 242.465329 
L 411.863655 247.292159 
L 412.321971 247.117611 
L 412.780287 246.208387 
L 413.238604 243.973197 
L 413.69692 242.629361 
L 414.155236 243.143134 
L 414.613552 239.968947 
L 415.071869 235.594729 
L 415.530185 234.169473 
L 415.988501 234.71944 
L 416.446817 234.242086 
L 416.905133 234.172312 
L 417.36345 238.170014 
L 418.280082 251.415506 
L 418.738398 254.946565 
L 419.196715 254.865597 
L 419.655031 256.462433 
L 420.113347 256.841561 
L 420.571663 254.106985 
L 421.029979 246.199709 
L 421.488296 241.534718 
L 421.946612 238.018886 
L 422.404928 238.673013 
L 422.863244 239.635399 
L 423.321561 239.321141 
L 423.779877 235.225729 
L 424.238193 234.371021 
L 424.696509 234.081538 
L 425.154825 237.466758 
L 425.613142 236.920113 
L 426.071458 236.066405 
L 426.529774 235.796825 
L 426.98809 235.794019 
L 427.446407 236.338695 
L 427.904723 235.823391 
L 428.363039 236.925035 
L 428.821355 238.937999 
L 429.279671 239.41232 
L 429.737988 241.39622 
L 431.112936 251.793506 
L 431.571253 249.813413 
L 432.029569 248.790124 
L 432.487885 250.895765 
L 433.862834 263.162582 
L 434.32115 264.353451 
L 434.779466 268.153444 
L 435.237782 269.895666 
L 435.696099 269.781602 
L 436.154415 270.549536 
L 437.071047 264.178096 
L 437.98768 261.629359 
L 438.445996 262.781712 
L 438.904312 260.011942 
L 439.362628 254.158147 
L 439.820945 254.150663 
L 440.279261 256.803819 
L 440.737577 258.29172 
L 441.195893 260.4422 
L 441.654209 259.950297 
L 442.112526 261.803713 
L 442.570842 265.011321 
L 443.029158 264.580095 
L 443.487474 262.869099 
L 443.945791 262.388358 
L 444.404107 260.440813 
L 444.862423 259.036073 
L 445.320739 258.597074 
L 445.779055 256.950496 
L 446.237372 257.061174 
L 446.695688 256.303014 
L 447.154004 254.282985 
L 447.61232 251.175442 
L 448.070637 250.063993 
L 448.528953 249.302962 
L 449.445585 244.950067 
L 449.903901 243.842423 
L 450.362218 244.424939 
L 450.820534 246.491806 
L 451.737166 247.833448 
L 452.195483 251.755764 
L 453.112115 262.0151 
L 453.570431 265.369191 
L 454.487064 273.611789 
L 454.94538 274.846722 
L 455.403696 275.046431 
L 455.862012 274.495723 
L 456.778645 265.155933 
L 457.236961 259.189267 
L 457.695277 255.898079 
L 458.153593 255.87566 
L 459.070226 250.290044 
L 459.528542 251.749751 
L 460.445175 259.276415 
L 460.903491 260.122316 
L 461.361807 259.852511 
L 461.820123 261.997907 
L 462.278439 263.505033 
L 462.736756 265.493739 
L 463.653388 262.953163 
L 464.111704 262.191906 
L 464.570021 260.138942 
L 465.486653 250.236605 
L 465.944969 245.631711 
L 466.861602 232.87083 
L 467.319918 228.949773 
L 467.778234 226.804487 
L 468.23655 226.922873 
L 468.694867 227.629453 
L 469.153183 226.799261 
L 469.611499 227.198357 
L 470.528131 227.561163 
L 470.986448 229.451708 
L 471.444764 230.250545 
L 471.90308 227.151776 
L 472.361396 227.644517 
L 472.819713 229.543095 
L 473.278029 233.510378 
L 473.736345 234.821891 
L 474.194661 235.001085 
L 474.652977 236.210437 
L 475.111294 238.420175 
L 475.56961 237.629048 
L 476.027926 238.521723 
L 476.944559 240.98359 
L 477.402875 238.976465 
L 477.861191 237.511919 
L 478.777823 237.327919 
L 479.23614 235.257987 
L 479.694456 232.157219 
L 480.152772 230.803834 
L 480.611088 231.80909 
L 481.069405 235.574438 
L 481.527721 235.697567 
L 481.986037 232.495154 
L 482.444353 231.649897 
L 482.902669 231.594865 
L 483.360986 228.825451 
L 484.277618 219.68937 
L 484.735934 218.952307 
L 486.110883 225.493941 
L 486.569199 226.686584 
L 487.027515 230.166448 
L 487.485832 232.222703 
L 487.944148 232.126606 
L 488.402464 234.308505 
L 488.86078 235.114149 
L 489.319097 234.11528 
L 490.235729 241.472525 
L 491.152361 242.771038 
L 492.068994 238.521659 
L 492.52731 238.425143 
L 492.985626 236.057212 
L 493.443943 235.934696 
L 493.902259 237.804983 
L 494.360575 240.330301 
L 494.818891 244.45139 
L 495.277207 249.640155 
L 495.735524 252.566117 
L 496.19384 253.18789 
L 496.652156 249.270026 
L 497.110472 243.69294 
L 497.568789 240.410591 
L 498.027105 239.755141 
L 498.485421 238.137402 
L 498.943737 236.045825 
L 499.402053 235.369503 
L 499.86037 235.779148 
L 500.777002 241.986749 
L 501.235318 239.858044 
L 501.693634 238.643046 
L 502.151951 238.652691 
L 502.610267 238.858884 
L 503.526899 241.231396 
L 503.985216 241.788524 
L 504.443532 245.39284 
L 505.81848 252.201279 
L 506.276797 256.943174 
L 507.193429 263.194679 
L 507.651745 263.228388 
L 508.568378 261.928584 
L 509.026694 262.267325 
L 509.48501 260.126168 
L 510.401643 257.137851 
L 510.859959 257.441463 
L 511.776591 259.986943 
L 512.234908 259.90962 
L 514.068172 266.283899 
L 514.526489 269.160313 
L 515.443121 276.515816 
L 515.901437 278.306103 
L 516.359754 278.056652 
L 516.81807 279.126424 
L 517.276386 279.750584 
L 517.734702 280.09568 
L 518.193018 279.746229 
L 519.109651 280.008616 
L 520.026283 284.486124 
L 520.4846 286.457701 
L 521.401232 288.919664 
L 522.317864 293.912139 
L 522.776181 294.315719 
L 523.234497 295.134137 
L 523.692813 295.018202 
L 524.151129 295.224846 
L 524.609446 296.027103 
L 525.067762 296.34207 
L 525.526078 297.251133 
L 525.984394 299.747935 
L 526.44271 301.020223 
L 527.359343 304.755216 
L 527.817659 305.962988 
L 528.275975 306.704729 
L 529.192608 310.801979 
L 529.650924 311.493043 
L 530.10924 311.647881 
L 530.567556 312.971363 
L 531.484189 317.230387 
L 532.400821 318.077708 
L 533.317454 322.333926 
L 533.77577 323.050473 
L 534.234086 322.654797 
L 534.692402 322.910054 
L 535.609035 325.726049 
L 536.067351 326.068629 
L 536.525667 327.153272 
L 536.983984 329.183559 
L 537.4423 331.974393 
L 537.900616 333.073146 
L 538.817248 333.69017 
L 539.275565 335.034952 
L 539.733881 335.976665 
L 540.192197 335.911385 
L 540.650513 333.407132 
M 543.858727 254.771662 
L 544.775359 292.477583 
L 545.233676 301.714593 
L 545.691992 306.911361 
L 546.608624 312.690718 
L 547.06694 324.814696 
L 547.525257 332.67742 
L 548.441889 334.398364 
L 548.900205 336.073347 
L 549.358522 339.55821 
L 550.275154 350.375658 
M 566.774538 267.481574 
L 567.232854 214.124187 
L 567.69117 195.957155 
L 568.149487 187.402195 
L 568.607803 181.86182 
L 569.066119 178.531596 
L 569.524435 176.849605 
L 569.982752 163.14386 
L 570.899384 166.572241 
L 571.3577 168.979043 
L 572.274333 171.343007 
L 573.190965 179.842088 
L 573.649281 180.786957 
L 574.107598 180.123442 
L 574.565914 176.669223 
L 575.02423 175.63045 
L 575.482546 177.072254 
L 575.940862 176.629126 
L 576.399179 173.187648 
L 576.857495 171.184394 
L 577.315811 170.323912 
L 578.232444 177.24077 
L 578.69076 178.186317 
L 579.149076 177.289383 
L 580.065708 173.605261 
L 580.524025 171.29991 
L 582.35729 159.688899 
L 582.815606 157.629935 
L 583.273922 156.821646 
L 583.732238 158.591385 
L 584.648871 158.589739 
L 585.565503 156.492485 
L 586.023819 157.757386 
L 586.482136 157.882225 
L 587.398768 152.68746 
L 588.3154 146.656729 
L 588.773717 146.101181 
L 589.232033 145.889827 
L 589.690349 145.540118 
L 590.148665 146.508471 
L 590.606982 149.056628 
L 591.065298 149.609078 
L 591.98193 146.121052 
L 592.440246 146.842309 
L 592.898563 146.521084 
L 593.815195 141.549093 
L 594.273511 141.136384 
L 594.731828 142.156285 
L 595.190144 142.590672 
L 595.64846 139.08242 
L 596.106776 138.462873 
L 596.565092 141.128997 
L 597.481725 143.255574 
L 598.398357 146.679342 
L 598.856674 149.565562 
L 599.773306 158.789836 
L 600.231622 158.913223 
L 600.689938 158.719126 
L 602.064887 165.387114 
L 602.523203 163.599601 
L 602.98152 160.831284 
L 603.898152 157.571677 
L 604.814784 151.827687 
L 605.273101 147.025051 
L 605.731417 146.921599 
L 606.189733 148.3945 
L 607.106366 159.165222 
L 607.564682 161.358863 
L 608.93963 171.617329 
L 609.397947 171.764006 
L 609.856263 170.964298 
L 610.314579 167.575078 
L 610.772895 162.957054 
L 612.147844 154.120006 
L 612.60616 151.66272 
L 613.064476 150.824624 
L 613.522793 150.828108 
L 613.981109 149.079563 
L 616.731006 119.498197 
L 617.189322 121.067324 
L 618.105955 128.300956 
L 618.564271 130.016953 
L 619.022587 128.700729 
L 619.480903 129.827146 
L 619.93922 130.592274 
L 620.397536 129.435083 
L 620.855852 129.209244 
L 621.314168 128.209795 
L 621.772485 127.662247 
L 622.230801 126.628088 
L 622.689117 123.311997 
L 623.147433 122.743062 
L 623.605749 123.751674 
L 624.064066 123.891931 
L 624.522382 124.549285 
L 624.980698 126.702281 
L 625.439014 128.161407 
L 625.897331 128.771213 
L 626.355647 128.888729 
L 626.813963 126.9557 
L 628.188912 117.43504 
L 628.647228 116.984105 
L 629.105544 119.434198 
L 629.56386 119.03565 
L 630.022177 119.872745 
L 630.480493 123.562255 
L 630.938809 129.588534 
L 631.397125 133.212366 
L 631.855441 133.327076 
L 632.313758 131.823949 
L 632.772074 133.106431 
L 633.23039 137.382326 
L 633.688706 140.283869 
L 634.147023 140.19487 
L 635.063655 143.513122 
L 635.521971 143.870347 
L 635.980287 141.64377 
L 637.813552 119.008069 
L 638.271869 120.421776 
L 639.646817 135.409781 
L 640.105133 136.276328 
L 640.56345 137.47281 
L 641.021766 139.377161 
L 641.480082 137.592745 
L 642.396715 125.78138 
L 642.855031 125.752057 
L 643.771663 123.434835 
L 644.688296 119.195811 
L 645.146612 120.685163 
L 645.604928 122.985804 
L 646.063244 123.139933 
L 646.521561 123.556255 
L 647.438193 119.79981 
L 648.354825 120.085809 
L 648.813142 119.932939 
L 649.271458 121.067582 
L 650.646407 134.653912 
L 651.104723 137.330262 
L 651.563039 138.30355 
L 652.021355 138.005293 
L 652.479671 136.075135 
L 652.937988 134.978718 
L 653.85462 127.340603 
L 654.312936 122.381418 
L 654.771253 121.028291 
L 655.229569 121.853322 
L 655.687885 122.276773 
L 656.146201 125.648896 
L 656.604517 127.301506 
L 657.062834 131.293821 
L 657.52115 137.206972 
L 657.979466 140.194128 
L 658.437782 141.618577 
L 658.896099 140.740772 
L 659.354415 136.937263 
L 659.812731 139.458193 
L 660.729363 142.289704 
L 661.18768 143.296735 
L 661.645996 140.69174 
L 662.104312 140.115547 
L 662.562628 137.853035 
L 663.020945 136.247909 
L 663.479261 136.46978 
L 663.937577 136.354006 
L 664.395893 132.604496 
L 664.854209 133.931494 
L 665.770842 140.580546 
L 666.229158 139.939999 
L 667.145791 135.7852 
L 667.604107 139.095517 
L 668.520739 143.53496 
L 668.979055 143.802702 
L 669.437372 146.070052 
L 669.895688 148.994563 
L 670.354004 148.609344 
L 670.81232 149.156312 
L 671.270637 148.329728 
L 671.728953 145.238525 
L 672.187269 144.967015 
L 672.645585 142.643742 
L 673.103901 135.368632 
L 673.103901 135.368632 
" style="fill:none;stroke:#ff7f0e;stroke-linecap:square;stroke-width:1.5;"/>
   </g>
   <g id="patch_3">
    <path d="M 108 378 
L 108 51.84 
" style="fill:none;stroke:#000000;stroke-linecap:square;stroke-linejoin:miter;stroke-width:0.8;"/>
   </g>
   <g id="patch_4">
    <path d="M 777.6 378 
L 777.6 51.84 
" style="fill:none;stroke:#000000;stroke-linecap:square;stroke-linejoin:miter;stroke-width:0.8;"/>
   </g>
   <g id="patch_5">
    <path d="M 108 378 
L 777.6 378 
" style="fill:none;stroke:#000000;stroke-linecap:square;stroke-linejoin:miter;stroke-width:0.8;"/>
   </g>
   <g id="patch_6">
    <path d="M 108 51.84 
L 777.6 51.84 
" style="fill:none;stroke:#000000;stroke-linecap:square;stroke-linejoin:miter;stroke-width:0.8;"/>
   </g>
   <g id="legend_1">
    <g id="patch_7">
     <path d="M 665.290625 89.19625 
L 770.6 89.19625 
Q 772.6 89.19625 772.6 87.19625 
L 772.6 58.84 
Q 772.6 56.84 770.6 56.84 
L 665.290625 56.84 
Q 663.290625 56.84 663.290625 58.84 
L 663.290625 87.19625 
Q 663.290625 89.19625 665.290625 89.19625 
z
" style="fill:#ffffff;opacity:0.8;stroke:#cccccc;stroke-linejoin:miter;"/>
    </g>
    <g id="line2d_60">
     <path d="M 667.290625 64.938437 
L 687.290625 64.938437 
" style="fill:none;stroke:#1f77b4;stroke-linecap:square;stroke-width:1.5;"/>
    </g>
    <g id="line2d_61"/>
    <g id="text_16">
     <!-- Site A Pendant -->
     <g transform="translate(695.290625 68.438437)scale(0.1 -0.1)">
      <defs>
       <path d="M 3425 4513 
L 3425 3897 
Q 3066 4069 2747 4153 
Q 2428 4238 2131 4238 
Q 1616 4238 1336 4038 
Q 1056 3838 1056 3469 
Q 1056 3159 1242 3001 
Q 1428 2844 1947 2747 
L 2328 2669 
Q 3034 2534 3370 2195 
Q 3706 1856 3706 1288 
Q 3706 609 3251 259 
Q 2797 -91 1919 -91 
Q 1588 -91 1214 -16 
Q 841 59 441 206 
L 441 856 
Q 825 641 1194 531 
Q 1563 422 1919 422 
Q 2459 422 2753 634 
Q 3047 847 3047 1241 
Q 3047 1584 2836 1778 
Q 2625 1972 2144 2069 
L 1759 2144 
Q 1053 2284 737 2584 
Q 422 2884 422 3419 
Q 422 4038 858 4394 
Q 1294 4750 2059 4750 
Q 2388 4750 2728 4690 
Q 3069 4631 3425 4513 
z
" id="DejaVuSans-53" transform="scale(0.015625)"/>
       <path d="M 1259 4147 
L 1259 2394 
L 2053 2394 
Q 2494 2394 2734 2622 
Q 2975 2850 2975 3272 
Q 2975 3691 2734 3919 
Q 2494 4147 2053 4147 
L 1259 4147 
z
M 628 4666 
L 2053 4666 
Q 2838 4666 3239 4311 
Q 3641 3956 3641 3272 
Q 3641 2581 3239 2228 
Q 2838 1875 2053 1875 
L 1259 1875 
L 1259 0 
L 628 0 
L 628 4666 
z
" id="DejaVuSans-50" transform="scale(0.015625)"/>
       <path d="M 2906 2969 
L 2906 4863 
L 3481 4863 
L 3481 0 
L 2906 0 
L 2906 525 
Q 2725 213 2448 61 
Q 2172 -91 1784 -91 
Q 1150 -91 751 415 
Q 353 922 353 1747 
Q 353 2572 751 3078 
Q 1150 3584 1784 3584 
Q 2172 3584 2448 3432 
Q 2725 3281 2906 2969 
z
M 947 1747 
Q 947 1113 1208 752 
Q 1469 391 1925 391 
Q 2381 391 2643 752 
Q 2906 1113 2906 1747 
Q 2906 2381 2643 2742 
Q 2381 3103 1925 3103 
Q 1469 3103 1208 2742 
Q 947 2381 947 1747 
z
" id="DejaVuSans-64" transform="scale(0.015625)"/>
      </defs>
      <use xlink:href="#DejaVuSans-53"/>
      <use x="63.476562" xlink:href="#DejaVuSans-69"/>
      <use x="91.259766" xlink:href="#DejaVuSans-74"/>
      <use x="130.46875" xlink:href="#DejaVuSans-65"/>
      <use x="191.992188" xlink:href="#DejaVuSans-20"/>
      <use x="223.779297" xlink:href="#DejaVuSans-41"/>
      <use x="292.1875" xlink:href="#DejaVuSans-20"/>
      <use x="323.974609" xlink:href="#DejaVuSans-50"/>
      <use x="380.652344" xlink:href="#DejaVuSans-65"/>
      <use x="442.175781" xlink:href="#DejaVuSans-6e"/>
      <use x="505.554688" xlink:href="#DejaVuSans-64"/>
      <use x="569.03125" xlink:href="#DejaVuSans-61"/>
      <use x="630.310547" xlink:href="#DejaVuSans-6e"/>
      <use x="693.689453" xlink:href="#DejaVuSans-74"/>
     </g>
    </g>
    <g id="line2d_62">
     <path d="M 667.290625 79.616562 
L 687.290625 79.616562 
" style="fill:none;stroke:#ff7f0e;stroke-linecap:square;stroke-width:1.5;"/>
    </g>
    <g id="line2d_63"/>
    <g id="text_17">
     <!-- Site B Pendant -->
     <g transform="translate(695.290625 83.116562)scale(0.1 -0.1)">
      <defs>
       <path d="M 1259 2228 
L 1259 519 
L 2272 519 
Q 2781 519 3026 730 
Q 3272 941 3272 1375 
Q 3272 1813 3026 2020 
Q 2781 2228 2272 2228 
L 1259 2228 
z
M 1259 4147 
L 1259 2741 
L 2194 2741 
Q 2656 2741 2882 2914 
Q 3109 3088 3109 3444 
Q 3109 3797 2882 3972 
Q 2656 4147 2194 4147 
L 1259 4147 
z
M 628 4666 
L 2241 4666 
Q 2963 4666 3353 4366 
Q 3744 4066 3744 3513 
Q 3744 3084 3544 2831 
Q 3344 2578 2956 2516 
Q 3422 2416 3680 2098 
Q 3938 1781 3938 1306 
Q 3938 681 3513 340 
Q 3088 0 2303 0 
L 628 0 
L 628 4666 
z
" id="DejaVuSans-42" transform="scale(0.015625)"/>
      </defs>
      <use xlink:href="#DejaVuSans-53"/>
      <use x="63.476562" xlink:href="#DejaVuSans-69"/>
      <use x="91.259766" xlink:href="#DejaVuSans-74"/>
      <use x="130.46875" xlink:href="#DejaVuSans-65"/>
      <use x="191.992188" xlink:href="#DejaVuSans-20"/>
      <use x="223.779297" xlink:href="#DejaVuSans-42"/>
      <use x="292.382812" xlink:href="#DejaVuSans-20"/>
      <use x="324.169922" xlink:href="#DejaVuSans-50"/>
      <use x="380.847656" xlink:href="#DejaVuSans-65"/>
      <use x="442.371094" xlink:href="#DejaVuSans-6e"/>
      <use x="505.75" xlink:href="#DejaVuSans-64"/>
      <use x="569.226562" xlink:href="#DejaVuSans-61"/>
      <use x="630.505859" xlink:href="#DejaVuSans-6e"/>
      <use x="693.884766" xlink:href="#DejaVuSans-74"/>
     </g>
    </g>
   </g>
  </g>
 </g>
 <defs>
  <clipPath id="pdc24e13ab1">
   <rect height="326.16" width="669.6" x="108" y="51.84"/>
  </clipPath>
 </defs>
</svg>
